{"glyphs":{"0":{"ha":788,"x_min":50,"x_max":804,"o":"m 579 1053 q 574 1073 581 1064 q 557 1085 568 1082 q 488 1099 514 1094 q 417 1100 461 1103 q 340 1081 374 1097 q 217 968 286 1053 q 92 738 136 869 q 50 472 47 604 q 119 215 54 329 q 318 44 186 101 q 608 83 468 -21 q 708 190 665 126 q 775 325 753 254 q 804 532 794 386 q 579 1053 828 894 m 440 919 q 498 899 474 919 q 554 835 522 879 q 632 668 615 749 q 640 539 644 619 q 615 389 636 458 q 451 215 565 224 q 301 308 354 208 q 258 554 251 404 q 324 811 265 704 q 440 919 372 899 m 542 935 q 518 953 531 946 q 553 1004 539 988 q 586 981 569 993 q 542 935 571 964 m 574 901 q 553 925 563 915 l 597 971 q 624 947 611 960 l 574 901 m 597 869 l 582 890 l 633 938 q 654 914 644 926 l 624 890 l 597 869 m 619 836 l 606 858 l 632 879 q 663 903 656 899 l 679 878 q 619 836 643 854 m 632 818 l 628 825 q 688 865 650 843 l 694 853 q 632 818 658 832 m 651 782 q 638 806 644 794 q 701 840 665 819 l 713 815 q 651 782 696 804 m 667 746 q 657 769 663 758 q 717 803 700 792 l 728 772 q 667 746 722 771 m 681 707 q 671 733 676 719 q 691 742 679 736 q 713 751 703 747 q 731 758 722 756 q 740 722 736 740 q 681 707 724 717 m 690 660 l 688 679 q 683 693 686 686 q 742 708 725 703 l 747 672 q 690 660 726 671 m 696 610 q 693 646 694 629 q 749 658 729 657 q 750 615 750 638 q 696 610 721 614 m 697 549 q 696 596 697 572 q 751 601 721 600 q 750 568 751 585 q 719 556 747 567 q 697 549 707 550 m 690 474 q 744 471 714 468 q 742 439 743 453 l 725 439 q 685 442 699 442 l 690 474 m 696 526 l 696 535 q 725 543 708 536 q 735 547 726 543 q 750 553 744 551 q 749 535 749 544 l 749 526 l 696 526 m 682 428 q 725 426 696 428 q 739 425 735 425 q 731 372 736 396 l 701 379 q 672 386 683 385 q 682 428 678 407 m 508 171 l 508 169 q 518 132 508 154 q 526 114 519 128 q 532 101 531 106 q 507 89 519 94 l 507 93 q 494 167 496 135 q 508 171 501 168 m 656 338 q 668 372 663 354 l 668 374 l 697 367 q 726 358 721 360 q 722 342 725 350 q 710 308 717 325 q 656 338 676 329 m 651 324 q 704 294 669 317 q 685 257 696 275 q 638 296 656 283 q 651 324 644 308 m 631 283 q 678 244 647 272 q 646 199 663 219 q 622 233 638 213 l 610 251 q 631 283 621 265 m 601 239 l 611 225 q 636 186 628 200 q 617 165 628 175 l 586 224 q 601 239 594 231 m 576 213 q 607 156 581 201 q 586 136 597 144 q 561 200 581 161 l 576 213 m 481 164 q 493 90 482 131 q 496 86 494 88 q 475 81 486 82 q 472 99 474 86 q 469 117 469 111 q 464 161 464 142 q 481 164 472 161 m 424 160 q 450 160 436 158 q 456 114 450 140 q 458 97 456 108 q 461 78 461 85 q 424 75 443 75 l 424 160 m 410 161 l 410 76 q 374 83 392 78 l 382 124 q 389 165 386 147 q 410 161 399 163 m 375 169 q 368 126 374 153 l 360 88 q 340 94 350 90 l 329 100 q 350 179 342 135 q 375 169 363 174 m 336 188 q 317 106 329 140 q 293 119 304 113 q 308 154 296 128 q 325 194 321 179 q 336 188 331 190 m 313 204 q 296 160 308 188 q 281 126 283 135 l 263 139 l 297 218 q 313 204 306 211 m 288 229 l 251 149 q 217 181 233 163 q 275 244 250 226 l 288 229 m 267 257 q 207 190 240 236 l 197 201 l 199 203 q 258 271 235 250 l 267 257 m 251 283 q 189 213 225 261 l 169 242 q 211 286 183 261 l 239 310 q 251 283 244 296 m 233 324 l 201 297 q 163 254 176 274 q 143 293 151 274 q 222 358 165 317 l 233 324 m 218 372 q 138 307 160 329 q 125 347 131 326 q 214 394 188 389 q 218 372 217 383 m 211 408 q 121 361 181 401 q 114 393 117 376 q 206 446 142 428 l 211 408 m 204 460 q 111 411 144 443 q 107 454 108 432 l 108 454 q 165 478 128 464 q 203 492 190 486 q 204 460 203 475 m 201 526 l 201 507 q 161 490 189 501 q 106 469 125 478 l 106 475 l 106 501 l 111 501 q 201 526 135 513 m 201 542 q 106 515 131 526 l 108 543 q 149 547 118 544 q 203 556 183 551 q 201 542 201 549 m 203 569 q 147 561 183 565 q 108 557 118 558 l 114 594 q 206 594 144 599 l 203 569 m 207 608 q 115 608 147 611 q 119 629 118 619 q 165 628 135 629 q 208 625 194 626 q 207 608 207 617 m 211 639 q 167 640 196 639 q 122 643 138 642 l 131 674 q 214 660 164 664 q 211 639 213 650 m 217 674 q 133 686 167 678 l 144 719 l 172 713 q 224 703 204 704 q 217 674 219 688 m 228 715 q 176 725 207 718 l 149 732 q 164 772 156 753 q 182 767 171 769 q 238 750 228 751 q 228 715 232 733 m 242 763 l 186 779 q 169 785 176 782 q 193 832 181 810 l 219 813 q 251 788 240 797 q 242 763 246 775 m 257 801 l 228 824 l 200 844 l 213 867 q 274 836 249 846 l 257 801 m 303 881 q 272 903 292 890 q 249 919 253 915 l 258 932 l 272 949 q 321 903 304 917 q 303 881 311 893 m 331 913 q 282 960 314 926 q 314 993 299 979 q 358 938 335 971 q 331 913 343 926 m 369 946 q 324 1003 346 979 q 363 1029 343 1019 q 383 956 369 990 q 369 946 376 951 m 396 963 q 375 1035 382 996 q 418 1044 394 1043 l 418 971 l 396 963 m 446 978 l 432 975 l 432 1046 l 453 1046 q 451 1024 453 1039 q 449 1003 449 1010 q 446 978 446 989 m 471 981 l 469 981 q 460 979 465 981 q 461 1001 461 989 q 465 1023 463 1008 q 467 1044 467 1038 q 499 1039 482 1043 l 493 1029 l 479 1001 q 471 981 474 990 m 485 976 q 492 996 488 986 q 506 1022 494 1001 l 513 1038 l 521 1035 q 535 1015 524 1022 l 540 1011 q 507 960 528 994 q 496 964 501 963 q 485 976 493 972 m 294 869 q 281 849 288 860 q 219 878 256 858 q 240 908 229 893 l 264 892 l 294 869 m 522 169 q 519 175 522 174 q 549 192 535 182 q 572 133 567 156 q 576 129 574 131 l 575 128 q 544 107 560 117 q 539 119 543 113 q 531 138 532 133 q 522 169 522 157 m 693 488 l 692 488 l 694 513 l 747 513 q 746 485 746 496 q 693 488 715 482 "},"1":{"ha":286,"x_min":60,"x_max":304,"o":"m 207 399 q 113 400 136 399 l 113 440 q 207 428 183 432 l 207 399 m 213 289 q 115 283 154 285 q 114 321 114 303 q 139 322 119 321 q 169 322 158 322 l 210 322 l 213 289 m 214 261 q 117 250 160 257 q 115 269 115 260 q 213 275 154 271 l 214 261 m 218 218 q 118 218 204 219 q 117 236 118 226 q 215 247 161 243 l 218 218 m 224 171 q 182 174 211 172 q 121 179 142 175 q 119 204 121 192 q 219 204 206 206 q 224 171 221 188 m 228 142 q 125 143 160 140 q 122 164 124 154 q 182 160 143 161 q 225 157 213 157 l 228 142 m 232 111 q 128 106 176 114 q 126 129 128 118 q 229 128 161 126 l 232 111 m 239 72 l 132 72 l 131 92 q 233 97 178 100 l 239 72 m 240 58 l 242 54 q 136 50 203 50 l 135 58 l 240 58 m 208 364 q 183 365 199 364 l 153 368 q 113 368 129 369 l 113 386 q 208 385 136 385 l 208 364 m 208 350 q 210 336 210 343 l 190 336 l 169 336 q 139 335 158 336 q 114 335 119 335 q 113 354 113 344 q 151 354 129 356 l 182 351 q 208 350 199 350 m 243 800 q 140 810 186 800 l 140 819 q 244 808 186 813 l 243 800 m 235 763 q 182 765 232 763 q 140 767 157 767 l 140 796 q 240 786 185 786 q 235 763 238 775 m 229 731 q 138 736 168 740 q 139 753 139 744 q 181 751 156 753 q 232 749 231 749 l 229 731 m 224 694 q 133 697 160 693 q 136 721 135 710 q 228 717 165 726 q 224 694 225 706 m 219 661 l 128 661 l 131 683 q 222 681 161 679 l 219 661 m 214 610 q 168 613 197 611 q 122 614 135 613 q 126 647 124 626 l 218 647 q 214 610 217 629 m 211 569 q 117 571 136 568 l 119 600 q 167 599 135 599 q 214 596 197 597 q 211 569 213 583 m 208 529 q 115 533 144 533 l 115 542 l 115 557 q 210 556 136 554 q 208 529 210 542 m 207 478 q 156 488 192 482 q 114 494 128 490 l 114 519 q 208 515 143 519 q 207 478 208 496 m 207 442 q 113 454 183 446 q 114 481 113 467 q 154 474 128 476 q 207 463 192 468 l 207 442 m 303 828 q 304 833 304 831 q 297 853 304 844 q 278 863 289 863 q 132 878 189 867 q 104 867 115 881 q 88 857 94 865 q 83 838 82 849 q 76 696 89 785 q 60 544 61 578 q 83 21 49 250 q 104 -1 86 3 q 118 -6 111 -6 q 265 1 217 -6 q 286 18 281 4 q 300 47 303 28 q 263 431 264 228 q 303 814 263 635 q 303 828 306 821 "},"2":{"ha":674,"x_min":47,"x_max":689,"o":"m 532 68 q 561 69 547 68 q 563 -14 564 28 q 546 19 553 3 q 532 68 533 47 m 503 68 l 518 68 q 532 14 519 44 q 560 -35 543 -11 l 524 -35 q 503 68 518 -17 m 489 68 q 508 -33 504 -18 q 472 -32 492 -33 q 463 10 467 -15 q 456 69 457 38 q 489 68 474 68 m 442 69 q 449 7 443 36 q 458 -32 453 -15 q 428 -31 443 -31 q 424 19 424 -12 q 422 71 424 57 q 442 69 432 71 m 408 72 q 410 19 410 57 q 414 -29 410 -11 l 393 -29 q 390 72 382 25 l 408 72 m 376 74 q 378 -28 368 26 l 347 -26 q 351 7 349 -14 q 355 44 353 28 q 360 75 357 60 l 376 74 m 332 76 q 251 -21 303 44 q 156 -17 197 -18 q 331 76 254 31 l 332 76 m 299 104 l 299 99 q 253 98 283 99 q 214 97 222 97 q 147 97 175 96 l 179 147 q 238 126 199 136 q 299 104 281 114 m 458 357 q 411 389 443 372 l 364 415 l 390 451 q 481 393 457 406 l 458 357 m 436 319 q 394 349 401 344 q 354 374 371 365 q 339 379 346 376 l 346 389 l 356 404 q 404 378 365 399 q 451 344 436 360 l 436 319 m 403 267 l 347 313 l 313 340 l 331 367 q 349 361 339 365 q 386 338 364 353 q 428 307 390 335 l 403 267 m 381 232 l 279 292 l 304 328 l 338 301 q 394 256 383 265 l 396 256 l 381 232 m 325 154 q 211 193 296 169 l 240 235 q 335 168 288 193 q 336 167 335 167 l 325 154 m 317 143 l 313 138 q 306 122 307 132 q 303 118 304 121 q 240 139 283 126 q 188 158 206 150 l 203 181 q 317 143 290 156 m 358 199 q 354 203 357 201 q 297 236 335 211 q 258 261 272 253 l 271 281 l 372 221 l 358 199 m 351 189 l 343 178 q 340 179 342 179 q 247 246 296 206 l 250 249 q 290 224 264 242 q 349 189 328 199 l 351 189 m 564 542 q 478 578 533 561 q 493 608 486 593 l 526 599 q 582 576 561 588 l 582 575 l 564 542 m 549 513 q 546 514 547 514 q 464 554 513 524 l 471 565 q 558 529 529 549 l 549 513 m 531 479 q 443 524 464 507 l 456 543 q 542 500 506 511 l 531 479 m 508 442 q 421 493 474 468 l 436 513 q 524 467 458 494 l 508 442 m 501 429 l 494 417 l 488 406 q 399 463 465 417 l 413 482 q 501 429 467 457 m 618 651 q 615 653 617 653 q 517 668 561 663 q 519 681 518 675 q 521 693 521 688 q 632 693 579 692 q 618 651 629 678 m 613 639 l 590 592 l 588 588 q 531 611 568 599 l 500 621 q 513 656 507 639 q 613 639 557 649 m 626 814 q 565 788 606 806 q 517 765 525 769 q 514 775 515 771 q 618 838 572 817 q 626 814 624 826 m 635 768 q 588 757 625 765 q 524 740 544 747 q 521 753 522 747 q 570 774 532 757 q 631 800 608 792 q 635 768 633 785 m 636 754 q 635 707 636 732 q 524 707 581 706 l 524 726 q 590 743 542 732 q 636 754 621 750 m 526 911 l 482 808 q 475 811 478 810 q 488 919 486 875 q 526 911 508 917 m 575 888 l 574 888 q 555 868 574 886 q 531 844 536 850 q 514 824 525 838 l 494 799 l 493 800 q 539 907 514 844 q 575 888 560 899 m 586 879 q 596 869 592 875 q 611 849 604 860 q 506 786 565 829 l 506 788 q 518 806 511 797 q 534 826 525 815 q 550 842 543 836 l 567 861 q 585 876 579 872 q 586 879 585 878 m 421 921 q 461 921 442 922 l 474 921 q 463 817 472 878 q 432 821 449 821 q 421 921 429 881 m 407 919 q 418 821 415 881 q 383 818 401 821 q 375 917 381 832 l 407 919 m 361 914 q 369 815 367 832 q 349 810 360 813 q 326 907 338 842 q 361 914 344 911 m 313 904 q 335 806 324 839 q 319 800 328 803 q 300 857 315 814 q 286 897 290 882 q 313 904 300 901 m 272 893 l 286 853 q 307 796 303 808 q 281 786 293 792 q 242 883 249 863 q 272 893 257 889 m 228 878 q 268 781 235 857 l 260 776 l 250 772 l 211 872 l 228 878 m 199 867 l 238 767 l 203 749 q 172 856 193 781 q 199 867 185 861 m 160 849 q 190 742 179 775 l 183 738 q 167 781 176 751 q 142 840 151 821 l 160 849 m 129 833 q 153 775 139 815 q 171 729 164 744 l 157 721 l 142 765 q 124 831 129 806 l 129 833 m 276 85 q 111 33 176 56 l 111 43 q 118 51 115 46 l 139 83 q 215 83 169 82 q 246 84 225 83 q 276 85 267 85 m 310 79 q 124 -15 231 33 l 111 -15 l 111 18 q 310 79 182 43 m 344 69 q 338 15 342 51 q 333 -25 333 -21 l 329 -25 l 268 -22 q 344 69 317 39 m 79 868 q 67 835 60 857 l 67 826 q 89 747 74 796 q 111 676 111 678 q 115 664 111 669 q 132 651 121 654 q 153 654 143 649 q 282 726 240 707 q 425 765 372 767 q 461 753 453 765 q 464 692 474 736 q 397 554 451 633 q 349 488 383 533 q 299 419 314 443 l 194 267 q 75 88 115 153 q 56 61 56 82 l 56 -24 q 47 -43 47 -32 q 56 -62 47 -54 q 75 -71 64 -71 q 326 -81 158 -71 q 579 -90 494 -90 q 585 -92 582 -92 q 605 -85 596 -93 q 615 -67 614 -78 q 615 86 622 10 q 607 104 614 96 q 596 121 604 114 q 576 126 588 128 q 376 129 515 121 q 543 389 443 219 q 640 568 600 488 q 689 694 685 657 q 636 908 706 833 q 464 976 578 971 q 264 949 371 981 q 79 868 157 917 "},"3":{"ha":788,"x_min":26,"x_max":806,"o":"m 360 992 l 394 992 l 392 978 q 383 935 386 947 q 363 875 375 899 q 354 876 358 876 q 357 935 354 896 q 360 992 360 974 m 313 992 l 329 992 l 346 992 q 343 935 346 975 q 340 875 340 894 q 322 872 332 874 q 318 926 319 893 q 313 992 314 974 m 299 990 l 304 925 q 308 871 306 892 q 283 867 297 869 q 268 990 278 944 l 299 990 m 254 990 q 269 865 265 944 l 242 860 q 225 989 226 915 l 254 990 m 211 989 q 228 857 213 914 l 225 857 l 197 851 q 188 925 194 868 q 178 989 182 964 l 211 989 m 164 988 q 174 924 168 964 q 183 850 181 865 l 169 847 q 139 988 147 919 l 164 988 m 125 988 q 156 846 133 918 q 126 842 140 843 q 114 988 115 928 l 125 988 m 481 740 q 479 733 479 736 q 344 708 435 726 l 357 736 q 411 735 390 735 q 461 736 443 735 q 481 740 472 738 m 508 811 q 383 807 410 813 q 388 824 385 815 q 515 829 424 829 l 508 811 m 494 778 l 492 778 q 457 779 482 778 q 418 781 432 781 q 372 776 392 781 q 378 792 376 785 q 503 797 408 799 l 494 778 m 488 758 q 482 756 483 758 l 476 753 q 460 750 471 751 q 411 749 442 749 q 363 750 392 749 l 367 760 q 418 767 386 767 q 456 765 431 767 q 489 764 481 764 l 488 758 m 522 851 l 519 843 q 390 838 426 843 l 392 840 l 392 851 l 522 851 m 93 228 q 83 247 88 238 l 167 296 l 169 289 l 138 263 q 93 228 110 239 m 114 194 l 100 217 q 146 253 118 228 l 176 276 q 190 258 183 267 q 153 225 178 244 l 114 194 m 232 99 q 208 110 219 104 q 196 117 203 114 q 257 201 210 133 l 279 190 l 257 144 q 232 99 242 115 m 283 78 q 244 92 264 83 q 269 138 256 110 l 293 186 q 308 181 300 183 q 283 78 307 169 m 335 65 q 297 74 315 68 q 322 176 321 167 q 329 175 326 175 q 339 172 335 174 q 335 111 335 149 l 335 88 l 335 65 m 386 60 q 349 63 367 60 l 349 86 l 349 111 q 353 169 349 147 q 383 165 368 167 q 382 108 379 143 q 386 69 382 107 l 386 60 m 439 58 l 414 58 l 400 58 l 400 71 q 396 110 396 108 q 397 165 393 143 l 410 164 q 422 165 422 164 q 439 58 424 140 m 488 64 q 454 60 471 61 q 436 165 438 144 q 449 167 443 167 q 468 114 454 146 q 488 64 485 72 m 531 74 q 501 67 517 69 q 481 118 499 76 q 463 169 468 149 l 490 175 q 531 74 506 111 m 583 94 q 544 79 565 86 q 503 179 518 114 q 535 193 519 185 q 557 147 543 175 l 583 94 m 622 119 q 596 101 610 110 l 569 154 q 547 200 556 182 q 564 210 556 204 q 622 119 583 172 m 660 153 q 633 128 647 140 q 575 218 594 181 q 596 235 586 226 q 660 153 639 174 m 693 197 l 676 172 l 669 164 q 607 246 651 182 q 626 268 617 256 q 653 239 635 257 q 693 197 681 211 m 724 261 q 700 210 714 233 q 664 249 689 224 q 635 279 643 269 q 647 301 642 290 q 718 263 668 294 q 724 261 721 261 m 736 306 q 728 272 733 289 l 726 274 q 654 314 675 306 l 660 328 q 693 318 669 326 q 736 306 719 308 m 746 361 q 713 372 739 364 q 674 386 688 381 q 675 406 675 396 q 750 403 722 406 q 746 361 749 382 m 744 347 q 740 319 743 333 q 697 331 724 322 q 664 342 674 339 l 665 346 q 672 372 669 358 q 710 358 685 367 q 744 347 735 350 m 750 454 q 750 417 751 435 q 675 419 722 419 q 671 450 674 435 q 711 451 679 450 q 750 454 735 453 m 750 468 q 711 465 735 467 q 668 464 676 464 l 660 486 q 707 506 679 493 l 747 524 q 750 468 749 515 m 531 704 q 440 610 496 679 q 381 610 411 611 q 519 706 463 663 q 531 704 525 706 m 606 679 l 579 636 q 550 588 560 607 q 526 596 539 592 q 581 690 569 653 q 606 679 593 686 m 660 647 q 581 574 601 588 q 563 582 572 578 q 590 629 572 600 l 618 674 q 660 647 640 661 m 692 621 l 606 557 q 593 565 599 561 q 671 639 613 579 l 692 621 m 722 588 q 632 531 661 554 q 615 547 625 539 l 703 611 q 722 588 714 599 m 731 576 q 735 569 732 572 q 746 538 742 557 l 701 519 q 653 499 672 506 q 642 517 649 508 l 640 519 q 731 576 669 543 m 568 694 q 513 600 557 660 q 457 608 486 606 q 542 696 507 671 q 544 701 544 699 q 568 694 556 699 m 382 885 q 397 932 390 904 q 406 975 400 944 l 408 992 q 453 990 432 992 l 419 936 q 382 885 399 904 m 392 875 q 431 929 410 894 l 450 958 l 469 990 l 533 988 l 517 972 l 469 931 q 392 875 424 892 m 439 889 q 478 919 457 901 l 526 963 l 550 983 q 542 918 550 954 q 464 896 529 914 q 439 889 450 892 m 413 865 q 468 882 433 874 l 539 901 q 528 865 533 885 q 413 865 500 864 m 401 668 q 300 607 340 626 l 297 607 l 297 614 q 307 626 304 618 l 310 631 q 394 665 338 649 l 401 668 m 453 685 q 493 703 475 693 q 353 610 438 663 q 333 608 343 610 q 410 657 364 626 l 453 685 m 446 697 q 390 679 432 693 q 319 653 344 665 l 338 692 q 481 719 436 713 l 446 697 m 203 211 l 178 190 l 143 161 q 124 183 132 172 q 161 214 129 189 q 199 247 186 233 q 218 229 208 238 q 204 219 210 224 q 203 211 200 215 m 226 218 l 229 219 q 244 208 236 214 q 185 125 199 140 q 153 151 168 138 q 188 179 163 160 q 225 210 210 200 q 226 218 231 213 m 604 1019 q 594 1038 603 1031 q 572 1043 585 1044 q 565 1040 568 1042 q 329 1047 486 1047 q 222 1045 306 1047 q 93 1043 138 1043 q 74 1035 82 1043 q 65 1015 65 1026 l 65 1014 q 58 996 58 1007 q 75 811 58 924 l 75 808 q 85 790 76 797 q 106 783 93 782 q 235 803 143 788 q 328 818 299 814 q 313 775 322 799 q 297 735 304 751 l 275 690 q 257 649 263 663 q 256 647 256 649 q 240 619 239 639 l 243 592 q 246 583 243 588 q 244 574 244 579 q 255 555 246 563 q 275 549 264 547 q 451 553 372 558 q 597 485 554 546 q 613 361 633 432 q 517 247 590 289 q 343 228 444 204 q 215 322 249 250 q 203 335 211 331 q 199 349 203 342 q 181 360 192 358 q 160 357 169 363 q 50 292 143 346 q 36 269 38 285 q 26 238 19 257 q 89 136 49 183 q 181 63 131 90 q 414 3 288 3 q 721 139 617 3 q 806 464 814 263 q 805 485 806 467 q 803 514 804 504 q 801 540 803 524 q 794 571 799 557 q 782 597 789 585 q 683 699 750 653 q 547 758 615 744 q 604 1019 617 929 "},"4":{"ha":733,"x_min":128,"x_max":751,"o":"m 342 406 l 344 406 q 351 403 347 404 q 269 315 319 367 l 200 315 q 342 406 307 379 m 329 422 q 218 397 310 419 l 222 410 q 293 419 242 415 q 329 424 315 421 l 329 422 m 363 533 q 274 544 346 536 l 275 546 l 283 568 q 371 563 324 571 l 363 533 m 351 500 l 349 500 l 257 500 l 268 531 q 358 519 346 522 l 351 500 m 342 469 l 244 469 l 251 486 l 347 486 l 342 469 m 400 657 q 318 661 368 661 l 325 679 q 406 674 356 683 l 400 657 m 375 576 q 289 582 328 585 l 293 593 q 379 589 340 590 l 375 576 m 393 636 q 376 638 388 638 q 360 640 365 639 q 311 642 331 643 l 314 647 q 394 643 365 647 l 393 636 m 389 622 l 383 603 q 299 607 344 604 l 306 626 q 358 626 326 629 q 373 624 363 625 q 389 622 383 624 m 424 721 q 343 736 369 735 l 349 758 q 431 736 390 749 l 424 721 m 418 708 l 415 703 l 410 688 q 329 694 361 696 l 339 722 q 418 708 365 721 m 438 749 l 353 772 l 357 789 l 446 765 q 438 749 443 758 m 476 418 q 474 315 474 382 l 447 315 q 450 367 449 329 q 453 415 451 399 l 476 418 m 439 414 q 436 368 438 399 q 433 315 435 328 l 400 315 q 406 358 401 329 q 413 410 411 392 q 439 414 424 411 m 399 408 q 393 360 397 393 q 386 315 388 331 l 358 315 q 393 408 382 369 l 399 408 m 378 407 q 343 315 367 369 l 289 315 q 372 407 340 367 l 378 407 m 328 438 q 292 433 314 435 q 228 425 246 429 l 239 456 l 336 456 l 335 453 q 328 438 329 446 m 654 625 q 624 628 644 625 q 565 632 585 632 l 565 653 q 600 651 576 653 q 653 649 635 649 q 657 650 654 649 l 654 625 m 651 597 q 564 600 610 600 l 565 618 q 622 614 585 618 q 653 611 643 613 l 651 597 m 649 557 l 564 557 l 564 586 q 651 583 608 586 l 649 557 m 644 508 q 563 510 583 507 q 564 543 564 524 l 647 543 l 644 508 m 642 474 l 614 474 q 563 475 582 474 l 563 494 q 644 494 585 493 l 642 474 m 639 431 q 557 433 583 429 q 561 446 561 439 l 561 461 q 614 460 581 460 l 642 460 l 639 431 m 629 246 q 526 258 575 250 l 531 289 l 531 292 q 579 288 551 290 q 606 285 589 286 q 631 282 624 283 l 629 246 m 626 210 q 580 215 618 211 q 522 222 542 218 l 525 244 q 628 232 574 236 l 626 210 m 625 164 q 568 167 607 165 q 517 171 535 169 l 521 208 q 580 201 542 204 q 626 196 618 197 q 625 164 625 181 m 624 114 q 511 115 554 114 l 515 157 q 568 154 533 156 l 625 150 q 624 114 624 132 m 622 64 q 507 71 539 71 l 510 101 q 624 100 553 100 q 622 64 622 82 m 621 22 q 503 32 550 22 l 506 58 q 622 50 536 57 q 621 22 622 36 m 621 -12 q 564 -6 600 -12 q 501 6 518 4 l 501 18 q 621 8 550 8 l 621 -12 m 621 -26 l 621 -35 q 497 -31 528 -33 l 500 -8 q 561 -18 515 -10 q 621 -26 599 -26 m 669 765 q 569 768 613 775 l 572 807 q 675 799 636 803 l 669 765 m 657 661 q 653 663 656 663 q 601 664 636 663 q 565 667 578 665 q 567 701 567 685 q 597 703 578 701 q 632 706 622 704 q 663 703 649 706 q 657 661 660 681 m 665 735 q 568 742 593 742 l 569 753 q 668 751 611 761 l 665 735 m 664 721 l 664 717 q 632 719 650 719 q 596 717 621 718 q 567 715 578 715 l 568 728 q 664 721 592 728 m 694 960 q 599 975 631 975 l 597 975 q 601 989 599 982 l 694 969 l 694 960 m 693 938 l 653 943 q 590 947 615 947 l 593 964 q 599 961 596 961 q 693 946 629 961 l 693 938 m 689 900 q 582 906 658 906 q 588 933 585 921 q 651 929 613 933 l 692 924 q 689 900 690 913 m 683 863 q 576 860 594 863 q 581 892 578 876 q 688 888 658 892 l 683 863 m 682 849 l 679 824 l 676 813 q 574 821 638 817 q 575 846 574 833 q 682 849 594 849 m 319 407 q 199 331 288 385 q 214 382 206 356 q 258 394 218 383 q 319 407 299 404 m 535 396 q 542 421 538 408 l 544 421 q 639 417 575 415 l 636 386 q 535 396 607 392 m 525 354 l 531 382 q 636 372 607 378 l 633 344 l 581 349 q 525 354 544 353 m 522 340 q 579 336 542 340 q 633 331 619 332 l 631 296 q 608 299 625 297 q 581 301 590 300 q 526 306 550 304 q 519 314 524 311 q 522 340 521 326 m 511 353 q 508 347 508 350 q 510 343 508 346 q 506 319 507 332 q 488 315 496 321 q 490 419 488 383 q 519 422 507 422 q 526 421 524 421 q 511 353 517 386 m 751 985 q 744 1005 751 996 q 725 1014 736 1014 l 722 1014 q 706 1025 715 1022 q 671 1033 699 1026 q 624 1042 643 1039 q 585 1046 604 1044 q 565 1038 574 1046 q 556 1019 557 1031 q 550 1011 553 1017 q 513 733 522 936 q 508 589 510 671 q 507 478 507 499 q 439 469 488 476 q 399 465 414 467 q 426 554 410 497 q 468 683 454 650 q 486 722 472 693 q 507 771 501 751 q 499 800 513 788 q 482 813 493 810 q 405 834 456 821 q 336 851 354 847 q 315 849 325 854 q 303 832 306 843 q 306 811 300 821 l 304 810 q 222 567 288 733 q 138 315 157 400 q 136 307 136 311 q 128 288 128 299 q 136 268 128 276 q 156 260 144 260 l 471 260 q 440 -42 468 238 l 440 -43 q 438 -53 439 -47 q 443 -73 436 -64 q 463 -83 450 -82 q 651 -92 485 -86 q 672 -84 664 -92 q 681 -65 681 -76 q 676 -49 681 -57 q 713 651 676 243 q 733 817 717 696 q 751 985 749 931 "},"5":{"ha":735,"x_min":58,"x_max":751,"o":"m 279 525 l 274 524 q 238 511 254 518 q 249 601 242 557 l 285 610 q 282 574 283 597 q 279 525 279 542 m 315 535 l 293 529 q 296 574 293 543 q 299 613 297 599 q 319 615 310 614 q 315 535 318 607 m 354 543 l 329 538 q 335 618 332 604 l 364 621 q 360 579 364 606 q 354 543 354 551 m 400 549 q 368 544 385 547 q 374 576 369 551 q 378 622 378 604 l 410 625 q 400 549 407 582 m 444 549 l 414 549 q 424 625 421 583 l 460 625 q 444 549 453 606 m 475 544 l 458 547 q 474 624 467 606 q 507 619 492 622 q 490 583 507 617 q 475 544 479 561 m 515 533 q 506 538 511 535 q 489 542 497 540 q 503 578 493 556 q 521 617 519 613 q 539 613 531 615 q 554 608 547 610 q 532 564 547 593 l 515 533 m 546 517 q 528 528 538 522 l 544 557 q 567 603 560 588 q 600 588 585 596 q 546 517 572 556 m 569 494 q 557 508 564 501 q 613 579 583 549 q 636 558 625 571 q 594 525 614 544 q 569 494 579 508 m 593 451 l 588 465 l 585 471 q 669 514 606 483 q 682 482 676 499 q 635 465 667 475 q 593 451 603 454 m 601 403 q 597 438 600 421 l 638 450 q 686 468 669 461 q 696 406 693 439 q 601 403 664 403 m 599 363 q 601 389 600 376 q 696 392 664 389 q 697 361 697 371 q 599 363 625 358 m 589 317 l 592 328 q 596 349 594 339 q 699 347 625 344 q 696 290 699 314 q 589 317 622 301 m 579 279 q 586 303 582 290 q 693 276 621 288 q 688 251 692 264 q 682 236 685 243 q 636 256 667 242 l 579 279 m 564 240 q 574 265 569 253 q 631 242 593 258 q 676 224 661 229 q 653 179 667 201 l 564 240 m 533 194 l 543 207 q 557 228 550 217 l 644 168 q 621 138 633 153 q 533 194 589 163 m 525 185 q 611 126 579 151 l 603 118 q 513 172 539 163 l 525 185 m 500 161 q 593 108 529 153 q 560 81 578 94 q 515 117 549 89 l 481 144 l 500 161 m 468 135 q 507 106 483 125 l 549 71 l 519 51 q 456 126 475 90 l 468 135 m 444 118 q 507 43 464 82 l 471 21 q 407 94 432 63 l 444 118 m 317 39 q 350 -33 321 21 q 319 -43 335 -37 q 318 -40 319 -42 l 286 24 q 317 39 301 31 m 376 75 l 390 83 l 396 88 q 457 14 421 56 l 422 -4 q 376 75 388 39 m 364 68 q 408 -10 376 32 q 364 -28 386 -19 q 329 46 332 31 l 364 68 m 274 18 l 307 -46 l 307 -47 q 279 -54 293 -51 q 250 8 258 -19 q 274 18 263 13 m 238 4 q 264 -58 244 -24 l 256 -60 q 238 -25 250 -47 q 225 1 226 -3 q 238 4 231 3 m 118 743 q 121 817 118 760 q 192 707 139 772 q 190 701 190 704 q 156 721 179 707 q 119 742 133 735 q 118 743 119 743 m 115 675 q 118 728 117 699 q 151 707 126 722 q 192 685 176 692 l 193 674 q 161 675 188 674 q 121 678 135 676 q 115 675 118 678 m 115 643 l 115 667 q 121 664 117 664 q 160 661 135 663 q 193 660 186 660 l 193 651 l 163 647 q 115 643 131 643 m 115 590 l 115 629 q 164 635 132 629 q 193 638 183 636 q 194 632 193 635 q 193 629 194 631 q 115 590 140 614 m 117 532 q 121 533 119 532 l 213 597 q 218 596 215 596 q 171 519 204 565 l 126 460 l 122 458 q 117 532 118 493 m 117 547 q 115 575 115 561 q 122 576 119 575 q 194 615 144 600 q 200 606 196 610 l 117 547 m 547 836 q 565 838 557 838 q 567 796 567 824 q 569 742 568 758 q 549 740 560 740 q 547 836 544 760 m 517 832 l 533 833 q 535 740 531 763 l 521 740 q 518 783 521 756 q 517 832 517 815 m 471 825 q 500 829 483 826 l 503 829 q 506 782 503 814 q 507 740 507 754 l 501 742 l 476 742 q 471 825 471 772 m 438 821 l 457 824 q 461 742 457 772 l 443 742 q 438 821 438 785 m 403 818 q 419 819 411 819 l 424 819 q 429 742 424 783 q 408 740 418 742 q 403 818 408 749 m 374 818 l 389 818 q 394 739 394 747 l 382 739 q 380 761 381 746 q 378 782 379 776 q 374 818 376 803 m 349 818 l 360 818 q 364 781 363 803 q 366 760 365 775 q 368 738 367 746 l 360 736 q 349 818 349 794 m 304 819 q 335 818 321 818 q 346 735 335 793 l 317 733 q 304 819 307 778 m 264 821 q 290 819 282 819 q 303 732 293 776 q 283 731 292 731 q 264 821 265 806 m 235 822 l 250 821 q 269 729 253 801 q 256 728 263 729 q 250 754 253 738 q 246 778 247 771 q 235 822 240 804 m 186 824 q 219 822 201 824 q 232 775 226 806 q 236 753 233 767 q 242 728 239 736 l 225 728 l 221 728 l 219 728 q 186 824 199 772 m 133 824 l 171 824 q 206 725 183 771 q 199 719 201 722 q 133 824 151 781 m 233 596 q 222 507 226 553 q 156 476 188 493 l 182 511 q 233 596 218 560 m 579 485 q 604 514 589 499 q 646 549 624 533 l 663 526 q 579 485 600 496 m 94 876 q 76 867 83 875 q 69 849 69 860 q 67 838 67 843 q 65 793 67 829 q 63 746 63 757 q 61 702 63 735 q 60 654 60 669 q 59 610 60 639 q 60 562 58 581 q 63 517 61 543 q 66 469 64 492 q 71 424 68 446 q 92 401 74 406 q 128 396 108 383 q 290 471 201 443 q 488 485 415 508 q 536 443 524 472 q 539 342 553 406 q 499 240 522 272 q 458 198 483 219 q 415 165 432 176 q 360 131 397 153 q 341 118 357 128 q 321 106 325 108 q 302 94 317 103 q 282 83 288 86 l 264 75 q 243 65 251 68 q 224 58 235 63 q 203 53 214 54 l 183 50 q 165 40 172 49 q 158 19 157 31 q 167 3 160 10 q 169 -14 165 -6 q 189 -50 174 -21 l 213 -97 q 240 -114 221 -115 q 258 -117 249 -118 q 399 -73 328 -101 q 540 -2 471 -44 q 664 103 610 40 q 740 235 718 164 q 751 404 757 286 q 554 667 742 615 q 249 658 432 699 l 249 672 q 318 678 278 674 q 408 685 397 685 q 501 686 436 686 q 599 688 564 685 q 624 711 619 689 q 626 728 628 718 q 622 796 624 749 q 618 872 622 846 q 607 890 617 883 q 586 896 597 897 q 581 894 583 894 l 572 894 q 493 883 549 892 q 417 875 443 876 q 258 876 365 872 q 94 876 151 881 "},"6":{"ha":710,"x_min":36,"x_max":728,"o":"m 386 1025 q 379 1032 383 1029 q 358 1035 369 1038 q 340 1024 347 1033 q 286 950 322 996 q 229 874 244 897 q 78 581 132 735 q 36 276 24 426 q 92 86 47 144 q 239 -22 147 13 q 430 -42 332 -57 q 596 36 528 -26 q 728 276 732 165 q 617 433 725 378 q 435 471 542 474 q 251 419 329 468 q 515 893 308 675 q 519 924 528 907 l 521 925 q 519 947 525 936 q 504 961 514 957 q 472 976 488 967 q 433 999 456 985 l 397 1021 q 386 1025 392 1024 m 364 958 l 372 971 q 397 956 381 967 l 431 935 q 463 918 447 925 l 444 900 q 364 958 410 918 m 332 918 l 356 947 q 436 889 401 908 l 415 865 q 332 918 369 888 m 306 885 l 324 907 q 406 854 360 876 l 396 842 q 306 885 336 875 m 276 846 q 296 872 285 858 q 388 831 328 864 l 369 806 l 332 819 q 307 831 326 822 l 276 846 m 257 817 l 268 833 q 301 819 279 829 q 326 807 322 810 q 361 794 346 799 l 344 771 q 300 794 326 779 l 257 817 m 233 781 l 250 806 q 293 782 256 803 q 336 760 318 767 l 325 742 q 279 761 314 747 q 233 781 250 772 m 206 731 l 226 768 l 274 747 q 318 731 308 735 l 300 700 q 256 715 289 704 q 206 731 224 726 m 185 692 l 199 718 q 249 703 217 714 q 293 688 282 692 l 279 660 q 185 692 196 686 m 167 653 l 178 679 q 272 647 194 672 l 258 618 q 253 622 257 622 q 167 653 222 625 m 144 601 q 160 640 151 621 q 253 608 218 611 l 254 608 l 244 583 q 144 601 204 594 m 128 553 l 139 588 q 239 571 200 581 l 231 547 q 203 549 221 547 q 181 551 185 550 q 128 553 149 554 m 115 515 q 122 538 119 526 q 179 538 144 540 q 201 535 185 536 q 225 533 217 533 l 217 506 q 115 515 176 514 m 106 472 q 113 501 108 486 q 213 493 172 500 l 204 464 q 106 472 172 465 m 94 410 q 103 458 97 433 q 201 450 169 451 l 197 433 q 94 410 179 425 m 92 388 q 93 396 93 392 l 96 396 q 193 417 179 411 q 189 392 192 404 q 144 390 172 390 q 92 388 107 389 m 89 325 q 92 374 89 349 q 146 376 106 375 q 186 378 171 376 l 185 368 q 140 349 169 363 l 89 325 m 93 260 q 92 282 93 269 q 90 310 90 296 q 146 336 104 317 q 182 351 168 346 q 183 340 182 346 q 93 260 151 304 m 288 240 q 275 226 281 233 q 246 269 260 242 l 233 296 q 219 322 226 313 q 232 331 226 325 q 257 288 240 314 l 288 240 m 313 264 l 297 251 q 268 296 292 261 q 242 340 251 322 q 276 369 257 357 q 292 313 278 347 q 301 291 293 310 q 313 264 308 272 m 344 285 q 313 389 325 329 q 336 399 324 394 q 360 293 353 351 q 344 285 353 289 m 383 301 q 374 299 379 300 q 350 403 367 357 l 375 408 q 378 365 376 394 q 383 303 379 324 l 383 301 m 415 308 q 397 306 406 307 q 392 367 393 326 q 389 411 390 397 q 429 415 408 414 q 415 351 418 393 l 415 308 m 542 278 q 535 283 539 282 q 511 296 524 290 q 539 394 519 353 q 537 403 543 400 q 528 400 531 407 q 497 301 506 358 q 469 308 483 306 q 494 413 481 376 q 569 393 535 407 q 547 347 564 378 q 522 299 529 315 q 527 290 521 292 q 536 293 533 288 q 558 340 542 310 q 582 388 576 371 l 590 385 q 626 361 611 374 l 542 278 m 546 249 q 549 256 547 251 q 671 286 574 258 q 672 275 672 281 q 669 246 674 261 q 546 249 611 254 m 299 160 q 380 241 324 215 q 488 246 436 267 q 486 240 488 243 q 416 154 474 178 q 299 160 358 131 m 540 226 l 542 229 l 542 233 q 667 232 607 242 q 651 194 661 214 q 540 226 564 217 m 529 190 q 538 214 533 201 q 644 182 564 203 q 614 138 632 161 q 574 163 606 143 q 529 190 544 178 m 506 153 q 522 178 515 165 q 567 150 539 167 q 606 126 601 129 l 565 85 l 506 153 m 485 132 q 497 143 492 138 q 556 76 532 101 q 521 49 539 61 q 503 90 514 63 q 485 132 492 119 m 446 107 q 474 122 461 114 q 490 85 479 111 q 508 42 501 57 q 471 25 490 32 q 446 107 447 97 m 415 96 q 433 101 424 99 q 457 21 435 90 q 424 14 442 17 l 424 15 q 419 57 422 25 q 415 96 417 81 m 357 90 q 401 93 379 89 q 406 56 403 79 q 410 13 408 24 l 410 11 q 365 10 388 10 q 361 43 363 22 q 357 90 358 82 m 324 94 q 343 92 333 92 q 347 42 344 83 q 351 10 349 22 q 308 17 329 11 q 310 19 310 18 q 324 94 315 56 m 292 103 q 310 97 300 100 q 296 22 301 58 l 296 18 q 256 32 275 24 q 292 103 282 76 m 188 308 q 156 232 181 282 q 118 153 125 174 q 107 185 111 168 q 188 308 132 235 m 165 301 q 101 206 125 247 q 96 244 99 224 q 165 301 138 275 m 197 239 q 213 307 208 279 q 221 290 217 300 l 233 264 q 267 215 249 232 q 260 206 263 210 q 253 210 258 210 q 242 212 247 210 q 231 217 236 214 q 221 223 225 221 q 210 231 217 225 q 199 239 203 236 l 197 239 m 193 225 q 253 196 232 197 l 254 196 l 246 179 q 189 208 221 189 l 193 225 m 194 282 l 181 231 l 163 171 l 161 171 q 156 163 154 169 l 158 154 q 149 117 151 133 q 154 108 147 110 q 163 114 161 107 q 165 126 164 119 q 186 69 175 94 q 136 119 157 92 q 126 136 131 126 q 168 226 133 160 q 194 282 186 261 m 206 63 q 265 115 253 101 q 279 108 272 111 q 243 39 271 83 l 242 38 q 211 53 226 44 q 206 63 208 57 m 178 132 q 210 138 183 132 q 236 142 225 140 q 247 125 239 131 l 253 122 q 199 75 240 110 q 178 132 188 99 m 174 146 l 172 154 l 185 194 q 240 167 215 176 l 240 164 q 239 164 240 164 q 236 156 236 160 q 207 151 224 154 q 174 146 181 146 m 553 269 l 638 351 q 668 300 661 328 q 553 269 572 272 m 290 376 l 290 378 q 299 382 294 381 q 333 278 313 322 q 324 272 328 275 q 314 297 321 281 q 306 318 307 314 q 290 376 290 354 m 443 414 q 444 415 444 414 q 481 414 463 417 q 456 310 467 376 q 429 310 442 311 l 429 350 q 443 414 432 393 "},"7":{"ha":693,"x_min":64,"x_max":711,"o":"m 454 969 q 447 856 454 943 q 436 857 442 857 l 425 857 q 427 873 425 861 q 429 892 429 885 q 431 969 436 942 l 454 969 m 417 969 q 415 893 422 943 q 413 875 415 888 q 411 857 411 863 q 389 858 400 858 q 389 971 385 911 q 417 969 401 969 m 375 971 q 375 858 371 913 l 360 860 q 354 914 357 881 q 350 972 351 961 q 375 971 363 971 m 336 972 q 340 914 338 961 q 346 861 343 881 q 304 863 318 863 q 303 888 304 869 q 303 917 303 907 q 304 974 303 950 q 336 972 319 972 m 240 978 q 254 976 247 976 q 290 975 272 975 q 289 917 289 950 q 290 888 289 907 q 290 864 290 869 l 258 864 q 249 928 254 881 q 240 978 244 960 m 226 978 q 235 926 231 961 q 244 865 240 883 q 217 864 229 865 l 204 924 l 194 981 q 226 978 204 981 m 174 982 l 181 982 l 190 921 l 203 864 q 182 863 192 864 q 174 982 174 967 m 160 982 q 168 861 160 967 q 156 860 161 861 l 156 982 l 160 982 m 457 799 l 457 806 q 550 797 482 801 q 629 790 601 796 l 619 765 q 538 782 590 769 q 457 799 482 794 m 451 757 q 456 785 454 771 q 533 768 481 782 q 614 753 585 756 l 601 724 q 451 757 539 739 m 439 706 q 449 743 444 725 q 596 710 535 725 l 593 704 l 582 674 q 518 689 567 676 q 439 706 469 701 m 428 672 q 435 693 432 682 q 514 675 465 688 q 576 660 563 664 l 565 635 q 428 672 469 654 m 415 639 l 424 658 q 561 622 465 640 l 547 590 q 415 639 475 625 m 396 594 l 410 626 q 542 578 469 613 l 533 557 q 396 594 465 590 m 378 556 l 390 582 q 528 544 458 578 l 528 543 l 511 504 q 378 556 417 546 m 358 517 l 371 543 q 506 492 408 533 l 493 463 q 431 489 474 469 q 358 517 385 508 m 338 474 l 353 504 q 425 475 378 496 q 488 450 468 457 l 474 417 q 338 474 454 426 m 318 431 l 332 460 q 468 404 450 413 l 451 365 q 392 396 431 379 q 318 431 333 422 m 299 389 q 378 363 325 378 l 440 342 l 429 315 l 429 314 q 293 376 350 346 l 299 389 m 282 349 l 288 363 q 424 301 344 333 l 421 296 q 393 308 410 300 q 351 328 360 324 q 282 349 310 346 m 275 336 q 346 314 303 333 q 388 296 354 311 q 415 283 404 288 l 403 256 l 338 290 q 269 324 297 313 l 275 336 m 249 275 l 264 311 q 331 278 292 300 l 397 243 l 390 225 q 249 275 325 260 m 236 246 l 243 263 q 385 213 319 247 l 379 199 q 236 246 317 226 m 231 232 q 374 186 311 214 l 367 169 q 224 217 286 200 l 231 232 m 210 186 l 218 204 q 361 157 281 188 l 353 138 q 282 163 328 147 q 210 186 225 181 m 204 172 l 278 149 q 347 125 325 133 l 346 119 q 342 122 344 122 q 200 164 232 150 l 204 172 m 183 124 l 194 150 q 339 108 228 136 l 340 108 l 321 63 q 246 96 304 68 q 183 124 207 114 m 164 78 l 178 110 q 240 83 201 101 q 317 49 303 54 l 306 22 q 242 47 285 31 q 164 78 183 69 m 144 29 l 160 65 q 238 35 179 57 q 300 8 276 19 l 293 -11 q 269 -6 283 -8 q 215 6 221 4 q 144 29 172 15 m 133 1 l 139 17 q 213 -8 168 3 q 267 -19 224 -10 l 288 -24 l 279 -46 q 207 -22 258 -40 q 133 1 161 -6 m 260 -56 q 190 -39 243 -51 l 124 -24 l 128 -11 q 203 -35 156 -18 l 260 -56 m 461 857 q 468 969 468 942 q 528 968 496 968 l 489 906 q 461 857 471 876 m 476 857 q 501 897 486 874 l 544 968 l 618 968 l 476 857 m 508 865 l 640 968 l 646 968 l 650 931 q 558 890 614 919 l 508 865 m 474 833 q 564 878 493 842 q 651 917 617 906 q 656 890 654 903 q 654 874 656 882 l 653 874 q 474 833 613 865 m 468 818 q 651 860 618 853 q 635 803 647 835 q 551 811 604 810 q 468 818 490 814 m 438 357 q 382 375 419 364 q 306 401 331 392 l 313 418 q 386 383 324 413 q 438 357 419 368 m 122 1036 q 103 1026 111 1035 q 97 1006 96 1017 q 101 994 99 1000 q 100 842 100 965 q 97 820 94 832 q 108 803 99 808 q 129 799 118 797 q 196 808 160 806 q 259 809 232 810 q 332 806 286 808 l 401 801 q 385 722 399 767 q 360 649 372 678 q 319 564 347 621 l 285 490 q 64 -21 163 224 q 64 -37 61 -28 q 67 -57 61 -47 q 82 -69 72 -67 q 179 -93 117 -79 l 272 -115 q 289 -115 281 -118 q 319 -97 311 -118 q 481 293 367 32 q 646 685 599 564 q 669 739 647 690 q 700 821 690 788 q 711 888 710 854 l 711 892 l 711 893 l 711 899 q 708 910 711 904 l 704 950 q 700 986 701 976 q 699 989 700 988 q 700 996 700 993 q 692 1015 700 1007 q 672 1024 683 1024 q 257 1032 388 1024 q 122 1036 150 1039 "},"8":{"ha":535,"x_min":18,"x_max":551,"o":"m 288 638 q 185 783 188 713 q 240 871 182 840 q 290 884 267 885 q 328 871 314 883 q 332 729 369 836 q 326 710 328 717 q 320 695 324 703 q 315 685 317 688 q 310 674 314 682 q 304 664 306 667 l 297 653 q 288 638 290 643 m 301 388 q 361 304 342 338 q 379 186 404 231 q 300 142 357 144 q 214 178 243 139 q 214 217 207 188 q 247 294 222 249 q 294 376 265 329 l 301 388 m 456 651 q 381 697 417 682 l 385 710 l 388 718 q 472 689 424 707 q 456 651 465 671 m 439 622 q 367 664 392 647 q 375 683 371 672 q 449 639 411 669 q 439 622 444 631 m 414 586 q 344 624 386 606 l 361 651 q 432 610 386 635 q 414 586 424 597 m 406 575 q 390 556 399 565 q 385 546 386 551 q 368 558 376 551 l 338 583 l 326 594 l 338 613 q 406 575 379 593 m 494 788 q 449 792 478 790 q 404 794 414 793 l 404 817 l 497 817 q 494 788 497 803 m 488 743 q 450 758 482 746 q 401 774 421 771 l 401 781 q 449 778 410 779 q 493 774 476 776 l 488 743 m 485 729 l 482 718 q 476 703 479 711 l 392 732 q 399 760 396 746 q 444 746 417 758 q 485 729 476 732 m 483 915 q 396 868 444 899 q 390 881 393 875 q 436 911 411 890 l 464 933 l 472 940 l 483 915 m 494 871 q 400 851 442 858 l 400 854 q 488 901 449 886 q 494 871 492 886 m 497 831 l 404 831 q 403 839 403 835 q 496 857 444 844 q 497 831 497 844 m 421 999 l 354 921 q 374 1024 369 1008 q 421 999 400 1014 m 432 990 q 456 965 444 979 q 465 951 461 958 l 456 944 l 428 922 q 382 893 403 901 q 365 913 375 904 q 432 990 381 932 m 361 1028 q 342 929 354 1007 q 324 935 333 932 q 317 1036 325 1003 q 361 1028 339 1035 m 274 1035 q 290 1036 282 1036 l 301 1036 q 310 938 310 1006 l 290 940 q 282 985 286 958 q 279 1007 282 989 q 274 1035 276 1025 m 210 1019 q 260 1033 235 1029 q 265 1005 263 1024 q 268 982 268 986 q 276 939 272 957 q 243 932 260 938 q 210 1019 219 1000 m 164 994 q 197 1014 179 1006 q 231 928 206 996 q 215 921 222 925 q 164 994 199 947 m 118 951 q 153 986 133 971 q 203 914 188 939 l 183 900 l 118 951 m 88 900 q 110 940 96 921 l 174 890 l 165 882 q 88 900 115 900 m 72 846 q 82 886 76 867 q 156 871 108 888 q 142 847 149 858 q 72 846 107 844 m 69 808 q 71 832 69 821 q 136 832 103 831 q 131 804 132 819 q 100 807 118 807 q 69 808 72 808 m 71 763 q 69 794 69 779 q 100 793 72 794 q 129 790 118 793 l 129 781 l 129 778 q 71 763 96 771 m 82 708 l 79 715 q 74 749 75 732 q 131 764 97 757 q 136 740 132 751 q 106 724 124 735 l 82 708 m 100 658 q 85 694 92 676 l 113 711 l 140 728 q 154 700 146 714 q 124 676 144 692 l 100 658 m 122 622 l 107 646 q 133 667 115 653 q 161 689 151 681 l 172 672 q 150 651 163 664 q 142 642 147 647 l 131 631 l 122 622 m 150 586 q 131 610 138 600 q 160 642 132 613 q 181 661 172 654 l 201 638 q 175 615 192 631 q 151 594 158 600 q 150 586 147 590 m 172 558 l 151 583 q 160 583 156 581 q 185 606 168 590 q 211 628 201 621 l 225 617 q 172 558 201 593 m 197 526 l 181 547 q 236 607 211 583 l 254 593 q 197 526 238 572 m 188 467 l 189 469 q 201 475 196 471 q 206 479 204 476 q 265 433 228 469 l 249 407 q 188 467 219 432 m 164 438 l 178 457 q 240 394 211 421 l 228 375 q 211 389 225 376 l 192 406 q 177 419 186 410 q 164 438 168 429 m 140 407 l 154 426 q 170 407 161 417 q 185 392 179 397 q 204 376 190 388 q 221 363 218 365 l 214 350 q 175 379 199 358 q 140 407 151 400 m 133 396 q 167 368 143 389 q 207 338 190 347 l 204 333 q 122 379 147 369 l 133 396 m 101 340 q 115 368 107 354 q 197 322 139 358 l 197 321 q 186 297 192 308 q 143 319 172 303 q 101 340 115 335 m 82 286 q 92 317 86 304 q 96 328 93 322 q 136 308 110 322 l 179 285 l 174 271 q 119 279 151 274 l 82 286 m 74 240 l 79 274 l 117 265 q 168 257 147 260 q 164 244 167 251 q 74 240 114 242 m 71 201 q 72 226 71 213 q 160 231 113 228 q 157 218 158 224 q 113 207 140 211 q 94 204 108 206 q 71 201 79 203 m 83 142 q 75 160 78 151 q 71 188 72 171 q 95 191 79 189 q 115 193 111 193 q 156 201 139 197 q 156 190 154 196 l 117 164 q 83 142 94 150 m 118 103 q 90 131 101 115 l 124 153 q 157 175 146 168 q 164 153 158 163 q 118 103 124 110 m 174 68 q 158 75 165 71 q 129 93 143 83 q 172 142 136 103 q 188 125 179 132 q 174 68 185 106 m 208 54 q 186 61 197 57 l 200 115 q 211 108 206 111 q 210 81 211 106 q 208 54 210 64 m 251 42 q 222 49 236 44 q 224 79 224 61 l 224 89 l 224 101 q 251 92 238 96 q 251 42 249 65 m 293 36 q 267 39 279 38 q 265 89 263 63 q 286 86 275 88 q 293 36 288 63 m 336 38 q 313 36 325 36 l 307 36 q 300 86 301 63 l 303 86 q 318 88 310 86 q 336 38 322 65 m 379 46 q 350 39 365 42 q 331 90 336 68 q 354 96 343 92 q 379 46 360 86 m 428 69 q 393 50 413 58 q 367 101 372 93 q 385 113 376 107 l 403 96 q 428 69 419 79 m 461 103 q 447 86 456 94 l 439 78 q 413 106 429 89 l 396 121 q 410 133 404 126 l 433 119 q 461 103 450 108 m 493 181 l 478 188 l 443 206 q 444 228 444 217 l 497 214 q 493 181 496 197 m 483 144 q 433 168 460 153 q 440 192 438 179 l 472 175 l 490 167 q 483 144 486 154 m 478 131 l 469 114 q 440 131 458 119 l 419 144 q 426 156 424 150 q 478 131 453 140 m 496 258 q 497 229 497 243 l 443 243 q 440 258 442 250 l 496 258 m 482 324 q 417 319 440 325 l 410 332 l 408 333 q 471 349 424 336 q 482 324 478 336 m 496 272 l 436 272 q 424 307 432 289 q 488 310 444 311 q 496 272 493 290 m 415 444 q 383 424 406 438 l 358 407 l 346 421 l 403 467 l 415 444 m 440 403 q 382 375 407 383 l 367 396 l 390 411 q 422 432 413 426 l 440 403 m 447 390 l 454 379 l 464 361 q 401 347 417 349 l 390 363 q 447 390 415 371 m 385 506 l 388 497 q 396 479 390 489 q 338 432 371 457 l 333 438 q 331 465 340 453 q 353 482 339 472 l 385 506 m 440 514 q 438 521 440 518 q 436 524 436 522 q 535 704 510 607 q 500 999 585 890 q 406 1071 463 1047 q 288 1092 350 1094 q 171 1063 226 1089 q 74 986 115 1036 q 19 865 33 936 q 26 701 6 793 q 40 660 31 681 q 56 625 49 639 q 78 590 63 611 l 97 561 q 122 531 104 553 q 144 503 140 508 q 39 336 67 413 q 19 244 25 294 q 22 146 13 193 q 132 26 42 75 q 314 -19 219 -21 q 488 47 424 -19 q 551 269 563 125 q 503 407 547 331 l 481 442 l 458 481 q 440 514 447 499 m 218 489 l 213 492 q 207 514 215 504 l 206 515 q 265 585 249 564 l 274 578 q 251 543 268 565 q 218 492 226 507 l 218 489 m 372 513 l 372 514 q 318 582 357 528 l 329 574 q 360 547 350 554 q 385 529 374 536 l 388 524 q 372 513 381 518 m 361 504 l 346 493 q 303 572 328 517 q 307 574 304 574 q 361 504 344 521 m 289 526 l 290 517 q 294 472 293 482 q 292 471 293 472 q 278 467 285 471 q 288 522 278 486 l 289 526 m 283 565 q 275 526 282 553 q 264 467 264 488 q 271 460 264 460 q 267 453 268 457 q 228 483 244 472 q 232 486 231 483 q 263 536 238 500 q 283 567 276 554 l 283 565 m 301 542 q 335 485 318 507 l 318 475 q 308 476 314 476 q 304 518 307 482 q 301 542 303 532 "},"9":{"ha":651,"x_min":-3,"x_max":669,"o":"m 488 849 l 488 861 q 615 846 536 853 l 615 832 q 543 843 597 832 q 488 849 508 849 m 481 821 q 482 825 482 822 q 485 832 483 829 q 486 835 485 833 q 540 829 507 836 q 614 818 594 818 q 613 794 614 807 q 608 797 611 797 q 588 801 599 799 q 564 806 576 803 l 543 810 q 481 821 506 818 m 401 233 l 408 268 q 513 249 465 251 l 508 213 q 401 233 468 218 m 394 197 l 399 219 q 506 199 465 204 l 503 175 q 394 197 478 185 m 386 156 l 392 183 q 500 161 478 171 l 496 132 q 493 133 494 133 q 465 136 483 135 l 436 140 q 411 146 425 142 q 386 156 397 150 m 378 113 l 379 121 l 383 142 q 410 131 394 135 q 436 126 425 128 l 465 122 q 490 119 483 121 q 494 121 493 119 l 492 92 q 378 113 457 96 m 369 69 l 375 99 q 489 78 454 82 l 486 56 q 482 60 485 60 q 417 65 460 64 q 369 69 383 68 m 361 29 l 367 56 q 415 51 382 54 q 479 46 457 50 q 486 49 483 46 l 483 28 q 361 29 457 32 m 354 -10 l 358 15 q 389 17 368 15 q 422 18 410 18 q 451 17 435 18 q 482 14 468 17 l 479 -12 q 354 -10 385 -14 m 351 -22 q 478 -26 385 -28 l 476 -43 q 349 -43 400 -44 l 351 -22 m 415 311 q 467 303 433 310 q 521 293 504 294 l 515 261 q 410 282 468 265 l 415 311 m 467 646 l 468 658 q 524 651 489 658 q 576 640 568 643 q 572 624 574 632 q 532 632 563 626 q 467 646 490 639 m 463 606 q 465 632 464 619 q 529 618 489 625 q 571 611 563 613 l 568 592 q 506 601 547 597 q 463 606 464 606 m 458 568 l 461 592 q 494 588 474 590 q 533 584 515 586 q 565 578 550 582 l 561 551 q 515 560 549 553 q 458 568 479 567 m 454 538 l 456 556 q 513 546 476 553 q 560 538 546 539 l 556 515 q 454 538 494 533 m 447 494 l 451 524 q 554 501 492 519 l 549 471 l 504 481 l 447 494 m 444 468 l 444 469 l 446 481 l 501 467 l 547 457 l 543 432 l 494 450 q 444 468 454 464 m 392 493 q 278 493 326 482 q 231 524 250 500 q 206 581 211 549 q 212 640 200 614 q 251 679 224 667 q 413 672 301 701 q 392 493 407 604 m 357 432 q 356 378 357 414 q 353 326 354 343 q 329 318 342 321 q 336 431 331 386 q 357 432 346 432 m 322 432 q 315 314 317 385 q 288 310 301 311 q 293 363 289 322 q 297 433 299 407 q 322 432 310 432 m 283 436 q 279 364 285 410 q 274 308 274 322 q 238 310 254 307 q 267 439 251 401 l 283 436 m 253 443 q 224 311 238 403 q 186 324 204 315 q 211 388 192 344 q 235 450 228 429 q 253 443 243 446 m 222 458 q 197 393 215 436 q 174 329 179 351 q 154 342 163 335 l 149 346 q 204 472 169 413 q 222 458 213 464 m 194 482 q 136 356 158 422 q 103 393 118 372 q 144 449 118 415 l 183 496 q 194 482 189 488 m 175 507 l 135 457 q 94 406 106 421 q 74 447 82 425 q 128 490 83 456 q 167 524 151 510 l 175 507 m 150 578 q 151 574 150 575 q 153 565 151 569 q 58 510 128 557 q 56 504 56 507 q 51 524 53 514 q 47 556 49 539 q 108 568 65 557 q 150 578 136 575 m 204 715 l 181 747 q 142 796 156 781 q 161 808 151 803 q 163 807 161 807 l 210 719 q 204 715 207 717 m 149 601 l 149 592 q 106 582 133 589 q 47 569 63 571 q 47 603 46 586 q 149 601 74 600 m 150 615 q 49 617 74 614 q 51 640 50 629 q 106 629 72 633 q 150 622 146 622 l 150 615 m 153 636 q 108 643 147 636 q 54 654 75 647 q 71 704 60 681 q 158 656 133 664 q 153 636 154 646 m 164 668 q 140 678 153 672 q 121 689 128 685 q 98 703 114 693 q 76 717 82 714 q 88 738 82 728 q 104 761 96 750 q 176 689 138 724 q 164 668 169 679 m 186 700 q 114 771 146 733 q 131 788 122 781 q 168 740 143 775 l 193 707 l 186 700 m 289 744 q 267 836 285 756 l 278 836 l 296 836 q 296 744 294 760 l 289 744 m 256 739 q 233 832 243 775 q 253 835 243 835 q 275 743 272 751 q 256 739 265 740 m 243 735 l 229 729 l 221 726 q 174 813 204 760 l 174 814 q 219 831 194 825 q 243 735 231 772 m 422 728 q 419 772 422 729 q 414 822 417 803 l 436 814 q 438 724 439 788 l 422 728 m 392 735 q 393 740 393 738 q 385 829 382 799 l 399 826 q 406 772 403 804 q 406 754 406 769 q 408 731 407 739 q 392 735 400 733 m 351 742 l 351 833 l 371 831 q 379 738 368 799 q 351 742 365 740 m 310 744 q 310 836 308 760 q 338 835 325 836 l 338 743 q 310 744 324 744 m 476 794 q 478 807 476 800 q 540 797 503 804 l 561 793 q 585 788 574 790 q 606 783 596 785 q 611 785 608 783 l 608 776 q 606 778 607 778 q 476 794 519 799 m 475 758 q 476 781 476 769 q 603 764 517 786 l 607 764 q 601 742 604 754 q 475 758 532 757 m 472 717 l 475 744 q 597 728 529 743 l 590 697 l 538 706 q 472 717 494 714 m 472 703 q 535 693 493 700 q 586 683 569 686 l 585 678 q 579 654 582 665 q 526 665 569 656 q 468 672 490 672 l 469 678 q 471 682 471 679 l 471 685 l 471 686 q 472 699 472 692 l 472 703 m 461 744 l 458 717 q 451 719 456 719 q 450 810 453 783 q 464 810 457 807 q 461 758 463 786 q 454 751 454 758 q 461 744 454 744 m 410 432 l 410 438 l 410 440 l 419 442 q 438 456 432 444 q 490 438 449 451 q 540 418 521 426 l 536 394 q 474 414 513 403 q 410 432 422 428 m 406 379 l 408 418 q 471 401 419 414 q 535 381 511 390 l 528 346 q 406 379 463 368 m 404 365 q 526 332 460 354 l 522 307 q 469 317 507 308 q 414 325 433 324 q 401 339 410 335 l 404 365 m 396 431 l 394 431 l 394 425 l 388 343 q 367 335 376 343 q 369 381 368 347 q 371 433 371 415 q 396 438 382 435 l 396 431 m 669 858 q 667 868 669 864 q 660 888 668 879 q 642 899 653 897 q 481 918 533 908 q 463 926 472 926 q 442 919 450 926 q 433 900 433 911 l 433 874 q 278 892 375 892 q 40 767 118 892 q -3 514 -28 658 q 121 297 21 368 q 351 267 219 226 q 325 132 346 238 q 290 -58 300 8 l 290 -62 l 290 -67 l 290 -68 q 298 -88 290 -79 q 317 -97 306 -97 q 514 -97 386 -100 q 534 -89 526 -97 q 542 -69 542 -81 q 532 -47 542 -56 q 556 156 540 50 q 594 403 571 263 l 626 606 q 639 664 629 629 l 654 726 q 669 858 675 806 m 56 503 q 57 500 56 501 q 67 499 61 494 q 156 551 133 543 q 161 536 158 544 l 119 501 q 68 461 76 468 q 56 503 61 481 "}," ":{"ha":417,"x_min":0,"x_max":0,"o":""},"!":{"ha":485,"x_min":146,"x_max":503,"o":"m 204 10 q 201 29 201 19 q 222 79 201 60 q 246 92 232 86 q 204 10 228 67 m 394 18 q 397 -19 400 0 q 372 -65 392 -47 l 394 18 m 386 39 l 354 -78 q 340 -82 347 -81 q 381 49 365 8 q 386 39 383 44 m 369 60 q 325 -85 353 17 q 296 -82 311 -85 q 347 76 304 -39 q 369 60 360 69 m 324 88 q 303 43 315 67 q 271 -12 290 19 q 244 -56 251 -43 q 235 -46 239 -51 q 306 94 278 49 q 324 88 315 92 m 290 97 q 224 -35 264 53 q 207 -1 213 -18 q 217 3 214 -4 q 267 97 244 71 q 286 99 276 99 q 290 97 289 97 m 321 147 q 304 154 314 154 q 186 121 229 158 q 146 29 146 86 q 181 -69 146 -24 q 271 -132 215 -115 q 392 -120 342 -153 q 451 -28 442 -87 q 427 78 461 29 q 321 147 393 128 m 385 725 q 260 747 336 744 l 263 756 q 265 771 264 763 q 388 751 340 765 l 385 725 m 378 675 q 322 686 367 676 q 251 700 276 696 l 257 733 q 383 711 336 732 l 378 675 m 374 639 q 313 646 364 640 q 244 653 271 651 l 249 686 q 319 672 274 682 q 376 661 364 663 l 374 639 m 368 593 q 239 611 331 603 l 242 639 q 310 633 268 638 q 372 625 361 626 l 368 593 m 364 557 q 328 559 353 557 q 296 563 304 561 q 232 560 257 564 q 236 597 235 579 q 367 579 331 589 l 364 557 m 360 511 q 229 524 308 517 q 231 546 229 535 q 294 549 254 550 q 328 546 304 547 q 363 543 351 544 l 360 511 m 356 468 q 296 474 336 469 q 225 481 249 481 l 228 510 q 358 497 307 503 l 356 468 m 353 431 q 222 435 250 431 l 225 467 q 293 461 247 467 q 356 454 335 456 q 353 431 354 443 m 350 394 q 222 404 289 403 l 222 421 q 353 417 250 417 l 350 394 m 349 365 l 222 365 l 222 390 q 350 381 289 389 q 349 365 350 374 m 347 333 q 291 332 335 333 q 224 331 247 331 q 222 351 224 340 l 349 351 q 347 333 349 342 m 346 299 q 226 301 265 299 q 225 317 225 308 q 292 318 249 317 q 347 319 335 319 q 346 299 347 308 m 346 285 l 346 276 l 229 276 q 228 288 229 282 q 346 285 267 285 m 404 846 q 290 867 340 854 l 299 896 q 413 878 393 882 l 404 846 m 397 808 q 281 831 335 825 l 286 853 q 401 832 338 842 q 397 808 399 819 m 394 794 q 390 769 392 782 l 390 765 q 268 785 342 779 q 276 817 272 799 q 394 794 332 811 m 440 1001 q 382 1018 439 1003 q 322 1028 347 1028 q 324 1036 324 1032 q 390 1027 346 1035 q 443 1018 433 1019 l 440 1001 m 435 971 q 319 999 369 983 q 322 1014 321 1007 q 379 1004 344 1014 q 438 988 435 989 l 435 971 m 424 925 q 310 943 351 943 q 318 985 315 965 q 431 957 368 969 l 424 925 m 421 913 l 419 908 l 415 890 q 303 910 394 896 l 307 929 q 421 913 347 929 m 325 57 q 283 -78 292 -31 q 256 -64 268 -72 q 286 -14 258 -60 q 325 57 314 32 m 503 1035 q 497 1056 504 1047 q 479 1067 490 1065 q 468 1065 474 1067 q 453 1074 461 1072 q 408 1081 440 1075 q 349 1090 375 1086 q 300 1093 324 1093 q 281 1085 289 1093 q 272 1068 274 1078 q 268 1053 268 1061 q 246 913 268 997 q 207 767 210 778 q 181 603 192 688 q 167 415 171 518 q 178 246 163 314 q 192 226 181 233 q 210 221 200 221 l 357 221 q 374 215 364 215 q 393 224 385 215 q 401 243 401 232 q 446 761 401 431 q 474 896 451 801 q 503 1035 496 988 "},"\"":{"ha":364,"x_min":10,"x_max":381,"o":"m 135 1003 l 113 1003 q 83 999 96 1003 l 86 1019 q 138 1022 104 1022 l 135 1003 m 129 969 q 81 967 99 969 l 82 983 q 113 989 93 989 l 132 989 l 129 969 m 125 922 q 76 932 96 931 l 78 953 q 128 956 97 956 q 125 922 126 940 m 122 888 q 72 888 94 890 l 75 918 q 124 908 94 917 q 122 888 122 899 m 118 832 q 68 833 78 831 l 71 872 q 121 874 93 876 l 118 832 m 117 788 q 65 781 76 783 l 68 819 q 118 818 79 817 q 117 788 118 803 m 115 747 q 65 750 94 749 l 65 765 q 117 774 76 769 q 115 747 117 761 m 115 733 l 115 701 q 64 706 96 704 l 64 736 q 115 733 94 735 m 186 1076 q 163 1093 179 1093 q 74 1082 129 1093 q 54 1060 56 1078 q 39 1040 42 1054 q 14 696 14 868 q 10 683 10 690 q 17 665 10 674 q 33 657 24 657 q 136 649 111 653 q 156 653 147 647 q 165 669 164 660 l 165 676 l 165 678 q 194 1050 165 943 q 186 1076 200 1067 m 90 1033 q 142 1042 122 1040 l 140 1036 q 90 1033 107 1036 m 260 696 q 258 675 258 685 l 224 675 q 225 710 224 693 q 260 696 242 701 m 265 753 l 260 710 l 225 724 l 228 764 q 265 753 239 761 m 274 804 q 267 767 269 785 l 229 778 q 233 815 232 797 q 274 804 250 810 m 283 856 q 276 818 279 836 q 236 829 253 824 l 242 864 q 275 858 256 864 l 283 856 m 296 906 l 288 869 l 279 871 q 244 878 258 876 q 254 924 249 900 q 268 917 261 921 q 283 910 275 914 q 296 906 292 907 m 308 951 l 300 918 q 258 936 263 935 l 267 964 q 308 951 289 961 m 326 1014 l 308 1021 q 288 1026 296 1025 l 294 1043 q 314 1036 300 1040 l 331 1031 l 326 1014 m 322 1001 l 313 965 q 271 978 292 975 l 282 1014 q 304 1008 292 1013 l 322 1001 m 379 1042 q 377 1061 382 1053 q 363 1072 372 1069 q 330 1084 361 1074 q 282 1097 299 1094 q 263 1092 272 1099 q 253 1076 254 1086 l 253 1074 l 251 1072 q 174 660 175 889 q 172 653 172 657 q 179 635 172 643 q 196 626 186 626 q 279 625 222 625 q 304 646 300 625 q 308 660 308 651 q 312 722 308 689 q 319 778 315 754 q 333 843 324 803 q 347 901 342 883 l 364 967 q 381 1025 378 1013 q 379 1042 383 1035 "},"#":{"ha":922,"x_min":169,"x_max":940,"o":"m 713 958 q 631 961 647 963 l 632 974 q 713 958 643 972 m 724 904 q 626 908 668 906 l 628 922 q 725 918 693 922 q 724 904 725 911 m 721 869 q 622 874 678 874 l 625 894 q 722 890 667 892 q 721 869 722 881 m 717 847 q 668 849 707 847 q 621 850 639 849 l 621 860 q 718 856 676 860 l 717 847 m 711 811 q 615 810 639 813 q 619 836 618 822 q 667 835 638 835 q 715 833 706 833 q 711 811 713 822 m 703 775 q 611 778 676 779 q 614 796 613 788 q 708 797 638 799 l 703 775 m 699 754 q 653 751 683 753 q 607 750 621 751 l 610 764 q 700 763 675 765 l 699 754 m 692 719 q 653 724 685 721 q 603 731 621 728 l 604 736 q 653 738 619 738 q 696 740 681 739 l 692 719 m 725 944 l 725 932 q 628 936 693 936 l 629 947 q 661 947 650 949 l 692 946 q 725 944 714 944 m 683 707 q 672 696 676 703 q 607 704 626 699 q 601 717 606 711 q 683 707 604 715 m 701 590 l 681 590 q 683 657 683 638 q 699 654 690 653 l 701 654 l 701 590 m 731 589 l 715 589 l 715 656 q 728 657 721 657 q 729 618 728 644 q 731 589 729 599 m 769 589 l 744 589 q 743 618 743 599 q 742 658 742 644 q 760 660 751 658 q 767 629 764 647 q 769 589 769 613 m 803 589 q 799 660 799 619 q 810 658 804 658 q 807 589 807 631 l 803 589 m 789 589 l 783 589 q 781 632 783 613 q 775 660 778 647 l 785 660 q 789 589 785 619 m 692 374 q 675 375 683 375 l 671 375 q 669 400 669 389 q 675 446 669 429 l 692 446 q 692 374 693 425 m 725 372 q 706 374 715 372 q 706 446 707 425 l 717 446 q 721 404 718 429 q 723 390 721 401 q 725 372 725 379 m 758 372 l 740 372 q 737 392 739 379 q 735 407 735 404 q 731 446 732 431 q 750 447 740 446 q 756 394 751 425 l 758 372 m 786 372 l 772 372 l 768 396 q 764 447 765 426 l 781 447 q 786 372 781 406 m 821 372 l 800 372 q 794 447 794 406 l 815 447 q 821 372 815 415 m 868 374 l 868 449 l 879 449 l 879 374 l 868 374 m 854 374 l 835 372 q 829 449 829 415 l 854 449 l 854 374 m 558 300 l 558 332 l 635 332 q 633 311 635 322 q 592 304 619 310 l 558 300 m 558 258 l 558 286 q 594 292 571 288 q 633 297 621 296 q 632 265 632 282 q 585 261 613 265 l 558 258 m 560 226 l 560 244 l 586 247 q 632 251 614 251 l 632 235 q 619 234 626 235 q 607 233 611 233 q 560 226 576 232 m 560 213 q 607 219 576 218 q 619 220 611 219 q 632 221 626 221 l 632 192 q 626 194 629 194 l 560 194 l 560 213 m 560 164 l 560 181 l 626 181 q 632 183 629 181 l 632 164 l 560 164 m 560 150 l 632 150 l 632 132 l 629 132 q 560 133 610 133 l 560 150 m 558 119 q 629 118 608 119 q 632 119 631 118 l 632 106 q 588 100 603 100 q 558 106 568 100 l 558 119 m 557 92 q 588 86 569 86 q 633 92 603 86 l 633 76 q 612 76 628 76 q 588 75 596 75 q 556 76 568 74 q 557 92 556 83 m 554 63 q 588 61 568 60 q 612 62 596 61 q 633 63 628 63 l 633 50 l 551 50 q 554 63 553 57 m 296 296 l 299 318 q 393 324 331 324 l 393 299 q 296 296 349 299 m 294 279 l 294 282 q 393 285 349 285 l 393 281 q 344 280 378 281 q 294 279 311 279 m 293 253 l 293 265 q 344 266 311 265 q 393 267 378 267 l 393 253 q 293 253 375 254 m 290 239 q 393 239 378 240 l 393 226 q 347 228 372 226 l 319 228 l 288 228 q 290 239 289 235 m 304 333 q 306 342 306 338 q 301 356 306 349 q 393 361 372 361 l 393 338 q 304 333 335 338 m 258 454 l 251 369 l 243 371 l 250 453 l 258 454 m 350 682 q 369 706 367 688 q 396 704 378 704 q 433 701 421 701 l 433 690 q 435 682 433 686 l 350 682 m 276 681 l 296 681 l 296 604 l 282 604 q 276 681 275 656 m 253 681 l 263 681 q 268 604 261 653 l 257 604 q 256 646 257 614 q 253 681 254 668 m 239 681 q 242 646 240 667 q 243 604 243 614 l 225 604 l 229 679 q 239 681 233 679 m 346 783 q 344 803 344 794 q 433 801 369 801 l 433 789 q 393 790 399 790 q 346 783 365 790 m 349 758 l 347 769 q 393 776 365 776 q 433 775 399 776 l 433 757 q 349 758 413 758 m 350 744 q 433 743 413 744 l 433 731 l 433 715 q 397 717 421 715 q 367 719 378 718 q 351 735 363 731 l 350 744 m 417 549 l 414 549 q 340 547 353 549 l 340 558 l 340 561 q 342 564 340 563 q 380 567 354 565 q 418 571 406 569 q 417 549 417 560 m 414 507 q 340 504 396 504 l 340 533 q 414 535 353 535 l 417 535 l 414 507 m 408 465 q 325 463 351 465 q 335 475 332 467 q 410 474 383 478 l 408 465 m 551 424 q 542 381 546 401 q 535 382 539 382 l 525 382 q 526 424 525 408 l 551 424 m 513 424 q 511 383 511 408 l 499 383 q 504 424 499 408 l 513 424 m 490 424 q 485 385 485 408 l 467 385 l 467 422 q 490 424 478 424 m 493 638 l 478 638 l 478 668 q 482 672 481 669 q 493 671 488 672 l 493 638 m 515 636 l 507 636 l 507 671 q 515 669 511 671 l 515 636 m 550 633 q 529 635 546 633 l 529 669 l 553 669 q 550 633 551 650 m 556 578 q 549 479 553 550 q 467 478 503 479 q 474 582 472 526 q 517 581 490 582 q 556 578 550 578 m 451 635 q 453 664 451 651 q 461 663 457 663 l 464 663 l 464 636 l 457 636 q 451 635 454 636 m 610 568 l 613 588 q 664 588 642 592 q 650 571 653 582 q 649 568 649 569 l 610 568 m 608 539 l 608 554 l 644 554 l 644 550 l 646 539 q 608 539 631 542 m 604 465 q 649 463 625 465 q 656 453 650 457 q 603 451 618 453 l 603 456 q 604 464 604 460 l 604 465 m 606 479 l 606 501 q 647 497 631 503 q 646 478 646 489 l 646 476 q 606 479 624 479 m 579 639 q 568 632 572 638 l 564 632 l 567 669 l 578 669 q 579 639 579 651 m 329 608 l 418 608 l 418 604 l 418 585 l 378 581 q 344 578 356 579 q 329 601 343 594 l 329 608 m 315 618 l 315 615 l 315 614 l 315 604 l 310 604 l 310 681 l 318 681 q 315 618 317 653 m 301 432 q 308 451 304 442 q 315 447 310 447 q 410 451 344 451 q 415 443 411 447 q 417 438 415 440 q 301 432 339 439 m 286 428 q 285 424 285 425 q 274 369 278 397 l 265 369 l 272 456 q 296 457 289 457 q 286 428 290 443 m 667 600 q 614 603 644 606 l 615 608 q 610 628 617 619 q 668 622 651 631 q 667 600 668 615 m 657 371 l 657 369 q 636 346 638 365 l 560 346 q 561 353 561 349 q 557 369 561 363 q 657 371 639 369 m 438 644 l 438 631 q 425 622 431 628 l 329 622 q 331 646 329 635 q 333 644 332 644 l 436 644 l 438 644 m 592 669 l 592 672 q 607 690 604 678 q 667 683 626 685 q 668 669 668 676 l 594 669 l 592 669 m 593 642 l 593 656 l 594 656 l 669 656 l 669 638 q 593 642 653 643 m 438 399 q 440 404 440 401 q 438 410 440 407 l 438 422 l 443 422 l 453 422 l 453 386 l 438 386 l 438 399 m 424 411 q 296 408 324 413 q 297 418 296 413 q 424 424 335 425 l 424 411 m 424 397 l 424 389 l 421 389 q 397 375 404 389 l 396 375 q 288 368 383 375 q 292 393 290 381 l 293 393 q 424 397 321 399 m 564 417 l 567 424 l 575 424 q 599 438 592 424 q 658 439 614 439 q 657 419 657 431 q 564 417 583 419 m 557 383 q 561 401 558 393 q 656 406 581 406 l 656 400 l 656 385 q 557 383 638 383 m 383 490 q 413 492 400 490 l 411 488 q 383 490 399 490 m 338 489 q 339 490 339 489 l 351 490 q 344 490 349 490 q 338 489 339 489 m 207 733 q 182 711 186 731 q 174 692 174 703 q 169 582 169 617 q 177 563 169 571 q 196 554 185 554 q 213 549 203 549 l 285 549 l 285 513 q 225 506 260 510 q 207 495 214 504 q 201 475 200 486 q 194 460 196 468 l 186 353 q 200 325 185 335 q 222 315 208 315 l 242 315 q 240 286 240 299 q 238 267 239 274 q 238 257 238 261 q 226 215 236 253 q 242 183 219 192 q 263 172 250 172 l 347 172 q 428 168 396 171 q 448 174 439 167 q 458 193 457 182 q 449 218 460 208 l 449 224 l 449 331 q 503 328 479 329 q 504 233 503 300 q 503 119 506 165 q 492 32 501 72 q 494 11 489 21 q 511 -1 500 1 q 522 -3 517 -3 q 535 -6 528 -6 q 663 -7 614 -6 q 683 1 675 -7 q 692 19 692 8 q 689 33 692 26 l 689 35 q 688 117 689 64 q 688 189 688 169 q 690 318 686 265 q 760 317 722 317 q 843 317 797 317 q 913 318 889 318 q 932 326 924 318 q 940 346 940 335 q 935 363 940 356 l 935 469 q 913 497 935 493 q 893 504 904 504 q 792 503 857 504 q 703 501 728 501 l 703 506 q 704 521 704 517 q 703 535 704 526 q 838 533 747 533 q 857 542 849 533 q 865 561 865 550 q 863 574 865 568 q 867 683 863 626 q 860 703 868 694 q 840 713 853 711 l 839 713 q 747 714 789 717 q 755 749 749 721 q 764 789 761 778 l 769 825 q 776 867 775 851 q 779 903 778 882 q 781 944 781 925 q 778 983 781 964 q 757 1006 775 1001 q 747 1010 753 1008 q 707 1017 735 1011 q 656 1026 679 1022 q 611 1031 632 1029 q 591 1023 600 1031 q 582 1004 582 1015 q 583 996 582 1000 q 576 981 578 989 q 571 919 575 969 q 565 847 567 868 q 557 790 563 826 q 544 725 551 753 q 489 728 511 725 q 488 857 489 815 q 478 876 488 868 q 458 883 469 883 l 456 883 l 451 883 q 306 879 363 883 q 285 869 293 878 q 279 850 278 861 q 286 833 281 840 q 296 736 286 821 q 207 733 240 736 m 344 817 l 343 817 q 342 825 342 821 q 433 828 381 828 l 433 815 q 344 817 371 815 m 333 658 l 331 658 q 332 668 331 664 l 333 668 l 439 668 q 438 658 438 664 l 436 658 l 333 658 m 649 524 l 649 521 l 649 511 q 607 515 631 517 l 607 525 q 649 524 632 528 "},"$":{"ha":697,"x_min":90,"x_max":714,"o":"m 624 907 l 653 897 q 624 821 643 868 q 619 822 622 821 q 613 824 615 824 q 607 826 610 825 q 624 907 618 861 m 594 917 l 611 911 q 593 832 606 865 l 593 829 l 585 829 q 594 917 593 879 m 564 925 q 581 921 572 924 q 571 831 579 882 q 560 832 565 832 q 560 858 560 840 q 561 882 561 875 q 564 925 561 910 m 518 932 q 550 928 533 931 q 547 882 547 911 q 546 831 547 850 l 542 831 q 518 932 531 863 m 465 928 q 504 932 483 932 q 528 828 517 860 q 514 824 521 826 q 469 924 481 901 q 465 928 469 926 m 419 904 q 458 925 438 918 q 458 918 456 922 l 501 818 l 499 817 q 419 904 446 882 m 350 772 q 358 811 353 793 q 408 793 378 807 q 428 784 411 792 q 453 772 444 776 q 443 743 446 758 q 415 751 432 747 q 383 760 388 760 q 350 772 364 767 m 347 721 q 349 758 347 740 q 379 747 361 753 q 413 738 383 746 q 440 729 429 733 q 439 718 439 724 q 347 721 411 724 m 350 668 l 347 707 q 439 704 413 710 l 439 696 q 350 668 382 693 m 354 642 q 353 651 353 646 q 440 682 382 679 q 442 669 440 675 q 354 642 394 660 m 363 596 q 356 628 358 613 q 446 656 397 646 q 453 635 449 646 q 414 618 438 628 q 363 596 368 599 m 371 561 l 365 583 l 419 606 q 458 622 443 615 l 460 618 q 371 561 400 586 m 381 522 l 374 546 q 465 606 403 572 l 475 590 l 476 586 q 381 522 407 547 m 390 489 l 385 508 q 483 574 410 532 l 494 557 q 390 489 442 526 m 406 446 l 396 475 q 501 544 447 513 l 510 531 q 406 446 460 497 m 414 421 l 411 431 q 517 519 465 485 l 522 508 l 529 496 q 471 460 521 490 q 414 421 435 439 m 431 379 q 419 407 424 394 q 478 449 439 425 q 535 483 532 482 l 543 464 q 489 421 525 446 q 431 379 443 389 m 443 351 l 439 361 l 436 365 q 497 410 447 374 q 549 450 531 433 q 561 415 556 433 q 443 351 508 382 m 454 329 l 449 339 q 565 401 513 368 q 574 372 571 388 l 454 329 m 469 293 q 463 311 467 301 l 460 317 q 578 358 514 338 q 585 317 582 338 q 515 303 568 311 q 469 293 486 299 m 483 250 q 474 281 479 265 q 517 289 490 285 q 586 303 569 297 q 589 250 589 276 q 483 250 546 253 m 489 222 q 486 238 488 229 q 589 236 547 239 l 589 222 q 489 222 513 225 m 492 194 q 490 210 492 201 q 588 208 513 211 q 585 188 586 197 q 492 194 539 190 m 490 174 q 535 163 508 171 q 556 155 542 160 q 576 147 569 150 q 565 113 572 129 l 488 156 q 490 174 490 164 m 483 142 l 560 100 q 550 79 556 89 q 476 126 506 111 q 483 142 481 133 m 468 115 q 543 67 497 100 q 535 54 539 61 l 532 53 q 460 107 479 94 q 468 115 464 110 m 449 97 q 524 42 469 85 q 490 14 510 26 q 429 86 444 64 q 449 97 440 90 m 407 78 q 414 79 411 79 l 417 81 q 478 6 432 57 q 450 -8 465 -1 q 407 78 415 51 m 393 75 q 438 -14 403 47 q 411 -22 424 -18 q 399 -25 404 -24 q 388 26 393 -7 q 379 75 382 64 l 393 75 m 364 75 q 374 24 367 65 q 385 -28 379 -8 q 358 -32 371 -31 q 358 76 357 53 q 364 75 361 76 m 344 79 q 344 -32 343 54 q 315 -31 329 -32 q 340 81 329 3 q 344 79 342 79 m 326 85 q 301 -28 315 4 q 271 -17 285 -24 q 317 88 306 46 q 326 85 322 86 m 304 94 q 260 -10 293 54 q 228 17 242 1 q 290 103 275 72 l 304 94 m 214 210 l 192 197 q 150 176 165 183 q 146 192 147 183 l 208 226 l 214 210 m 225 186 q 201 169 217 182 q 158 143 174 150 l 153 163 q 199 186 171 169 l 219 197 l 225 186 m 243 154 q 172 104 200 117 q 163 131 167 117 q 208 158 179 138 q 232 174 225 169 l 243 154 m 279 111 q 218 26 265 82 q 194 60 206 42 l 231 90 q 268 122 254 111 l 279 111 m 260 132 q 222 101 244 121 l 188 72 q 178 92 182 82 q 251 143 207 104 l 260 132 m 457 819 q 392 876 411 856 q 404 892 397 885 l 408 896 q 486 810 435 874 q 478 803 482 807 q 465 818 476 806 q 457 819 461 822 m 464 799 q 468 793 465 797 q 461 785 464 789 q 447 790 454 786 q 429 799 439 794 q 414 806 419 803 q 363 824 383 819 q 383 865 371 847 q 460 800 403 846 q 464 799 461 799 m 533 178 q 582 174 558 175 q 579 160 582 167 q 559 167 572 163 q 539 175 546 172 l 533 178 m 517 988 q 474 986 494 989 q 483 1050 476 1019 q 479 1071 485 1061 q 462 1083 474 1081 q 440 1079 450 1085 q 428 1061 431 1074 q 417 968 419 1021 q 365 931 389 954 q 296 660 275 842 q 365 392 308 549 q 389 339 374 371 q 411 289 407 297 q 436 192 435 233 q 399 133 438 144 q 317 153 357 121 q 250 274 282 181 q 235 289 246 283 q 214 290 225 294 l 208 288 q 197 283 203 288 l 106 233 q 92 199 83 221 q 90 183 89 192 q 242 -64 131 -3 q 314 -86 274 -82 l 299 -158 q 303 -179 297 -169 q 321 -191 310 -189 q 342 -187 332 -193 q 354 -169 351 -181 l 369 -92 l 369 -86 q 421 -76 394 -83 q 424 -167 424 -115 q 432 -186 424 -178 q 451 -194 440 -194 q 471 -186 463 -194 q 479 -167 479 -178 q 474 -58 479 -104 q 579 24 544 -26 q 640 189 629 96 q 632 371 651 285 q 572 533 613 457 q 547 575 564 549 l 524 617 q 494 694 497 664 q 526 769 490 751 q 621 763 565 788 q 640 761 631 758 q 665 778 658 761 q 714 906 697 853 q 713 926 718 917 q 696 940 707 936 q 683 942 690 942 q 672 950 679 947 q 572 981 606 972 l 583 1028 q 578 1049 585 1039 q 561 1060 572 1058 q 540 1056 550 1063 q 528 1039 531 1050 l 517 988 "},"%":{"ha":971,"x_min":79,"x_max":988,"o":"m 350 -42 l 275 4 l 283 22 q 350 -42 293 11 m 381 -12 l 304 69 l 311 83 q 390 10 376 28 l 393 7 l 381 -12 m 372 -25 l 364 -37 q 361 -33 364 -35 q 338 -12 356 -28 q 310 14 321 3 q 289 38 299 25 l 297 56 l 372 -25 m 418 50 l 400 19 q 318 96 386 36 l 317 97 l 328 119 q 414 51 363 97 q 418 50 415 50 m 439 88 l 424 61 l 422 63 q 333 132 369 108 l 349 161 q 399 122 367 150 q 439 88 425 97 m 461 133 l 444 100 l 407 132 q 354 174 375 161 l 369 204 l 400 182 l 435 157 q 461 133 450 146 m 483 178 q 464 194 476 183 q 439 217 444 213 q 392 246 413 239 l 396 254 q 400 249 396 250 q 446 218 418 239 q 489 188 476 196 l 483 178 m 478 165 l 468 146 q 415 188 451 163 q 376 217 379 214 l 385 233 q 429 206 404 228 q 454 185 435 201 q 478 165 468 172 m 528 274 l 511 236 q 469 268 501 243 q 422 303 442 292 l 432 321 q 474 301 449 314 q 528 274 518 278 m 550 321 q 503 342 536 326 q 454 364 472 357 l 461 375 q 506 346 476 361 l 550 322 l 550 321 m 544 308 l 533 286 q 481 314 524 290 q 439 333 456 326 l 447 351 q 497 329 465 344 q 544 308 529 314 m 569 364 q 479 408 517 385 l 483 415 l 526 392 q 571 368 553 376 l 569 364 m 564 351 l 556 335 q 531 350 547 340 l 513 358 q 468 388 482 374 l 472 396 q 564 351 511 372 m 590 411 l 576 381 q 533 404 560 389 l 489 428 l 504 454 q 590 411 538 432 m 613 458 q 524 492 579 468 l 535 511 q 572 494 550 506 q 591 483 574 493 q 618 469 608 474 l 613 458 m 607 446 l 597 424 q 511 467 543 444 l 518 479 q 607 446 572 456 m 640 513 l 625 481 l 597 496 q 578 506 581 506 q 540 524 557 518 l 557 553 q 640 513 592 539 m 663 553 l 647 524 q 564 565 599 550 l 582 600 q 663 553 607 576 m 686 596 l 668 565 q 588 614 611 589 l 603 642 q 686 596 635 629 m 707 633 l 693 608 q 608 654 643 640 l 622 682 q 664 660 638 676 q 707 633 692 640 m 733 679 l 714 646 q 671 671 700 651 q 629 694 644 689 l 642 722 q 694 699 658 718 q 733 679 718 685 m 757 719 l 742 692 q 700 711 725 697 q 647 735 665 729 l 664 771 q 757 719 675 765 m 783 764 l 764 731 q 669 783 681 778 l 679 806 l 683 814 q 713 798 692 810 q 746 781 733 786 q 783 764 767 769 m 807 803 l 790 776 q 751 793 774 782 q 719 810 740 799 q 690 826 699 822 q 710 863 697 840 q 807 803 747 843 m 829 843 l 814 815 q 717 874 754 854 l 725 890 l 728 894 q 749 882 736 890 l 785 863 q 829 843 811 849 m 864 900 q 844 911 856 904 q 813 929 818 926 q 756 949 779 946 q 763 967 760 958 q 829 946 788 960 l 879 928 l 864 900 m 857 889 l 836 854 q 790 875 818 861 l 756 894 q 735 906 743 901 q 749 936 743 922 q 807 917 774 935 q 838 899 811 914 l 857 889 m 944 932 q 946 936 946 933 q 944 958 950 947 q 928 971 939 968 q 847 999 915 975 q 764 1024 796 1017 q 744 1022 754 1026 q 715 1001 721 1025 q 678 918 706 968 q 629 828 638 849 q 426 429 575 706 q 224 26 285 167 q 210 17 215 24 q 205 -5 203 7 q 216 -23 207 -17 q 333 -97 225 -29 q 353 -101 343 -103 q 389 -96 374 -115 q 443 -18 415 -65 q 503 92 471 29 l 554 197 l 606 311 l 644 396 q 786 660 693 501 l 940 922 q 944 932 943 926 m 739 172 q 738 186 738 179 q 758 236 738 217 q 779 247 767 243 q 760 210 774 235 l 739 172 m 933 150 l 933 138 q 912 94 929 113 q 868 74 894 76 q 933 150 896 110 m 932 168 q 850 72 883 118 q 840 74 844 74 q 917 204 869 143 q 932 168 929 188 m 907 215 q 826 78 857 151 l 824 78 q 803 86 813 82 q 882 235 836 160 q 907 215 897 226 m 869 242 q 790 93 824 167 q 772 108 781 100 q 776 113 775 110 q 844 250 806 194 q 869 242 858 246 m 829 253 q 764 118 792 199 q 744 151 751 133 q 771 203 751 169 q 797 253 789 236 q 822 256 808 256 q 829 253 825 254 m 857 304 q 840 311 850 311 q 722 278 765 315 q 682 186 682 243 q 717 88 682 133 q 807 25 751 42 q 928 37 878 4 q 988 129 978 69 q 963 235 997 186 q 857 304 929 285 m 139 694 q 135 722 135 708 q 156 772 135 753 q 186 788 168 782 q 139 694 153 729 m 326 718 q 331 674 333 696 q 275 611 322 622 l 290 644 q 308 685 300 667 l 326 718 m 319 733 q 283 662 306 710 q 258 608 261 614 q 233 611 246 608 l 235 613 l 271 688 q 300 756 289 726 q 319 733 311 746 m 289 765 q 258 693 278 735 l 221 618 l 221 614 q 199 624 208 618 q 224 669 206 638 q 256 724 243 700 q 278 771 269 749 q 289 765 285 768 m 267 778 q 244 731 257 756 l 213 676 q 186 631 194 646 q 164 651 174 639 l 165 653 q 173 672 168 663 q 184 692 178 682 q 194 710 190 703 q 208 731 199 718 l 221 747 l 235 767 l 247 785 q 267 778 257 782 m 233 788 q 154 664 171 704 q 147 675 150 669 q 204 790 160 715 q 219 792 211 792 q 226 789 222 790 q 233 788 231 789 m 254 840 q 238 847 247 847 q 119 814 163 851 q 79 722 79 779 q 114 624 79 669 q 204 561 149 578 q 325 573 275 540 q 385 665 375 606 q 360 772 394 722 q 254 840 326 821 m 406 260 q 399 260 403 263 l 415 290 q 461 258 433 279 q 506 224 494 231 l 494 201 q 454 229 483 207 q 406 260 425 250 "},"&":{"ha":868,"x_min":-17,"x_max":886,"o":"m 504 193 q 393 122 450 139 q 294 119 336 106 q 225 167 253 133 q 199 289 179 221 q 315 414 219 363 q 504 193 421 306 m 569 294 q 549 226 560 256 l 532 249 l 551 272 q 568 294 563 286 l 569 294 m 558 306 q 540 282 551 296 l 524 260 l 511 276 q 543 322 525 301 l 558 306 m 535 333 q 501 288 517 313 l 486 307 q 503 331 497 324 l 522 350 l 535 333 m 514 360 q 493 339 504 353 q 476 318 486 332 l 461 338 l 489 393 l 514 360 m 481 406 l 451 349 l 422 382 l 439 414 l 451 442 l 481 406 m 443 454 q 426 421 436 443 l 411 392 l 396 408 l 408 432 q 431 468 421 454 l 443 454 m 421 479 q 396 438 411 465 l 386 419 l 372 435 l 411 490 l 421 479 m 738 388 q 701 399 731 389 q 660 410 676 407 q 667 433 664 421 q 701 419 679 428 q 732 406 724 410 q 741 409 738 403 q 738 419 744 415 q 705 433 728 424 q 671 447 682 442 l 671 450 l 672 451 q 751 444 724 449 q 738 388 746 417 m 726 356 q 647 378 686 365 q 656 396 651 386 q 697 386 672 394 q 733 375 726 376 q 726 356 731 365 m 717 331 q 707 334 714 332 q 694 338 700 336 l 683 340 q 636 351 656 350 l 642 365 q 722 342 682 353 l 717 331 m 697 286 q 653 306 692 289 q 619 321 632 314 q 629 339 624 329 q 679 328 649 338 l 711 317 q 697 286 706 301 m 724 14 l 704 14 l 722 46 q 740 85 735 68 l 753 69 l 724 14 m 760 14 l 740 14 l 763 58 l 772 46 l 768 36 q 760 14 764 22 m 775 14 q 782 32 778 19 l 782 33 l 799 14 l 775 14 m 638 88 l 624 107 q 643 156 629 126 l 657 190 q 663 181 658 185 l 669 171 q 638 88 656 139 m 657 60 l 647 72 q 679 160 665 128 l 699 136 q 657 60 669 89 m 692 18 l 667 47 q 707 125 679 78 l 731 97 q 710 51 724 79 q 692 18 693 21 m 194 483 l 221 496 l 265 450 q 242 433 253 442 q 215 461 239 439 q 194 483 203 474 m 158 461 q 182 476 168 469 q 206 450 190 465 q 231 425 228 429 l 215 413 l 158 461 m 125 433 l 128 438 q 146 453 136 446 l 206 403 q 196 393 200 399 l 125 433 m 94 397 q 115 424 104 411 l 186 382 q 176 368 181 375 q 139 383 167 372 q 94 397 111 394 m 71 357 q 86 385 78 372 q 133 371 104 383 q 168 357 160 360 q 158 339 163 347 q 119 346 144 340 l 71 357 m 50 306 q 64 344 56 325 q 117 332 67 343 q 153 326 138 328 q 144 303 147 315 q 50 306 89 308 m 36 231 q 39 257 36 244 q 32 264 32 257 q 39 271 32 271 l 42 271 q 39 257 40 264 q 138 263 111 261 l 138 246 q 36 231 93 233 m 38 175 q 35 217 35 196 q 139 232 93 219 q 140 217 139 224 q 92 197 124 208 q 38 175 51 182 m 106 40 l 103 43 q 76 71 88 56 q 121 108 89 82 q 169 149 153 133 q 182 131 175 139 l 183 129 q 106 40 143 97 m 157 10 q 117 32 133 19 q 193 119 153 88 l 207 106 q 157 10 178 65 m 211 -3 q 171 6 189 0 q 218 97 190 58 q 228 90 222 93 q 211 -3 213 26 m 250 -7 q 225 -6 238 -7 q 240 83 225 22 q 256 75 247 79 q 250 -7 251 31 m 285 -7 l 264 -7 q 269 69 265 28 q 283 65 276 68 q 282 35 282 46 q 285 -7 282 10 m 333 -3 l 299 -6 q 296 33 296 10 q 297 63 296 44 q 326 58 311 58 q 333 -3 325 28 m 378 7 q 347 0 363 3 l 346 0 q 340 57 339 28 q 363 58 351 58 q 378 7 364 33 m 421 18 l 392 10 q 376 61 378 36 l 393 64 q 421 18 403 44 m 497 53 q 433 24 468 36 q 407 68 417 50 q 436 78 421 72 q 458 40 436 76 q 467 38 461 35 q 469 49 474 42 q 449 85 449 83 q 472 97 460 90 q 497 53 485 74 m 531 75 q 508 60 519 67 q 483 104 496 81 q 499 115 492 110 q 531 75 525 81 m 550 92 q 540 83 546 88 l 510 124 l 521 133 q 550 92 531 113 m 576 124 q 572 119 574 122 l 560 101 q 531 143 540 122 l 546 157 q 557 160 551 157 l 576 124 m 304 625 l 313 614 l 283 585 l 254 557 q 251 564 253 560 l 244 571 q 304 625 281 607 m 281 654 l 294 636 q 236 582 271 617 l 228 590 l 256 621 q 281 654 271 640 m 271 665 q 244 631 263 650 l 219 601 l 213 608 l 238 636 q 268 671 257 657 l 271 665 m 256 690 l 260 682 q 228 644 249 668 l 204 619 q 186 650 193 636 q 256 690 243 685 m 242 715 q 249 703 244 710 q 181 663 233 696 l 178 668 q 242 715 219 704 m 231 761 q 233 740 231 751 q 164 726 192 736 q 163 760 163 743 q 231 761 207 758 m 231 797 q 229 783 229 790 l 229 775 q 164 774 207 772 q 168 799 165 786 q 231 797 214 799 m 242 825 q 235 811 238 818 q 172 813 215 814 q 190 851 179 833 l 242 825 m 258 850 q 249 836 253 843 l 199 863 q 232 899 213 882 l 258 850 m 279 869 q 268 860 274 865 l 243 907 q 268 924 256 917 q 279 871 279 893 l 279 869 m 324 897 q 304 888 314 893 q 293 881 299 883 q 281 931 292 901 q 318 944 299 939 q 324 897 321 918 m 353 907 q 338 903 344 906 q 331 947 333 922 q 336 949 333 949 q 358 953 347 951 q 357 942 357 949 q 353 907 353 919 m 381 911 q 367 910 374 911 q 369 939 367 919 q 372 954 371 949 l 393 954 q 381 911 383 932 m 411 910 q 394 911 403 911 q 407 954 397 931 q 444 947 426 951 q 411 910 425 922 m 446 896 q 432 903 439 900 l 426 906 q 458 942 439 917 q 490 926 476 936 q 446 896 469 908 m 482 865 q 460 888 472 878 q 503 918 482 901 q 524 900 514 910 l 501 882 q 482 865 489 872 m 494 840 l 489 854 q 510 871 496 861 l 532 890 q 551 858 543 875 q 494 840 536 851 m 499 822 l 499 826 q 557 846 540 839 q 561 831 560 839 q 528 826 550 828 q 499 822 506 824 m 500 800 l 500 808 q 528 812 504 808 q 565 818 553 815 q 568 803 567 810 q 532 801 556 801 q 500 800 508 801 m 497 779 q 499 786 497 783 q 531 788 506 788 q 571 789 557 788 q 572 772 571 781 q 497 779 546 775 m 489 753 q 493 767 492 760 q 572 758 547 761 l 572 754 q 571 724 572 738 q 489 753 532 735 m 471 715 l 476 725 q 483 740 481 733 q 569 710 528 722 q 558 675 565 692 q 540 685 551 679 l 514 699 q 471 715 490 711 m 460 697 l 463 701 q 508 686 483 699 q 535 672 513 683 q 553 663 544 667 q 544 647 549 656 q 496 676 538 650 q 460 697 475 689 m 444 674 l 453 685 q 489 664 465 678 l 536 635 l 533 631 q 514 604 525 617 q 444 674 489 622 m 424 646 l 436 663 q 503 594 479 614 q 482 578 493 586 q 424 646 453 617 m 399 615 l 414 635 q 469 571 443 607 l 450 558 l 399 615 m 354 650 l 342 667 q 311 704 322 689 q 285 781 283 747 q 332 839 286 813 q 409 853 378 867 q 444 814 440 839 q 426 751 447 789 q 354 650 406 708 m 233 726 q 174 682 210 714 q 167 713 169 697 q 233 726 193 722 m 403 561 q 399 568 403 567 l 397 569 l 379 593 l 389 604 l 438 551 l 432 547 q 424 540 426 544 q 421 539 422 539 l 403 561 m 396 549 l 408 532 q 403 503 397 519 l 363 444 l 344 463 q 367 499 347 467 q 396 549 386 531 m 249 486 q 257 489 254 485 q 338 582 279 517 q 350 578 343 579 q 315 519 335 557 q 278 457 288 472 l 249 486 m 244 492 l 235 503 l 242 506 q 256 539 263 515 q 293 575 267 549 q 322 603 311 593 l 326 599 q 328 593 326 596 q 246 497 268 525 q 244 492 243 494 m 60 113 q 64 114 63 113 q 154 176 90 135 q 161 161 157 168 q 113 119 144 144 l 69 83 q 56 110 61 96 l 60 113 m 56 125 q 51 124 53 125 l 50 122 q 39 161 43 142 q 97 183 54 168 q 144 203 126 194 q 149 190 146 196 q 56 125 82 146 m 610 281 q 607 285 610 283 l 606 285 l 594 293 q 601 297 599 294 q 606 301 604 299 l 607 303 l 611 310 q 647 292 625 301 q 692 274 686 276 q 668 233 681 253 q 610 281 649 251 m 656 226 q 654 224 654 225 q 629 161 649 207 q 615 124 619 139 l 611 128 q 596 132 604 132 q 618 185 613 169 q 626 251 631 224 l 656 226 m 614 260 q 611 253 610 257 q 604 189 618 228 q 585 139 600 174 q 568 169 579 147 q 571 192 574 179 q 607 267 592 231 l 614 260 m 596 275 q 564 206 582 243 l 558 213 q 582 286 571 246 l 596 275 m 860 -40 q 878 -31 871 -40 q 886 -11 886 -22 q 872 11 885 4 q 868 18 871 15 l 819 76 l 763 144 l 715 203 q 808 450 789 324 q 804 469 810 460 q 798 488 804 479 q 781 497 792 496 q 640 510 753 501 q 621 503 629 511 q 611 484 613 496 q 618 464 610 472 q 581 365 601 404 l 529 432 q 471 506 490 483 q 581 600 547 550 q 617 674 607 640 q 628 754 628 708 q 529 968 628 900 q 325 1003 442 1028 q 197 941 253 988 q 117 821 142 894 q 125 650 92 747 q 194 544 140 608 q 89 476 124 511 q 0 333 31 418 q -16 156 -31 247 q 64 1 -1 64 q 197 -57 114 -43 q 357 -54 281 -71 q 592 56 510 -28 q 663 -32 615 21 q 686 -42 672 -43 l 689 -42 q 860 -40 831 -42 m 367 578 q 368 582 368 581 l 368 583 l 386 560 q 335 472 383 554 q 304 475 321 483 l 326 514 q 367 578 350 554 "},"'":{"ha":263,"x_min":72,"x_max":279,"o":"m 215 653 q 218 621 215 639 q 144 608 185 614 l 142 621 q 215 653 174 639 m 214 667 q 139 635 171 653 q 133 661 135 649 q 213 686 156 672 q 214 667 213 678 m 211 701 q 131 676 153 686 q 128 694 129 685 q 210 714 178 706 q 211 701 211 707 m 210 728 q 126 708 176 719 q 125 724 125 715 q 208 749 181 739 q 210 728 210 738 m 208 763 q 124 738 179 753 q 122 764 122 750 q 208 775 164 774 l 208 763 m 226 993 q 179 1008 194 1006 l 188 1022 q 229 1007 211 1015 l 226 993 m 207 807 q 208 789 207 799 q 122 778 164 788 l 122 797 q 207 807 153 807 m 208 821 q 124 813 154 821 q 125 832 124 822 l 208 832 l 208 821 m 208 846 l 126 846 l 129 868 l 210 868 q 208 846 208 857 m 210 882 l 132 882 q 136 897 133 889 q 175 900 151 899 q 213 901 206 901 l 210 882 m 214 915 q 175 914 206 915 q 139 911 153 913 q 143 928 142 919 q 171 925 169 925 q 215 926 197 924 q 214 915 214 921 m 217 940 q 172 939 199 938 q 149 942 167 939 q 153 954 150 947 q 217 943 188 949 l 217 940 m 219 957 q 158 967 192 963 q 171 994 164 982 q 224 979 186 994 q 219 957 221 968 m 276 1024 q 263 1047 278 1040 q 185 1075 229 1063 q 156 1063 165 1081 q 88 913 108 1000 q 73 741 68 825 q 101 582 78 657 q 106 572 103 576 q 132 557 113 556 q 242 576 193 564 q 261 597 260 581 q 268 618 269 606 q 258 813 257 707 q 279 1004 258 919 q 276 1024 282 1014 "},"(":{"ha":588,"x_min":-3,"x_max":604,"o":"m 472 1032 l 485 1038 q 535 976 507 1017 l 515 967 q 494 1000 508 981 q 472 1032 476 1026 m 453 1024 l 460 1026 q 483 992 463 1022 q 503 961 496 974 l 490 954 q 453 1024 469 983 m 385 993 l 406 1003 l 468 942 l 457 935 q 425 961 446 943 q 385 993 399 983 m 353 976 l 371 986 l 372 985 q 417 950 388 975 q 444 928 433 935 l 417 910 l 353 976 m 317 954 l 340 968 l 404 901 l 381 883 q 317 954 343 922 m 299 943 l 306 947 q 369 875 332 914 l 368 874 q 299 943 338 910 m 264 917 q 288 935 275 926 q 357 865 326 901 l 344 854 q 322 874 338 861 q 300 893 307 886 q 264 917 279 908 m 236 894 l 251 908 q 290 882 268 900 l 335 846 l 324 835 q 236 894 281 858 m 213 872 l 226 886 q 313 825 271 850 l 303 815 q 213 872 225 865 m 179 836 q 203 863 190 850 q 206 861 204 861 q 293 806 219 851 q 272 781 282 793 q 221 819 256 803 q 188 833 208 825 l 179 836 m 149 796 q 193 772 164 786 q 244 744 231 756 l 242 740 q 142 783 174 771 l 149 796 m 157 807 l 169 825 l 182 819 q 215 806 203 811 q 264 769 250 790 l 253 756 q 199 785 238 768 q 157 807 171 799 m 119 744 l 131 767 l 133 771 q 233 728 167 758 l 231 724 q 167 729 208 718 q 132 740 156 732 l 119 744 m 93 686 q 111 728 101 707 q 214 692 160 703 l 203 669 q 135 678 200 669 q 93 686 110 682 m 79 646 q 89 674 83 660 q 132 664 106 668 q 153 663 140 664 q 177 660 167 661 q 197 656 188 658 l 189 636 q 79 646 125 644 m 72 618 l 76 632 q 183 622 121 631 l 179 608 q 72 618 143 619 m 65 589 q 69 604 67 597 q 175 594 140 606 l 172 589 l 171 589 l 65 589 m 60 557 q 63 575 61 567 l 169 575 q 163 553 165 564 q 60 557 122 557 m 56 524 l 58 543 q 160 539 119 543 l 157 525 q 93 522 133 522 q 76 523 90 522 q 56 524 63 524 m 51 483 q 54 510 53 496 q 76 509 61 510 q 93 508 90 508 q 154 511 131 508 q 150 492 153 501 q 51 483 118 483 m 50 447 q 51 469 50 458 q 149 476 115 469 q 146 461 147 469 q 106 456 143 461 q 50 447 69 451 m 50 403 l 50 433 q 144 447 51 433 l 144 436 q 50 403 117 431 m 51 369 q 50 389 50 379 q 143 422 121 417 l 140 392 q 89 379 133 389 q 51 369 67 375 m 54 324 l 51 356 q 92 367 68 361 q 140 378 135 375 l 140 364 q 96 344 122 356 l 54 324 m 60 283 q 56 310 57 297 l 101 332 q 140 349 125 342 l 140 329 q 60 283 110 318 m 65 250 q 61 268 64 260 q 142 315 114 304 q 143 290 142 303 l 110 272 l 65 250 m 74 206 l 68 236 q 117 261 83 243 l 144 275 q 149 244 147 260 q 74 206 122 232 m 88 153 l 79 183 l 78 192 l 78 193 q 151 229 126 218 l 157 199 q 88 153 117 176 m 97 125 l 93 139 q 161 185 119 161 q 165 165 163 175 q 97 125 131 151 m 113 81 l 101 110 q 169 151 135 138 q 132 104 161 142 l 113 81 m 128 43 l 118 65 q 143 94 128 78 l 175 136 q 185 108 179 122 q 128 43 175 96 m 153 -7 q 135 29 143 11 q 192 94 188 90 q 203 69 196 82 q 178 37 197 63 q 153 -7 160 11 m 169 -36 l 160 -19 q 165 -14 164 -18 q 190 29 171 3 l 210 56 l 221 36 q 189 -10 214 24 q 169 -36 176 -25 m 203 -86 l 178 -49 q 200 -18 185 -36 q 229 22 224 13 l 246 0 l 247 -3 q 203 -86 242 -26 m 228 -117 l 213 -97 q 258 -15 251 -37 q 279 -39 268 -28 q 228 -117 254 -71 m 265 -157 l 238 -128 l 238 -126 q 290 -49 264 -81 q 308 -65 299 -57 q 265 -157 272 -135 m 294 -183 l 276 -168 q 319 -75 283 -143 l 339 -90 l 314 -142 l 294 -183 m 329 -210 q 306 -192 317 -201 l 326 -147 l 350 -99 q 378 -117 364 -107 q 329 -210 354 -140 m 374 -236 l 340 -217 q 390 -124 368 -146 l 414 -137 q 400 -168 407 -151 l 386 -206 l 374 -236 m 403 -250 q 421 -211 408 -236 q 444 -156 440 -175 l 454 -161 q 439 -203 442 -199 l 429 -219 l 408 -251 l 403 -250 m 390 -244 l 386 -242 l 403 -199 q 425 -144 417 -162 l 432 -149 q 410 -204 428 -168 q 390 -244 396 -229 m 469 961 l 419 1010 l 440 1018 q 469 961 453 986 m 208 707 q 222 708 215 707 l 221 706 q 208 707 215 706 m 414 -312 q 435 -311 425 -317 q 449 -294 444 -306 q 450 -292 449 -293 l 450 -290 l 476 -249 q 489 -228 486 -233 q 511 -169 492 -222 q 506 -142 517 -154 q 490 -117 506 -125 q 290 33 349 -43 q 208 229 231 111 q 202 465 186 347 q 267 674 218 583 q 400 828 311 758 q 588 938 489 899 q 603 953 599 942 q 604 974 608 964 q 596 985 601 981 q 593 989 596 988 q 519 1081 549 1056 q 510 1086 515 1085 q 479 1094 497 1101 q 244 972 342 1040 q 83 794 149 904 q -3 500 11 671 q 26 169 -17 329 q 169 -133 71 -3 q 414 -312 268 -264 "},")":{"ha":538,"x_min":-29,"x_max":554,"o":"m 536 575 q 383 899 497 768 q 69 1103 269 1031 q 36 1092 49 1110 q 25 1078 29 1086 q -28 928 -17 969 q -29 915 -31 922 q -24 894 -31 904 q -7 883 -18 885 q 275 728 204 835 q 350 493 342 628 q 317 229 360 358 q 203 -19 278 99 q 40 -215 129 -137 q 36 -219 38 -217 q 17 -230 24 -221 q 11 -251 10 -239 q 22 -269 13 -262 q 124 -365 83 -317 q 131 -371 126 -369 q 142 -375 136 -375 l 144 -375 q 163 -368 154 -375 q 364 -167 281 -264 q 496 39 447 -72 q 554 432 568 206 q 536 575 549 508 m 160 -296 l 147 -308 q 85 -249 119 -278 l 107 -229 q 160 -296 122 -243 m 196 -264 l 171 -286 q 117 -219 132 -235 l 142 -194 q 192 -261 158 -224 q 196 -264 193 -262 m 233 -228 l 204 -256 q 203 -253 204 -254 q 151 -183 168 -214 l 174 -157 q 233 -228 185 -181 m 260 -200 l 243 -218 q 183 -144 192 -168 l 197 -125 q 260 -200 214 -158 m 304 -153 l 269 -190 q 208 -114 222 -146 q 207 -112 207 -114 l 225 -86 q 304 -153 282 -139 m 331 -121 l 313 -142 q 233 -75 292 -129 l 246 -56 l 274 -75 q 306 -100 292 -89 l 331 -121 m 356 -89 q 314 -58 343 -81 q 265 -25 285 -35 l 271 -14 q 372 -68 307 -37 l 356 -89 m 347 -100 l 339 -111 q 290 -70 324 -96 q 254 -43 256 -44 l 258 -36 q 306 -69 276 -47 q 347 -100 335 -92 m 400 -24 q 379 -56 390 -40 q 278 -1 314 -25 l 292 22 q 349 3 315 19 l 364 -6 l 383 -17 q 400 -24 393 -21 m 415 0 l 408 -12 q 354 14 407 -11 q 299 36 322 31 l 304 49 q 353 26 321 43 q 413 0 392 6 l 415 0 m 429 28 l 421 10 q 415 14 419 13 q 358 39 397 18 q 311 61 328 56 l 319 81 q 383 50 339 72 l 429 28 m 450 74 l 446 61 q 436 40 440 51 q 390 63 418 47 q 325 93 346 85 l 338 122 q 386 100 344 118 l 449 74 l 450 74 m 468 124 q 456 86 463 104 q 454 88 454 86 q 391 114 432 96 q 343 135 350 132 l 353 163 q 408 143 372 154 q 468 124 451 131 m 485 185 q 472 136 479 160 q 411 157 456 143 q 357 175 376 167 l 367 201 q 485 185 393 201 m 493 235 l 488 199 q 371 215 397 215 q 381 250 375 233 q 492 235 422 240 l 493 235 m 499 282 q 494 247 497 265 q 492 249 493 249 q 383 264 425 253 q 390 292 388 278 q 451 288 410 292 q 499 282 482 283 m 501 335 q 500 296 500 315 q 453 300 483 297 q 393 306 413 306 l 399 340 q 465 338 424 340 q 481 336 468 338 q 501 335 494 335 m 500 417 q 457 411 483 414 q 406 403 419 406 q 407 429 407 417 q 499 428 432 426 q 500 417 499 422 m 501 379 q 453 378 481 378 q 428 378 444 378 q 403 379 411 379 q 404 389 404 385 q 460 397 419 392 q 500 403 485 400 q 501 379 500 390 m 501 365 l 501 349 q 483 349 494 349 q 467 351 471 350 q 400 354 426 354 q 401 365 401 360 q 427 365 410 365 q 453 364 444 364 q 501 365 481 364 m 431 725 q 358 693 389 706 l 354 700 q 421 744 375 717 l 431 725 m 447 685 q 371 665 425 674 q 364 681 367 672 q 436 713 394 693 l 447 685 m 458 653 q 382 632 404 636 q 375 651 379 642 q 453 672 428 661 l 458 653 m 472 603 q 429 594 457 596 q 413 592 424 593 q 399 592 401 592 l 393 592 q 386 619 389 606 q 463 639 410 622 q 472 603 468 621 m 481 571 q 406 568 453 568 q 399 561 399 568 l 396 578 l 400 578 q 413 578 403 578 q 431 581 424 579 q 476 589 460 583 q 481 571 478 581 m 488 529 q 404 526 461 526 l 399 558 q 406 554 400 554 q 483 557 454 554 q 488 529 486 543 m 493 490 q 407 490 451 485 q 406 513 406 501 q 490 515 461 513 l 493 490 m 497 442 q 407 443 432 440 l 407 476 q 494 476 453 471 l 497 442 m 406 772 l 414 757 q 349 713 369 729 l 347 715 q 350 717 349 715 q 406 772 368 742 m 399 785 q 340 728 360 753 l 332 743 q 390 797 364 779 l 399 785 m 383 810 q 324 756 356 790 l 322 758 q 308 776 315 768 q 365 833 343 819 q 383 810 375 822 m 357 844 q 300 788 333 829 q 289 800 294 793 l 339 867 q 357 844 349 856 m 329 876 l 279 810 l 263 824 l 288 860 q 311 894 304 883 l 329 876 m 301 904 l 276 868 q 253 833 260 844 l 239 843 l 260 876 q 288 917 276 901 l 301 904 m 278 925 q 249 883 265 910 l 228 851 q 210 861 219 857 q 211 864 211 863 q 258 940 243 919 l 278 925 m 247 949 q 200 869 232 926 q 199 868 199 869 l 183 876 q 225 964 197 926 l 247 949 m 214 971 q 171 882 186 933 q 144 894 158 889 q 186 989 183 951 q 214 971 200 981 m 172 996 q 132 899 172 960 l 115 906 q 140 956 122 922 l 164 1000 l 172 996 m 151 1007 q 128 961 144 993 q 101 910 110 928 l 81 917 l 104 969 q 126 1019 118 1003 l 151 1007 m 114 1025 q 90 975 106 1008 q 67 921 75 939 l 57 924 q 64 949 58 928 q 74 986 69 972 q 96 1032 83 1017 l 114 1025 m 83 1038 q 60 990 69 1021 l 50 953 q 44 928 44 931 l 31 931 q 71 1043 40 965 l 83 1038 "},"*":{"ha":597,"x_min":15,"x_max":615,"o":"m 279 685 q 192 685 235 689 q 201 701 197 693 q 283 689 246 697 l 279 685 m 256 658 q 181 667 211 667 l 183 669 q 268 671 224 675 l 256 658 m 236 639 q 165 643 186 640 l 171 651 q 244 647 201 654 l 236 639 m 222 625 q 199 604 211 614 q 156 629 176 618 l 156 631 q 222 625 181 626 m 488 664 l 464 647 q 419 615 428 621 l 413 628 q 479 675 435 646 l 488 664 m 496 654 l 510 636 q 433 594 456 604 l 428 603 q 472 636 435 610 l 496 654 m 425 749 q 364 700 383 711 l 356 711 q 411 767 376 735 l 425 749 m 450 715 q 382 674 417 692 l 372 689 q 433 738 393 701 l 450 715 m 458 704 l 461 700 l 471 686 q 404 639 428 657 l 389 663 q 458 704 425 681 m 532 938 l 536 939 q 563 867 557 885 l 525 854 q 532 938 531 894 m 518 932 q 510 849 517 889 l 475 838 q 499 925 479 860 l 518 932 m 468 919 q 483 919 475 917 q 461 833 465 861 l 439 826 q 468 919 444 860 m 406 1010 l 413 1019 q 451 1008 447 1010 q 406 1010 433 1010 m 381 969 l 396 996 q 461 994 436 996 l 463 994 q 460 991 461 993 q 457 984 460 989 q 453 972 454 979 q 451 969 451 971 l 381 969 m 364 942 l 372 956 l 451 956 q 453 951 451 953 q 451 940 451 946 q 364 942 406 936 m 328 904 q 338 906 332 904 q 331 731 338 788 q 314 726 322 731 q 310 721 311 724 q 328 904 310 725 m 194 939 l 183 947 q 235 992 213 969 l 246 982 q 194 939 214 958 m 217 922 l 206 931 q 257 972 224 949 l 268 963 q 217 922 243 951 m 90 756 l 82 768 l 71 786 l 79 790 q 90 756 85 776 m 97 701 q 110 700 103 700 q 144 704 126 703 l 138 693 q 111 653 114 656 q 108 649 110 650 q 90 635 96 646 q 90 615 86 625 q 101 601 93 606 q 172 561 135 586 q 182 557 178 558 q 217 554 199 539 q 328 664 267 594 q 400 553 353 628 q 421 542 407 542 q 439 542 429 539 q 543 597 468 554 q 556 615 553 604 q 558 617 557 617 q 567 634 565 624 q 561 653 568 644 q 501 729 540 676 q 463 782 478 763 q 589 824 508 794 q 601 833 597 826 q 615 861 618 842 q 579 967 610 886 q 579 979 582 974 q 567 994 576 990 q 549 996 558 999 q 511 983 533 992 l 518 1004 q 519 1017 519 1010 q 521 1021 521 1018 q 516 1040 522 1032 q 500 1050 510 1049 q 425 1068 481 1053 q 421 1072 424 1071 q 402 1078 413 1079 q 386 1068 392 1076 q 325 974 363 1038 q 264 1032 297 1006 l 261 1035 q 253 1049 258 1043 q 234 1053 244 1054 q 217 1046 224 1053 q 138 976 189 1013 q 133 972 136 974 q 118 961 124 969 q 115 942 113 953 q 125 926 117 932 q 168 896 144 914 q 25 815 94 861 q 15 786 8 804 q 18 776 17 781 q 40 742 25 764 q 60 708 54 719 q 75 697 65 700 q 94 699 85 694 l 97 701 m 133 753 q 106 750 119 753 q 92 799 99 779 l 117 813 q 128 774 119 799 l 133 753 m 163 754 l 147 754 q 140 776 146 761 q 129 819 132 806 l 146 829 q 163 754 147 806 m 185 754 l 183 754 l 176 754 q 158 836 160 814 l 189 850 q 183 797 183 829 q 185 754 183 786 m 204 742 q 200 749 203 746 q 197 797 197 789 q 206 857 197 835 l 228 867 q 217 797 226 842 q 204 742 206 750 m 239 917 l 236 917 q 229 913 232 917 l 228 914 q 278 951 254 942 l 286 943 l 239 917 m 244 710 q 208 714 226 713 l 208 722 q 217 728 215 721 q 227 781 219 744 q 240 847 235 817 q 243 903 244 876 q 275 921 254 910 q 244 711 275 853 l 244 710 m 396 771 q 383 925 383 843 l 404 925 q 400 917 399 922 q 404 811 404 893 q 397 795 397 806 q 401 776 396 785 l 396 771 m 383 760 q 347 722 363 740 l 344 725 q 351 918 351 783 l 354 926 l 356 929 l 369 926 q 383 761 369 838 l 383 760 m 289 921 q 286 926 289 925 l 294 932 q 310 914 303 924 q 314 910 311 911 q 294 704 296 717 l 294 701 l 293 700 l 258 708 q 289 921 289 851 m 414 919 q 410 925 413 924 q 456 928 433 925 q 424 822 429 860 l 418 821 q 414 919 419 892 "},"+":{"ha":733,"x_min":97,"x_max":751,"o":"m 453 440 q 457 424 453 431 q 403 419 436 419 l 372 419 l 342 419 q 346 440 344 429 q 453 440 378 442 m 471 531 q 356 531 382 533 q 357 560 357 544 q 416 561 378 560 q 472 563 454 563 q 471 531 472 546 m 465 489 q 353 493 413 493 q 354 517 354 504 q 469 517 381 519 q 465 489 468 503 m 457 454 q 347 454 379 456 q 351 479 350 467 q 463 475 410 479 q 457 454 460 464 m 468 692 q 360 678 411 689 l 360 689 l 360 701 q 415 701 364 700 q 468 701 465 701 l 468 692 m 471 643 q 447 644 463 643 q 424 644 431 644 q 360 638 383 644 l 360 663 q 469 678 410 675 q 471 643 469 668 m 472 607 q 358 606 385 608 q 360 622 360 614 q 424 631 382 631 q 446 630 429 631 q 471 629 463 629 q 472 607 471 617 m 472 576 q 416 575 454 576 q 358 574 378 574 l 358 592 q 472 593 383 594 l 472 576 m 510 314 q 493 315 501 314 l 493 410 q 507 408 500 410 q 510 314 506 340 m 546 313 l 524 314 q 521 407 519 340 q 544 406 532 407 q 546 313 535 375 m 581 313 l 560 313 q 558 406 549 378 q 571 404 565 404 q 581 313 579 342 m 622 311 q 594 313 608 311 q 585 404 593 343 q 610 403 597 404 q 622 311 610 392 m 675 313 q 672 403 672 350 l 686 403 q 690 313 686 349 l 675 313 m 661 311 l 636 311 q 624 403 624 396 l 658 403 q 661 311 658 349 m 301 225 l 313 256 q 400 257 335 258 l 390 225 q 364 224 382 225 q 336 224 346 224 q 301 225 317 224 m 290 188 l 297 211 q 336 210 314 210 q 363 210 346 210 q 386 211 379 211 l 378 179 q 290 188 332 186 m 276 146 l 279 153 l 285 174 q 374 167 328 172 l 369 151 l 365 136 q 276 146 340 136 m 265 115 l 272 132 q 361 122 338 124 q 350 92 356 106 q 265 115 315 93 m 247 65 q 328 44 304 47 l 325 38 q 247 65 307 40 m 253 78 l 261 101 q 344 78 310 81 q 335 57 339 67 q 253 78 311 60 m 313 290 q 374 293 318 292 q 414 297 397 293 q 406 271 410 285 q 315 269 336 272 l 315 274 q 313 290 317 283 m 289 396 q 274 308 278 342 l 251 313 q 265 360 253 321 q 275 397 272 383 l 289 396 m 261 400 q 251 364 258 386 q 238 315 240 324 l 225 317 q 229 322 228 318 q 240 404 236 347 l 261 400 m 226 407 q 215 325 222 349 q 218 318 214 321 q 179 325 196 322 l 182 328 q 192 374 188 343 q 200 413 194 400 l 226 407 m 186 414 q 178 375 181 401 q 168 333 175 346 q 169 326 167 329 l 160 328 q 178 415 171 371 l 186 414 m 451 379 l 450 379 q 378 386 425 385 q 329 389 344 388 q 340 406 338 394 l 372 406 l 403 406 q 457 408 435 406 l 451 379 m 307 331 q 440 328 396 324 l 439 319 q 374 307 417 308 q 299 303 308 304 l 306 326 l 307 331 m 311 344 q 318 376 317 361 q 378 372 336 374 q 447 365 424 371 l 449 365 l 444 344 l 444 342 l 442 342 q 311 344 396 338 m 290 333 q 293 332 292 332 l 293 331 l 289 318 q 290 333 289 325 m 293 346 l 300 383 q 304 378 301 379 q 297 346 303 364 l 294 346 l 293 346 m 97 313 q 99 291 93 301 q 115 278 104 281 q 129 276 122 275 q 136 275 133 276 q 253 256 169 271 l 226 171 q 188 67 206 107 q 197 32 178 46 q 213 18 201 22 q 242 6 217 17 q 285 -10 267 -4 q 322 -17 303 -15 l 322 -18 q 343 -22 332 -24 q 361 -10 354 -19 q 424 136 396 44 l 435 175 l 447 221 q 460 260 453 242 q 528 258 483 260 q 583 257 572 257 q 726 260 669 254 q 745 270 738 261 q 751 290 753 279 q 747 303 750 297 l 747 313 q 742 428 742 351 q 721 454 742 450 q 707 458 714 458 q 517 464 574 458 q 527 547 525 501 q 526 649 529 592 q 524 724 524 707 q 515 743 524 735 q 496 751 507 751 l 493 751 q 476 757 486 757 l 342 757 q 322 749 331 757 q 313 731 313 742 l 313 725 q 304 706 304 718 q 292 451 304 535 q 237 461 279 453 q 171 474 194 469 q 143 461 153 476 q 125 439 128 456 q 97 313 117 375 m 471 411 l 472 413 q 479 411 476 411 l 479 315 l 453 315 l 453 317 l 458 342 q 471 411 468 386 "},",":{"ha":222,"x_min":15,"x_max":243,"o":"m 111 -219 l 106 -225 l 68 -197 l 72 -192 l 79 -197 q 111 -218 100 -212 l 111 -219 m 135 -192 q 121 -210 128 -201 q 117 -207 119 -207 q 88 -186 108 -201 l 79 -179 l 83 -171 q 135 -192 107 -179 m 160 -150 l 143 -179 q 89 -158 114 -167 q 101 -126 96 -143 q 157 -150 129 -142 l 160 -150 m 178 -103 q 164 -139 172 -122 q 160 -136 163 -137 q 107 -114 133 -128 q 114 -90 110 -101 q 178 -103 128 -94 m 186 -62 q 181 -89 183 -76 q 117 -76 131 -81 q 122 -53 119 -65 q 186 -62 160 -60 m 190 -21 q 189 -49 190 -35 q 124 -39 161 -46 q 126 -21 126 -29 q 161 -19 140 -19 q 176 -20 167 -19 q 190 -21 186 -21 m 192 21 l 192 -7 q 176 -6 186 -7 q 161 -6 167 -6 l 128 -6 q 129 21 129 7 q 192 21 163 17 m 189 63 q 190 35 190 49 q 129 35 163 31 l 129 49 q 189 63 165 56 m 183 97 q 186 76 185 88 q 128 63 164 69 q 126 79 128 71 l 154 88 l 183 97 m 176 128 q 181 111 178 119 l 150 101 l 124 93 l 121 110 q 150 119 132 115 q 176 128 160 124 m 214 176 q 213 183 214 181 q 201 199 210 194 q 182 200 192 203 q 124 179 158 193 l 69 157 q 56 144 60 153 q 54 125 51 135 q 68 110 58 114 q 74 -40 89 43 q 19 -181 58 -124 q 15 -196 15 -187 q 24 -228 6 -215 l 99 -281 q 117 -284 107 -286 q 133 -274 126 -282 q 138 -264 136 -269 q 220 -133 194 -212 q 242 24 246 -53 q 215 172 239 100 q 214 176 215 175 m 146 133 q 172 144 163 140 l 172 142 q 146 133 156 136 "},"-":{"ha":507,"x_min":26,"x_max":525,"o":"m 447 429 q 469 428 458 428 q 467 381 469 413 q 465 335 465 350 l 457 335 l 453 372 q 447 429 447 410 m 433 431 q 439 371 433 410 l 443 335 l 435 335 q 431 375 432 350 q 428 431 428 425 l 433 431 m 413 432 q 417 374 414 426 q 421 335 418 350 l 397 335 q 394 374 397 351 q 392 402 394 382 q 390 432 390 422 l 413 432 m 376 433 q 378 401 376 422 q 381 374 381 379 q 383 335 383 351 q 364 336 374 336 q 361 433 365 403 l 376 433 m 347 433 q 350 336 351 403 l 329 336 q 328 381 328 353 q 329 435 329 425 q 347 433 338 435 m 299 435 l 315 435 q 314 381 315 425 q 315 336 314 353 q 299 335 307 335 l 299 435 m 285 435 l 285 335 l 269 335 q 267 435 261 386 l 285 435 m 253 433 q 256 335 247 385 q 243 333 249 333 q 239 381 242 350 q 236 433 238 417 l 253 433 m 222 433 l 226 381 q 229 333 228 349 q 204 332 217 332 q 203 381 204 347 q 200 432 201 414 q 222 433 211 432 m 186 431 q 189 379 188 413 q 190 331 190 346 q 171 329 181 331 l 171 429 q 186 431 179 431 m 157 429 l 157 328 q 140 326 149 326 q 138 428 140 393 q 157 429 147 428 m 124 426 q 126 324 126 393 q 113 322 119 322 q 110 425 104 378 l 124 426 m 94 424 q 99 319 90 376 l 86 317 q 83 422 83 344 l 94 424 m 525 446 q 518 465 525 457 q 500 474 511 472 q 483 482 493 481 q 50 474 265 503 q 32 463 39 472 q 26 442 25 454 q 28 436 28 439 l 28 431 q 32 296 28 331 q 38 283 33 289 l 38 279 q 50 261 40 267 q 71 257 60 256 q 147 271 107 265 q 234 278 186 276 q 312 280 282 279 q 402 280 342 281 q 482 279 463 279 q 507 296 500 279 q 521 319 521 304 q 523 383 521 340 q 525 446 525 425 "},".":{"ha":304,"x_min":15,"x_max":321,"o":"m 72 94 q 71 106 71 100 q 92 156 71 136 q 129 172 107 167 q 72 94 97 139 m 264 49 q 231 3 256 18 q 264 49 247 28 m 267 72 q 208 -6 236 40 q 190 -8 200 -8 q 263 99 236 68 q 267 72 267 86 m 257 114 q 175 -7 226 81 q 157 -3 167 -6 q 150 0 154 -1 q 244 131 199 51 q 257 114 251 122 m 235 142 q 138 6 186 58 q 114 21 124 11 q 215 154 142 68 q 235 142 226 149 m 203 161 q 103 31 132 78 q 90 47 96 39 q 188 167 138 118 q 203 161 196 164 m 171 171 q 82 61 125 125 l 76 75 q 146 168 107 131 q 147 175 147 171 l 156 175 q 163 172 158 174 q 171 171 167 172 m 190 224 q 174 231 183 231 q 56 197 99 235 q 15 106 15 163 q 50 7 15 53 q 140 -56 85 -39 q 261 -44 211 -76 q 321 49 311 -11 q 297 155 331 106 q 190 224 263 204 "},"/":{"ha":529,"x_min":-62,"x_max":547,"o":"m 78 -79 q 0 -40 53 -69 l 0 -39 l 6 -22 q 78 -79 68 -69 m 108 -51 q 94 -76 101 -65 q 70 -53 83 -64 q 37 -27 57 -42 q 10 -7 17 -12 l 17 14 q 58 -18 32 0 q 108 -51 96 -42 m 125 -10 l 114 -39 q 67 -6 103 -29 q 21 28 36 14 l 25 42 q 125 -10 63 31 m 143 46 q 96 63 125 51 q 39 83 57 78 l 44 97 q 146 54 107 82 l 143 46 m 139 32 q 131 4 133 15 q 31 54 68 43 l 35 69 q 90 50 53 64 q 139 32 121 38 m 157 93 q 104 117 138 103 l 58 138 l 64 153 q 160 104 107 140 l 157 93 m 153 81 l 149 68 q 49 111 110 94 l 54 125 q 100 104 65 119 l 153 81 m 168 131 l 164 118 q 69 167 113 154 l 72 175 q 124 151 92 168 q 168 131 157 136 m 174 143 q 129 164 163 149 q 76 188 97 181 l 82 201 q 122 178 96 194 q 161 156 149 161 q 170 158 167 151 q 167 167 174 164 q 130 190 157 172 q 86 214 103 207 l 89 221 q 138 197 108 214 l 183 172 l 174 143 m 194 201 l 189 185 l 144 210 q 93 233 114 226 l 100 251 q 194 201 118 240 m 211 246 q 117 297 178 261 l 124 313 q 182 288 143 306 l 219 271 l 211 246 m 206 233 l 199 215 q 106 265 122 253 l 113 283 q 206 233 172 249 m 235 310 l 225 283 l 188 300 q 128 325 149 318 l 143 363 q 196 333 163 354 l 235 310 m 253 363 l 239 324 l 203 346 q 147 376 168 368 l 150 383 l 158 403 q 203 385 175 397 q 253 363 238 368 m 264 394 l 257 375 q 208 397 243 381 l 163 417 l 174 444 q 221 418 182 440 q 264 394 246 403 m 279 440 l 268 408 q 228 429 251 415 q 179 458 188 453 l 188 481 q 189 479 188 479 q 243 458 210 475 l 279 440 m 307 524 q 294 492 300 507 q 253 514 279 497 q 208 538 224 531 l 218 565 q 260 546 229 560 q 307 524 290 532 m 322 563 l 311 536 q 265 558 296 544 q 224 578 235 572 l 233 606 q 322 563 260 599 m 339 599 l 328 576 q 238 618 267 610 l 244 640 q 247 639 246 639 q 313 611 267 633 l 339 599 m 357 639 q 257 676 297 660 l 263 693 q 319 668 285 689 q 361 646 349 651 l 357 639 m 386 700 q 326 725 367 707 l 279 744 l 285 758 q 386 700 356 715 m 381 688 l 367 658 q 326 679 354 663 q 267 706 290 701 l 275 731 q 321 713 292 725 q 381 688 361 694 m 407 749 l 401 736 l 392 713 q 289 772 363 728 l 296 796 q 356 769 313 790 q 407 749 386 754 m 418 774 l 413 761 q 361 782 393 767 q 299 810 318 804 l 300 811 q 418 774 374 783 m 422 786 q 304 824 379 797 l 314 849 q 429 804 364 839 l 422 786 m 440 831 l 435 817 q 319 863 369 851 l 322 871 l 350 860 l 381 847 q 409 838 392 843 q 440 831 426 833 m 446 844 q 415 851 432 846 q 388 859 397 856 q 356 872 378 863 l 328 883 l 333 896 q 336 894 335 894 q 410 879 365 894 q 453 863 411 878 l 446 844 m 479 932 l 429 944 q 358 965 382 957 q 363 981 360 972 q 432 965 382 978 l 489 954 l 479 932 m 472 913 q 350 936 433 924 q 354 951 351 944 q 426 932 378 943 q 475 918 458 924 l 472 913 m 467 900 l 458 875 q 414 892 415 892 q 339 908 369 908 l 344 924 q 467 900 429 910 m 388 585 l 389 586 l 389 588 q 449 717 440 700 l 499 842 l 544 957 q 546 967 546 961 q 547 972 547 969 q 542 991 549 983 q 525 1000 535 999 q 443 1015 496 1003 q 358 1032 383 1028 q 340 1028 349 1033 q 324 1022 331 1028 q 315 1006 317 1015 q 289 918 311 972 q 251 822 257 844 q 103 400 208 676 q -47 -24 -6 115 q -61 -36 -57 -26 q -62 -54 -65 -44 q -50 -69 -60 -64 q -15 -88 -44 -72 q 33 -114 14 -104 q 74 -131 53 -124 q 90 -131 82 -133 q 122 -124 110 -140 q 163 -51 147 -92 q 194 44 179 -10 q 217 117 210 99 l 254 219 l 300 344 q 333 450 317 396 q 388 585 350 506 m 192 493 l 203 524 q 245 501 217 518 q 290 479 274 485 l 286 464 l 283 454 q 250 471 275 457 q 192 493 214 488 m 250 653 l 253 664 q 351 626 293 647 l 344 611 l 318 624 q 250 653 272 646 "},":":{"ha":328,"x_min":32,"x_max":344,"o":"m 96 640 q 94 653 94 646 q 115 703 94 683 q 150 718 129 714 q 122 676 140 701 l 96 640 m 290 619 l 290 604 q 239 543 282 557 q 290 619 260 582 m 289 638 q 221 540 247 590 q 203 540 213 539 q 285 651 222 572 q 289 638 288 644 m 278 665 q 189 543 207 576 q 181 544 185 543 l 178 546 q 213 624 193 588 q 258 688 238 668 q 278 665 271 678 m 247 696 q 201 631 225 675 q 165 550 181 593 q 140 565 151 557 q 183 635 158 592 l 228 707 q 247 696 239 703 m 214 713 l 171 642 q 129 575 142 594 q 122 582 126 579 q 197 718 164 668 q 214 713 207 715 m 183 721 q 114 594 151 672 q 100 622 104 608 l 133 668 q 167 722 156 700 l 179 722 q 183 721 181 721 m 214 771 q 197 778 207 778 q 79 744 122 782 q 39 653 39 710 q 74 554 39 600 q 164 492 108 508 q 285 503 235 471 q 344 596 335 536 q 320 702 354 653 q 214 771 286 751 m 88 82 l 88 89 q 108 139 88 119 q 157 157 126 153 q 118 119 139 144 q 93 88 110 110 l 88 82 m 283 57 q 283 40 285 49 q 254 -10 278 10 l 261 7 q 283 57 274 39 m 281 78 q 249 13 265 56 l 235 -19 q 217 -24 226 -24 q 275 93 239 26 q 281 78 279 86 m 267 107 q 201 -25 226 32 q 174 -19 188 -24 q 168 -18 171 -18 q 204 49 183 15 q 254 121 233 99 q 267 107 261 114 m 244 129 q 192 56 222 107 q 154 -12 171 19 q 138 -3 146 -8 l 228 140 l 244 129 m 215 146 l 128 7 q 103 38 113 21 q 199 151 146 99 l 215 146 m 182 156 q 96 53 136 107 q 92 64 93 58 l 104 79 q 129 111 121 101 q 181 156 157 143 l 182 156 m 207 207 q 190 214 200 214 q 72 181 115 218 q 32 89 32 146 q 67 -10 32 36 q 157 -72 101 -56 q 278 -60 228 -93 q 338 32 328 -28 q 313 138 347 89 q 207 207 279 188 "},";":{"ha":328,"x_min":-29,"x_max":344,"o":"m 94 649 q 115 699 94 679 q 138 711 125 706 q 124 692 131 703 l 100 656 l 94 649 m 290 607 l 290 600 q 272 560 286 578 q 233 538 257 543 l 261 571 l 290 607 m 289 631 q 250 579 276 610 q 214 535 221 544 q 190 538 201 535 q 285 646 222 589 q 289 631 288 639 m 279 660 q 175 542 211 596 q 167 546 171 543 q 265 678 204 614 q 279 660 274 669 m 254 686 q 154 553 193 622 q 139 563 146 557 l 185 624 q 233 700 218 668 q 254 686 246 694 m 221 706 q 174 632 206 676 q 129 572 132 576 q 110 597 118 583 q 201 713 153 667 q 221 706 211 710 m 185 717 q 103 611 142 672 q 97 628 99 619 l 111 649 l 135 683 q 160 717 150 706 q 179 718 169 718 q 185 717 182 717 m 214 767 q 197 774 207 774 q 79 740 122 778 q 39 649 39 706 q 74 550 39 596 q 164 488 108 504 q 285 499 235 467 q 344 592 335 532 q 320 698 354 649 q 214 767 286 747 m 86 -239 q 72 -243 79 -242 q 32 -179 54 -217 q 36 -176 35 -178 l 44 -169 q 68 -214 50 -189 l 86 -239 m 126 -221 q 99 -235 114 -229 l 79 -207 q 56 -157 60 -178 l 64 -147 l 65 -149 l 83 -171 l 106 -196 l 122 -218 q 126 -221 124 -219 m 183 -158 q 163 -189 174 -175 l 96 -106 l 99 -101 q 101 -103 100 -103 q 151 -137 115 -111 q 183 -158 171 -151 m 235 140 l 158 140 l 156 165 q 235 156 197 158 l 235 140 m 235 107 q 191 113 219 110 q 158 115 163 115 l 158 126 l 235 126 l 235 107 m 233 72 q 197 78 225 74 q 157 83 172 82 q 158 101 158 92 q 182 99 167 100 q 210 96 197 97 q 235 93 224 94 q 233 72 233 82 m 232 32 q 151 39 194 42 q 156 69 154 54 q 196 64 171 68 l 233 58 q 232 32 232 44 m 228 -10 q 146 13 169 10 l 149 24 q 231 18 193 28 l 228 -10 m 218 -67 q 211 -93 214 -81 l 208 -101 q 204 -94 208 -97 q 117 -68 176 -82 q 131 -39 126 -50 q 176 -54 149 -46 q 218 -67 210 -65 m 282 179 q 275 197 282 189 q 258 204 268 204 q 149 217 208 207 q 124 204 132 219 q 108 194 114 203 q 104 178 103 186 q 91 2 117 85 q 3 -140 65 -81 q 0 -142 1 -142 q -17 -144 -8 -140 q -28 -160 -26 -150 q -26 -179 -31 -171 q 35 -276 11 -242 q 36 -278 35 -278 q 64 -296 42 -299 q 260 -107 211 -272 q 285 168 285 -18 q 282 179 285 174 m 72 -137 q 88 -118 81 -128 q 153 -199 143 -187 q 135 -214 144 -207 q 133 -210 135 -212 q 100 -168 122 -194 q 76 -140 78 -142 q 72 -137 75 -139 m 107 -92 q 106 -90 107 -90 l 111 -81 q 199 -108 171 -96 q 207 -106 204 -110 q 190 -146 200 -128 q 160 -126 178 -139 q 107 -92 122 -99 m 136 -25 l 135 -25 q 143 -1 139 -14 q 225 -24 164 -3 q 221 -54 224 -39 q 181 -42 217 -53 q 136 -25 153 -33 "},"<":{"ha":718,"x_min":8,"x_max":735,"o":"m 636 138 l 636 218 l 654 215 q 636 138 651 181 m 224 200 q 172 221 197 210 q 226 267 189 239 l 267 294 l 281 306 l 297 301 q 277 271 289 286 q 249 237 265 256 q 224 207 232 218 q 224 200 221 204 m 268 183 l 232 196 l 235 199 l 261 228 q 290 265 278 249 q 313 299 303 282 l 328 296 l 268 183 m 310 171 l 281 179 q 310 232 289 193 l 342 293 l 358 289 q 310 171 333 242 m 346 160 l 324 167 q 372 286 347 238 l 379 283 q 363 228 376 271 q 346 160 349 185 m 381 151 l 358 157 q 375 224 363 182 q 393 281 389 267 l 400 279 q 381 151 400 232 m 413 144 l 394 149 q 414 275 413 226 l 439 268 q 425 210 432 247 q 413 144 414 146 m 457 136 l 426 142 q 439 207 428 143 q 453 265 444 244 l 465 261 l 465 258 q 461 189 464 246 q 457 136 458 157 m 499 129 q 469 133 485 132 q 475 189 472 156 q 479 257 478 244 l 503 251 q 499 129 499 188 m 531 126 q 513 128 522 126 q 517 247 513 185 l 538 242 q 531 126 531 197 m 574 122 l 544 125 q 551 239 544 194 l 574 233 l 574 122 m 622 119 q 588 121 606 119 l 588 229 l 622 222 l 622 119 m 624 613 l 646 621 l 656 594 q 675 542 669 560 l 664 539 q 624 613 646 575 m 593 600 l 610 607 q 650 533 633 571 l 636 529 l 635 531 q 610 569 624 543 q 593 600 599 592 m 556 586 l 579 596 q 597 564 585 588 q 622 524 611 538 l 585 510 q 556 586 564 556 m 511 569 l 542 581 q 571 504 551 550 l 542 492 q 525 538 536 510 q 511 569 514 561 m 475 556 l 499 564 q 511 532 501 556 q 528 488 524 504 l 528 486 l 511 479 q 504 497 510 483 l 496 517 q 475 556 486 543 m 397 524 l 426 536 q 428 532 426 533 q 469 461 447 490 l 439 446 q 397 524 426 476 m 285 478 l 299 483 q 347 403 315 464 l 328 392 q 304 428 311 415 q 285 478 286 458 m 236 457 l 271 472 q 292 421 274 450 l 315 386 l 297 376 q 265 419 285 392 q 236 457 244 447 m 179 433 l 224 451 q 254 411 232 442 q 285 369 272 385 l 274 363 q 265 356 269 360 l 264 354 q 179 433 210 397 m 386 446 q 371 472 383 450 q 353 506 358 493 l 383 518 q 426 440 415 471 l 397 426 l 397 429 q 394 433 396 431 l 389 442 q 386 446 388 444 m 382 428 l 382 426 q 384 423 383 424 q 385 421 385 422 l 360 408 q 313 489 329 468 l 340 501 q 359 463 346 486 q 378 432 372 440 q 382 428 379 429 m 243 353 q 111 403 182 381 l 165 428 q 243 353 196 392 m 168 338 q 74 347 111 339 q 75 369 75 360 q 139 349 99 365 l 168 338 m 211 336 q 144 361 193 340 q 76 383 101 379 l 76 388 l 93 396 q 97 393 94 394 q 247 335 178 369 q 211 336 232 336 m 264 310 l 258 307 l 218 278 q 158 226 176 247 l 128 240 l 199 279 q 260 310 235 299 l 264 310 m 218 306 l 192 290 q 111 249 129 257 q 64 274 88 260 l 64 275 q 218 306 129 293 m 222 319 q 65 290 132 308 q 69 312 67 297 q 71 331 71 326 l 72 333 q 210 322 114 324 q 215 321 213 322 q 222 319 218 321 m 8 275 q 17 253 7 261 q 31 229 17 236 q 318 110 160 154 q 628 64 476 67 q 635 60 631 61 q 656 59 646 54 q 671 74 667 64 q 711 233 711 168 l 711 235 q 706 254 713 246 q 689 265 699 263 q 490 313 622 276 l 358 346 q 717 497 564 451 q 733 510 728 500 q 735 532 739 521 q 731 540 733 536 q 729 554 732 547 q 708 614 724 575 q 688 671 693 651 q 674 688 685 682 q 653 689 664 693 q 638 676 643 686 q 40 432 328 563 q 24 410 25 425 q 21 397 21 404 q 17 338 21 374 q 8 275 10 283 m 439 538 q 438 540 439 539 l 463 550 q 483 511 472 536 l 492 492 q 499 474 497 478 l 482 467 q 439 538 460 497 "},"=":{"ha":775,"x_min":93,"x_max":793,"o":"m 464 572 l 464 569 q 482 454 467 533 l 468 453 q 457 514 465 471 q 447 572 449 550 l 464 572 m 557 569 l 593 569 q 606 464 597 549 l 583 463 q 578 483 581 471 l 572 500 q 567 518 568 511 q 557 569 557 549 m 543 569 q 553 514 543 547 q 559 495 556 507 q 564 479 563 483 q 569 461 567 469 l 539 458 q 532 517 538 482 q 528 533 531 522 q 524 553 526 544 q 521 571 522 563 q 543 569 533 571 m 507 571 q 518 514 507 568 q 525 457 524 481 l 497 456 q 478 569 481 535 l 478 571 l 507 571 m 433 572 q 443 511 435 549 q 454 453 451 469 l 424 450 l 424 453 q 403 572 407 532 l 433 572 m 364 572 l 375 572 l 389 572 q 410 450 393 532 l 388 449 q 381 464 383 454 q 371 506 375 481 q 364 572 365 533 m 350 572 q 357 504 351 532 q 367 460 361 478 q 372 447 369 453 l 346 446 q 338 506 344 461 q 329 572 331 547 l 350 572 m 315 572 q 324 503 317 549 q 332 446 331 458 l 313 444 q 303 507 307 468 l 297 571 q 315 572 307 572 m 283 571 l 289 507 q 299 444 293 468 q 275 443 286 443 q 267 500 269 465 l 261 569 q 283 571 272 569 m 247 568 l 253 499 q 260 442 256 464 l 236 442 q 231 508 232 467 q 228 567 228 563 q 247 568 236 567 m 214 565 q 217 508 214 561 q 222 442 218 467 q 208 440 215 442 l 208 443 q 190 563 208 481 q 214 565 201 564 m 176 560 q 194 443 194 479 l 194 440 l 172 440 q 161 557 164 508 q 176 560 168 558 m 189 210 q 168 208 178 210 q 151 315 153 310 l 168 315 q 178 274 174 299 q 183 246 179 269 q 189 210 186 222 m 221 213 q 203 211 211 211 q 196 247 200 222 q 192 275 192 272 q 183 317 188 300 q 211 318 197 317 q 215 268 213 296 q 219 240 217 258 q 221 213 221 221 m 267 213 l 235 213 q 232 241 233 222 q 229 269 231 260 q 225 318 226 297 q 260 319 243 318 q 267 213 261 269 m 308 214 l 281 214 q 274 319 275 269 l 300 319 q 308 214 306 235 m 351 213 l 347 213 q 322 214 333 213 q 314 321 319 235 l 338 321 l 338 318 q 344 271 339 308 l 351 213 m 392 213 l 365 213 l 358 272 l 351 321 q 393 322 371 321 q 392 213 390 293 m 433 211 l 406 211 q 407 322 404 294 l 429 322 q 431 264 429 301 q 433 211 432 226 m 472 211 l 447 211 q 444 264 446 226 q 443 322 443 301 l 461 322 q 471 264 469 301 q 472 211 472 250 m 508 211 l 486 211 q 485 265 486 250 q 476 322 483 300 l 500 322 q 503 275 500 304 q 507 214 507 231 q 508 211 507 213 m 558 213 q 526 211 542 211 l 521 211 l 521 214 q 517 276 521 232 q 514 322 514 306 l 553 322 q 558 213 553 269 m 603 214 q 572 213 585 214 q 567 322 567 271 l 579 322 l 592 322 q 597 268 593 304 q 603 214 600 232 m 643 217 l 617 215 q 610 269 614 233 q 606 322 607 304 l 632 322 q 638 265 633 303 q 643 217 642 233 m 699 221 q 700 251 699 229 q 701 290 701 272 q 699 322 701 307 l 732 322 q 733 222 733 300 q 699 221 717 221 m 685 219 q 657 218 672 219 q 651 268 657 225 q 646 322 647 304 l 658 322 l 672 322 l 685 322 q 688 291 688 308 q 686 252 688 274 q 685 219 685 231 m 646 596 q 626 617 642 611 q 607 625 618 625 q 492 626 571 625 q 365 628 414 628 q 249 624 317 628 q 126 608 182 619 q 109 597 115 606 q 104 576 103 588 l 104 569 q 118 429 107 511 q 113 413 113 422 q 121 393 113 401 q 140 385 129 385 q 628 410 314 385 q 647 419 639 411 q 653 440 654 428 l 653 442 q 661 464 663 450 q 646 596 650 568 m 765 167 q 785 175 776 167 q 793 194 793 183 q 789 210 793 203 l 789 211 q 785 364 789 328 q 774 383 783 376 q 754 389 765 390 q 735 378 742 388 q 124 369 294 378 q 100 353 106 368 q 93 331 92 343 q 106 245 97 301 q 117 176 115 189 q 128 158 118 165 q 149 153 138 151 q 156 156 153 154 q 169 153 163 153 q 346 157 238 160 q 526 156 496 156 q 647 161 563 157 q 765 167 724 167 "},">":{"ha":840,"x_min":128,"x_max":858,"o":"m 213 608 q 186 614 200 611 l 203 660 l 217 701 l 225 699 q 222 674 225 688 q 213 608 218 628 m 247 601 q 226 606 236 604 q 236 672 232 626 l 239 694 q 263 688 250 690 q 247 601 257 636 m 296 589 q 260 599 278 594 q 276 683 271 633 l 307 675 q 296 589 297 632 m 328 579 l 310 585 q 321 672 310 628 l 349 665 q 338 621 343 647 l 328 579 m 365 565 l 342 575 q 351 618 342 579 q 363 661 357 644 q 386 656 375 658 q 365 565 374 597 m 408 549 l 379 561 q 400 651 386 593 q 438 638 418 646 q 422 590 433 628 q 408 549 415 564 m 460 526 l 421 544 q 436 586 429 560 l 450 633 l 479 622 q 460 526 467 594 m 496 510 l 474 521 q 492 617 481 593 l 519 606 q 506 553 513 588 q 496 510 499 519 m 535 489 l 508 504 q 510 507 510 506 l 519 550 q 532 600 526 582 l 569 582 q 547 524 561 564 q 535 489 539 501 m 564 474 l 547 483 q 560 519 553 496 q 582 576 574 560 l 608 564 q 564 474 574 501 m 599 453 l 576 467 q 621 558 586 494 l 649 544 q 599 453 629 517 m 544 421 q 158 254 338 349 q 144 238 149 249 q 146 217 140 226 q 142 186 133 203 q 219 36 197 75 q 224 29 221 33 q 256 24 238 15 l 339 61 l 433 101 q 515 142 467 117 q 603 190 563 165 q 668 232 618 200 l 753 286 q 821 322 786 306 q 836 346 836 329 q 838 351 838 349 q 858 482 851 400 q 851 503 860 494 q 838 524 850 517 q 776 551 814 538 q 719 572 732 567 l 649 606 l 569 643 q 495 675 539 657 q 415 704 451 693 q 321 729 393 711 q 232 756 264 743 q 213 756 222 758 l 204 758 q 183 756 193 761 q 171 739 174 750 q 150 678 165 721 q 129 613 135 638 q 129 597 126 606 q 128 594 128 596 q 133 573 126 582 q 151 563 140 564 q 544 421 344 538 m 515 351 q 569 242 556 289 q 572 238 571 239 l 549 222 q 497 344 506 314 l 515 351 m 485 339 q 536 215 493 308 l 518 206 l 518 210 q 490 274 510 232 q 464 332 471 313 l 485 339 m 451 326 q 478 268 458 307 q 504 204 497 228 q 508 200 506 201 l 483 188 l 458 254 q 433 319 440 297 l 451 326 m 372 293 q 422 168 404 236 q 431 163 424 161 q 436 171 438 164 q 385 299 417 240 l 421 314 q 444 249 428 292 q 469 181 463 204 q 389 143 435 163 q 343 281 356 236 l 372 293 m 251 239 q 304 106 279 156 l 286 97 q 267 139 279 111 l 244 186 q 229 228 235 207 l 251 239 m 217 221 q 232 181 222 201 l 256 131 q 274 92 268 104 l 256 85 l 193 210 l 217 221 m 629 396 q 631 399 631 397 q 767 357 703 371 l 742 343 q 629 396 731 347 m 625 438 l 621 436 l 621 438 q 614 443 618 440 l 610 446 q 661 539 642 511 l 697 522 l 701 519 q 625 438 651 474 m 646 442 q 715 514 669 472 q 757 499 724 511 q 786 489 775 493 q 720 466 768 483 q 646 442 672 449 m 633 425 q 725 453 667 432 q 803 479 783 474 l 796 422 q 742 419 779 422 q 688 417 704 417 q 633 419 671 417 l 633 421 l 633 424 l 633 425 m 658 403 q 738 405 685 401 q 793 408 790 408 q 785 367 790 386 q 658 403 725 378 m 346 125 q 349 132 350 128 q 317 211 343 150 q 299 261 304 242 l 331 275 q 376 138 343 231 l 347 124 l 346 125 m 333 135 q 331 126 329 132 l 335 118 l 317 111 q 264 244 292 160 l 285 254 q 304 206 292 235 q 333 135 331 144 m 638 285 q 636 292 639 289 q 592 344 622 313 l 568 371 l 607 383 q 678 304 619 368 l 640 281 l 638 285 m 611 301 q 613 296 611 299 q 628 272 624 281 l 583 244 q 529 357 568 294 l 554 365 l 582 336 q 611 301 601 315 m 625 383 q 726 333 717 338 l 689 311 q 625 383 631 376 "},"?":{"ha":707,"x_min":78,"x_max":722,"o":"m 474 281 l 471 274 q 399 301 436 282 l 399 303 q 400 317 399 310 q 474 281 463 285 m 489 314 l 479 293 q 404 329 469 297 l 403 331 q 407 351 404 340 q 489 314 439 324 m 500 340 l 494 328 q 411 367 442 338 l 415 382 q 500 340 447 357 m 517 376 l 506 354 q 421 396 451 369 l 429 424 q 517 376 485 386 m 529 403 l 525 394 l 522 389 q 435 436 492 399 l 442 456 q 529 403 467 428 m 551 450 l 535 415 q 449 471 469 442 l 456 488 l 471 478 q 492 467 486 469 l 508 460 q 531 452 521 454 q 550 450 540 450 l 551 450 m 569 490 q 472 532 524 518 l 478 543 q 532 515 489 538 l 571 494 l 569 490 m 564 478 l 556 461 q 550 464 554 464 q 533 466 542 464 q 514 472 524 468 l 497 481 q 478 491 490 483 q 460 501 465 499 l 468 519 q 564 478 518 506 m 585 524 l 578 507 q 538 528 565 514 q 482 556 503 547 l 492 579 q 585 524 529 560 m 658 725 q 558 757 604 751 l 557 757 q 564 788 561 774 q 606 776 568 786 q 665 761 644 765 q 658 725 663 744 m 646 681 q 547 725 629 686 l 551 738 l 554 744 q 556 743 554 743 q 654 711 601 738 q 646 681 650 697 m 601 563 l 599 557 l 590 536 q 497 592 536 572 l 507 614 q 553 589 518 608 q 601 563 588 569 m 611 586 l 607 576 q 560 601 594 582 q 511 626 528 619 l 518 642 q 611 586 540 626 m 624 619 q 575 651 607 633 q 556 663 572 653 q 531 676 539 672 l 533 685 q 621 640 576 669 q 631 642 626 636 q 629 651 635 647 q 539 697 582 682 l 543 711 q 642 668 622 674 q 624 619 633 644 m 619 607 l 617 599 q 522 656 546 639 l 526 664 l 568 639 q 619 607 601 621 m 669 818 q 667 775 671 799 q 611 790 647 779 q 565 801 575 800 q 567 817 567 810 q 669 818 611 821 m 650 897 q 556 871 583 875 q 551 868 553 871 q 550 871 551 869 q 638 921 590 888 q 650 897 644 910 m 660 871 q 561 856 621 867 l 560 856 l 560 857 q 656 885 588 861 q 660 871 658 878 m 664 857 l 667 843 l 669 832 q 567 831 611 835 q 565 842 565 836 q 664 857 624 854 m 492 1007 q 463 910 476 953 l 453 913 q 458 1014 453 953 q 492 1007 475 1011 m 588 971 q 553 939 572 960 q 511 894 514 897 q 501 899 507 897 q 506 903 504 900 q 531 953 515 917 q 547 989 542 978 q 588 971 569 981 m 600 964 l 603 961 q 631 932 618 950 q 538 881 579 897 q 525 889 532 885 q 563 929 526 890 q 600 964 583 953 m 444 1015 q 439 915 439 956 q 410 919 425 918 l 410 1021 l 444 1015 m 396 1022 q 396 922 397 997 q 375 924 385 922 q 378 1022 375 978 l 396 1022 m 340 1024 l 364 1024 q 361 925 361 978 l 347 925 q 340 1024 342 974 m 326 1022 q 333 925 328 974 l 310 925 q 296 924 303 924 q 299 931 300 926 q 275 1018 288 982 q 326 1022 300 1022 m 228 1006 q 261 1015 243 1011 q 285 928 274 979 q 289 922 286 924 l 286 922 q 263 958 278 936 l 228 1006 m 215 1001 q 217 999 215 1000 q 251 950 224 988 q 272 919 265 932 l 271 919 q 261 915 265 917 q 189 988 222 947 q 215 1001 200 996 m 132 851 q 133 906 131 883 q 183 892 153 901 l 229 878 l 229 872 q 231 853 229 864 q 181 853 224 856 q 132 851 138 851 m 139 789 q 133 829 135 814 l 133 838 q 184 840 138 838 q 235 839 231 842 q 243 811 238 826 q 139 789 168 799 m 142 775 q 247 797 169 785 q 257 774 251 786 q 200 760 236 768 l 146 746 l 142 775 m 147 732 l 203 746 q 261 761 242 754 l 269 742 q 150 700 190 713 q 147 732 150 714 m 268 40 q 317 129 310 113 q 326 132 322 131 q 269 33 311 94 q 268 40 268 36 m 264 61 l 264 64 q 285 114 264 94 l 299 122 q 264 61 290 106 m 454 63 q 460 15 463 39 q 414 -43 453 -28 l 429 1 q 454 63 443 39 m 446 78 q 417 6 432 50 l 397 -49 q 376 -50 388 -50 q 411 31 390 -24 q 436 92 428 74 q 446 78 442 85 m 425 101 q 399 35 415 79 q 363 -47 376 -22 q 350 -44 356 -46 l 342 -42 q 369 33 347 -15 q 403 115 396 90 q 425 101 415 110 m 390 122 q 357 40 383 97 q 328 -36 335 -7 q 300 -14 313 -28 q 368 128 333 46 l 390 122 m 354 132 q 290 -4 322 53 q 276 18 282 7 q 343 133 325 92 l 349 133 q 354 132 351 132 m 383 182 q 367 189 376 189 q 249 156 292 193 q 208 64 208 121 q 243 -35 208 11 q 333 -97 278 -81 q 454 -85 404 -118 q 514 7 504 -53 q 490 113 524 64 q 383 182 456 163 m 239 915 q 157 950 186 942 q 149 945 151 951 q 154 936 147 939 q 239 900 179 928 l 238 899 q 233 892 235 896 l 188 906 q 136 919 156 915 q 151 956 142 940 q 176 981 161 969 q 239 915 204 946 m 486 214 q 507 219 497 213 q 518 238 517 226 l 518 240 q 575 371 533 281 q 650 535 642 515 q 722 854 742 750 q 692 939 714 896 q 636 1006 669 982 q 518 1057 592 1038 q 367 1079 444 1076 q 212 1059 282 1081 q 107 986 142 1038 q 78 824 68 929 l 89 753 q 96 678 96 701 q 104 658 96 667 q 124 650 113 650 l 129 650 q 156 644 142 640 q 313 697 196 656 q 328 712 324 701 q 329 733 333 722 l 329 735 q 326 753 331 744 q 297 821 313 778 q 286 861 289 846 l 286 865 q 313 869 296 868 q 396 865 349 872 q 478 849 444 860 q 498 840 490 844 q 508 835 506 836 l 510 833 q 499 753 517 815 q 443 604 483 704 q 428 569 439 596 q 413 532 417 543 l 399 497 l 383 460 l 372 426 q 360 392 364 406 q 352 361 357 378 q 345 331 347 344 q 343 306 343 317 q 346 293 343 299 q 358 261 339 272 q 486 214 424 224 m 494 908 q 494 901 492 904 q 476 907 486 904 l 506 1003 l 535 994 q 518 958 528 982 q 494 908 503 924 "},"@":{"ha":1146,"x_min":128,"x_max":1161,"o":"m 553 540 q 558 547 558 544 q 628 640 588 600 q 701 686 669 679 q 735 675 725 693 q 749 582 751 647 q 630 581 674 588 q 553 540 586 574 m 872 174 q 889 181 881 178 q 890 177 890 179 q 892 171 890 175 q 894 164 893 167 q 876 153 886 158 l 872 174 m 858 169 l 864 146 q 847 139 856 142 q 843 165 844 151 q 858 169 851 167 m 829 161 q 833 133 831 150 q 806 124 819 128 q 804 157 806 143 q 829 161 818 158 m 790 154 q 792 121 792 142 l 772 115 l 772 153 q 790 154 782 153 m 758 151 l 758 114 q 740 110 750 111 q 739 150 740 138 q 758 151 749 150 m 725 150 q 726 108 726 138 l 696 106 q 699 149 697 132 q 725 150 714 149 m 658 149 l 665 149 l 685 149 q 682 104 683 132 q 650 103 667 103 q 653 122 651 110 q 656 135 656 133 q 658 149 657 143 m 644 149 q 642 138 643 144 l 635 103 l 607 103 l 607 151 l 644 149 m 593 151 l 593 104 q 567 106 579 106 l 567 107 q 568 154 567 150 l 593 151 m 554 157 q 553 107 553 150 q 525 111 539 108 q 529 161 525 139 q 554 157 542 158 m 515 164 q 511 114 513 140 q 481 119 496 115 q 483 146 481 133 q 488 171 485 160 q 515 164 501 167 m 475 174 q 469 149 471 163 q 467 122 467 136 l 444 128 q 450 163 446 142 l 453 181 q 475 174 464 178 m 440 186 l 436 165 q 431 132 432 146 q 401 142 415 136 q 418 194 410 163 l 440 186 m 406 201 q 388 147 397 168 q 363 158 374 153 q 386 213 376 188 l 406 201 m 374 219 q 350 165 365 194 q 321 183 333 174 q 342 211 328 194 l 358 231 q 374 219 365 225 m 321 265 q 283 217 310 249 q 260 243 271 229 q 301 289 289 271 q 321 265 311 276 m 331 256 q 347 240 339 247 l 331 219 q 310 192 317 203 l 304 196 l 293 206 q 331 256 319 239 m 293 301 q 251 254 281 282 q 232 281 242 267 l 283 319 q 293 301 288 310 m 276 331 q 225 292 226 293 l 208 319 q 267 353 239 343 q 276 331 271 342 m 261 367 q 201 332 233 357 l 197 342 q 190 358 193 350 q 257 381 211 369 q 261 367 260 374 m 254 394 q 186 372 208 383 q 183 397 183 385 q 250 410 219 403 q 254 394 251 403 m 247 438 q 249 424 247 431 l 247 424 q 183 411 218 417 l 183 429 q 247 438 186 429 m 246 451 q 185 443 188 444 q 186 454 186 449 q 246 458 213 458 l 246 451 m 246 472 q 189 469 214 472 l 193 497 l 246 497 l 246 472 m 247 511 l 194 511 q 201 554 197 533 q 251 538 233 544 q 247 511 249 524 m 254 551 q 206 567 236 558 q 211 590 207 579 q 261 579 243 585 q 254 551 257 565 m 264 593 q 215 603 246 597 l 224 632 q 272 618 251 626 l 264 593 m 488 896 l 475 914 q 460 940 465 929 l 497 965 l 510 942 q 522 918 518 926 q 488 896 504 908 m 289 657 q 278 631 283 644 q 229 646 256 640 q 244 683 236 665 q 289 657 268 674 m 296 671 q 251 696 274 686 l 265 724 l 313 703 q 296 671 303 686 m 319 714 l 272 736 l 292 767 l 311 757 l 338 744 q 319 714 328 729 m 346 756 l 317 769 l 299 778 l 321 807 q 364 779 342 797 l 346 756 m 372 790 q 329 818 350 807 q 353 846 340 832 q 370 832 356 843 q 393 814 385 821 l 372 790 m 401 824 q 363 856 401 825 l 375 869 q 408 851 389 864 l 421 843 l 401 824 m 447 867 l 432 853 l 415 864 q 386 879 399 874 l 407 899 q 428 882 411 894 l 447 867 m 458 875 q 435 893 450 883 q 417 907 421 904 l 449 932 q 464 907 454 921 l 475 889 l 458 875 m 550 932 l 539 926 l 535 924 q 522 947 531 933 l 510 972 l 528 982 l 528 981 q 543 947 532 974 l 550 932 m 564 938 l 556 953 l 542 986 l 539 989 l 571 1003 q 594 950 578 976 q 564 938 579 944 m 629 961 q 608 954 619 957 q 583 1010 590 982 q 608 1019 596 1014 q 629 961 618 985 m 656 967 q 643 964 650 965 q 621 1024 632 989 l 638 1029 l 644 1011 q 651 987 647 1000 q 656 967 654 974 m 690 972 q 669 969 681 971 q 664 990 668 976 q 657 1014 660 1003 l 651 1033 q 678 1042 664 1038 q 683 1008 679 1028 l 690 972 m 726 975 q 704 974 715 975 q 697 1011 703 982 q 692 1044 693 1035 q 728 1050 710 1049 q 726 975 729 1000 m 814 964 q 825 1047 821 997 q 835 1044 831 1046 q 825 961 835 990 l 814 964 m 776 972 q 781 1051 779 1015 q 811 1049 796 1051 q 800 968 807 1000 q 776 972 789 971 m 763 974 q 740 975 751 975 q 742 1051 743 1000 q 767 1053 754 1053 q 763 974 765 1017 m 854 950 q 839 956 846 953 q 849 1040 847 988 q 871 1033 860 1038 q 854 950 864 990 m 879 938 q 867 943 874 940 q 885 1028 876 985 l 913 1014 q 879 938 907 994 m 918 911 l 943 960 l 956 982 q 986 953 972 968 q 932 897 951 919 l 918 911 m 907 919 l 890 931 q 925 1006 918 988 l 935 999 l 944 992 l 931 965 l 907 919 m 943 888 q 996 942 961 910 q 1010 924 1003 933 q 958 869 975 897 q 943 888 951 879 m 968 858 q 1018 913 982 885 l 1031 894 q 976 846 1011 874 l 968 858 m 985 835 q 1038 882 1018 861 q 1053 856 1046 869 l 1029 839 q 996 815 1007 824 l 985 835 m 1004 799 l 1001 804 q 1038 828 1014 811 l 1058 843 l 1064 831 q 1004 799 1029 815 m 1010 786 q 1069 818 1035 801 l 1075 806 l 1056 794 q 1014 778 1031 781 l 1010 786 m 1028 740 q 1024 751 1025 746 q 1019 765 1021 758 q 1063 782 1038 769 l 1079 793 l 1086 776 l 1028 740 m 1031 725 l 1090 763 l 1094 749 q 1033 714 1044 719 q 1031 725 1033 719 m 1038 700 q 1099 735 1053 707 q 1106 699 1103 714 q 1067 686 1092 696 q 1040 676 1046 679 q 1038 700 1039 689 m 1042 663 q 1072 674 1050 665 q 1108 685 1094 682 q 1110 663 1110 674 q 1075 657 1097 661 q 1043 654 1054 654 q 1042 663 1043 658 m 1043 640 q 1076 644 1056 640 q 1108 649 1097 647 q 1106 636 1107 642 l 1104 631 q 1074 628 1092 629 l 1044 624 q 1043 640 1044 632 m 1044 610 l 1075 614 q 1101 615 1090 615 l 1096 596 q 1043 594 1057 596 q 1044 610 1043 603 m 1042 581 q 1092 582 1057 582 q 1083 558 1088 569 q 1039 560 1056 558 q 1042 581 1040 569 m 1036 546 q 1078 544 1053 544 l 1069 528 q 1056 529 1058 529 l 1033 529 l 1036 546 m 1029 515 q 1054 515 1039 517 q 1064 514 1058 515 q 1051 492 1057 503 q 1024 499 1033 496 l 1029 515 m 1018 485 q 1044 479 1028 483 q 1028 456 1036 467 l 1010 465 l 1018 485 m 1003 453 l 1021 443 q 1000 418 1011 431 l 988 428 q 1003 453 996 439 m 979 417 q 992 407 985 411 l 969 385 l 957 392 q 979 417 968 403 m 946 382 q 958 375 950 379 q 936 354 947 364 q 925 365 931 361 q 946 382 936 374 m 914 358 q 925 346 918 353 l 918 342 l 906 333 q 897 349 900 340 q 914 358 906 353 m 885 342 q 894 325 889 333 l 872 311 l 864 335 q 885 342 875 338 m 851 331 l 861 304 q 835 292 847 297 l 838 326 q 851 331 844 328 m 824 325 l 821 286 q 786 275 803 279 l 799 303 q 813 331 808 324 q 824 325 817 326 m 803 360 q 803 346 800 353 l 803 344 q 786 308 799 335 q 772 279 776 290 q 769 317 771 289 l 771 317 q 786 331 781 321 q 788 353 792 342 q 786 356 786 354 l 803 360 m 843 540 q 831 541 839 540 q 821 542 824 542 q 810 543 815 542 q 811 546 811 544 q 803 569 813 560 l 803 571 q 846 565 818 569 q 843 540 844 554 m 846 621 q 834 622 842 621 q 825 622 826 622 q 804 624 813 624 q 800 651 803 639 q 842 653 826 651 q 846 621 844 638 m 846 607 q 846 579 847 593 q 804 583 819 583 l 804 610 q 824 608 813 608 q 831 608 826 608 q 839 607 836 607 l 846 607 m 808 753 q 763 726 786 742 q 750 735 757 732 q 788 778 763 751 q 808 753 799 768 m 828 711 q 785 699 815 708 l 783 703 q 774 717 779 710 q 815 740 796 731 q 828 711 822 728 m 840 665 l 797 665 q 792 686 794 676 q 832 697 819 694 q 840 665 836 683 m 775 786 q 738 740 750 758 l 726 743 q 742 774 732 753 l 751 794 q 775 786 765 793 m 676 785 q 685 749 679 765 q 694 744 688 742 q 699 751 700 746 q 689 789 693 769 q 738 797 715 797 q 710 744 715 751 q 688 740 700 743 q 663 731 675 738 q 650 772 661 736 q 676 785 664 779 m 638 765 q 650 725 646 735 q 631 713 640 719 q 610 749 617 733 q 638 765 624 758 m 597 740 q 619 704 606 725 q 592 681 606 694 q 568 718 576 700 q 597 740 583 731 m 557 710 q 582 671 567 692 l 563 649 q 533 689 551 667 l 557 710 m 524 681 q 553 638 542 656 l 536 615 q 499 656 511 644 l 524 681 m 489 646 q 528 604 500 635 l 522 596 q 472 629 496 617 l 489 646 m 614 444 q 617 446 614 446 q 650 450 628 450 q 740 440 711 450 q 631 433 688 408 q 614 444 619 438 m 735 404 q 740 365 738 393 q 719 360 729 363 q 715 397 717 383 q 735 404 725 400 m 667 393 q 669 357 667 372 q 678 351 671 350 q 683 360 685 353 q 681 393 681 374 q 701 394 692 393 q 706 356 703 381 q 644 350 674 349 q 646 396 646 365 q 667 393 656 394 m 632 400 q 631 350 632 365 q 604 356 617 351 q 619 404 610 376 q 632 400 625 401 m 607 411 q 592 360 597 382 l 589 361 q 572 371 579 365 q 599 417 579 386 l 607 411 m 589 426 q 561 379 568 394 q 544 410 547 393 l 544 411 q 558 417 550 413 l 572 425 q 586 431 579 428 q 589 426 588 428 m 582 446 l 582 444 l 581 444 l 542 425 q 551 458 542 442 q 582 446 561 453 m 621 478 q 607 507 613 492 q 640 519 622 514 q 649 481 643 501 q 621 478 633 481 m 607 475 l 606 475 q 585 460 592 469 q 560 469 568 465 q 594 500 572 488 q 607 475 600 486 m 676 481 l 663 481 q 654 522 657 503 l 668 525 q 676 481 672 494 m 707 479 q 690 481 699 479 q 682 526 686 494 q 708 528 694 528 q 707 479 707 508 m 761 465 q 763 525 761 508 q 771 522 767 522 l 775 522 q 771 465 771 499 l 768 463 l 761 465 m 747 471 q 721 476 735 475 q 722 528 721 508 q 749 526 735 528 q 747 471 747 508 m 785 469 q 832 457 813 461 l 829 438 q 789 442 813 442 q 789 463 799 453 q 785 465 786 464 l 785 469 m 785 403 l 785 428 q 828 424 810 428 l 825 404 q 805 403 818 404 q 785 403 792 403 m 781 368 q 783 389 782 378 q 804 390 790 389 q 824 390 818 390 l 822 383 l 822 379 q 811 374 815 378 q 806 375 808 375 l 781 368 m 771 399 q 769 396 769 397 l 769 393 q 768 369 769 381 q 754 369 761 372 q 749 410 751 397 q 771 424 760 415 l 771 399 m 931 232 q 916 248 926 243 q 894 249 906 253 q 882 239 888 246 q 813 215 851 224 q 745 206 775 207 q 665 204 715 204 q 383 282 472 204 q 303 430 317 342 q 326 604 290 518 q 426 767 361 693 q 564 876 490 842 q 833 899 719 950 q 971 735 932 853 q 979 544 1004 640 q 881 403 954 447 q 888 451 882 418 q 894 506 893 483 l 900 556 q 903 611 903 585 q 897 663 901 639 q 813 829 876 785 q 671 842 754 868 q 540 768 607 821 q 421 654 474 715 q 417 647 418 651 q 399 631 404 643 q 399 609 394 619 q 415 594 404 599 q 507 536 453 581 q 538 533 521 525 q 549 538 543 533 q 486 424 486 492 q 508 357 486 388 q 567 310 529 326 q 715 301 628 283 q 718 264 715 279 q 707 242 707 256 q 715 222 707 231 q 735 214 724 214 l 750 214 q 763 215 756 213 q 951 297 847 222 q 1085 440 1031 353 q 1161 625 1140 526 q 1149 758 1172 678 q 967 1044 1094 953 q 628 1085 822 1147 q 300 870 433 1022 q 139 518 167 718 q 135 489 139 514 q 130 455 131 464 q 128 423 129 446 q 128 386 126 400 q 135 353 131 372 q 147 317 139 333 q 268 154 196 217 q 413 81 322 107 q 603 49 503 53 q 796 64 704 43 q 944 132 888 85 q 951 165 961 146 q 950 168 951 167 q 931 232 942 200 m 789 511 l 788 511 q 790 524 789 517 q 801 529 797 525 q 821 528 810 529 q 831 527 824 528 q 842 526 838 526 q 835 471 839 507 q 790 483 815 475 l 785 483 q 786 497 786 490 q 806 494 804 494 l 813 494 l 826 494 q 833 501 833 494 q 826 508 833 508 l 813 508 l 806 508 l 789 511 "},"A":{"ha":793,"x_min":11,"x_max":811,"o":"m 147 417 l 136 386 q 118 339 126 356 q 147 417 125 381 m 118 281 q 117 303 117 292 l 117 306 q 119 310 119 307 q 150 381 133 333 q 176 451 171 439 q 189 464 182 458 q 118 281 157 365 m 149 194 q 193 344 158 243 q 238 497 228 444 q 261 508 249 503 q 211 360 246 454 q 151 189 163 226 l 149 194 m 138 213 q 122 256 128 233 q 208 479 171 357 l 222 488 q 179 349 213 444 q 138 213 149 260 m 738 -3 q 736 -50 736 -26 l 707 -50 l 717 -33 q 738 -3 729 -12 m 738 21 q 706 -26 724 6 l 692 -50 l 660 -50 l 701 0 l 739 47 q 738 21 738 33 m 740 97 l 740 72 l 690 10 l 643 -50 l 632 -50 l 632 -43 l 632 -36 q 658 -8 636 -32 l 689 28 q 716 60 700 40 q 740 97 732 81 m 743 133 l 742 132 q 733 113 739 122 l 722 94 q 710 74 718 86 q 696 56 701 63 l 679 36 q 664 19 668 24 q 647 1 660 15 q 632 -17 633 -14 l 631 7 q 629 13 631 10 l 664 51 q 693 83 688 76 q 743 147 725 121 l 743 133 m 747 211 l 746 176 q 683 93 726 142 l 622 25 l 621 26 q 611 39 618 35 q 671 118 632 72 q 747 211 739 200 m 749 236 q 660 128 735 217 q 597 43 619 78 l 596 43 l 590 43 l 625 101 q 665 168 653 149 q 703 220 678 188 q 751 274 728 253 l 749 236 m 733 722 q 736 710 735 715 q 631 581 711 672 q 622 601 631 593 q 733 722 686 665 m 729 739 q 618 618 692 690 q 617 636 618 626 q 721 763 675 717 q 729 739 725 751 m 717 778 q 714 776 715 776 q 613 654 668 729 l 610 668 q 708 799 678 763 q 717 778 713 788 m 692 833 q 701 813 697 824 q 606 686 668 775 l 603 697 q 649 769 615 714 q 692 833 674 813 m 685 846 q 636 776 665 825 q 597 714 607 728 l 594 724 q 640 794 617 747 q 676 860 665 843 l 685 846 m 669 872 q 628 801 654 854 q 589 739 607 760 l 585 749 l 582 757 l 603 786 l 625 819 q 642 850 632 832 l 661 885 l 669 872 m 639 915 l 647 903 l 651 899 q 650 897 651 897 q 575 772 636 864 l 564 794 l 590 844 q 639 915 617 894 m 629 925 q 578 850 606 903 q 556 808 560 815 l 551 814 q 581 874 567 847 q 606 919 594 901 q 618 938 613 931 l 629 925 m 608 947 q 593 926 601 939 q 568 881 582 908 l 542 826 l 532 839 l 597 956 l 608 947 m 556 985 q 586 965 571 976 l 521 849 q 499 865 511 858 q 556 985 510 897 m 543 990 q 488 874 499 904 l 474 879 q 489 919 475 885 q 526 997 508 972 q 543 990 535 994 m 493 1004 q 513 1001 503 1004 q 475 924 494 975 q 460 883 461 885 q 439 888 450 886 q 493 1004 475 975 m 447 1006 l 478 1006 q 425 888 461 978 q 401 886 414 888 q 447 1006 406 903 m 404 1001 l 432 1004 q 386 885 393 911 q 376 882 381 883 l 404 1001 m 390 999 q 360 878 364 892 q 336 868 349 874 q 376 996 372 983 l 390 999 m 329 982 q 360 992 344 988 q 336 919 350 967 l 319 861 l 307 856 l 317 910 l 321 933 l 325 958 q 329 982 328 971 m 314 975 q 308 941 311 964 q 303 911 304 918 q 290 846 296 872 l 278 839 l 269 833 q 282 890 272 851 q 299 969 296 942 q 314 975 306 972 m 247 942 l 251 944 l 263 950 q 256 917 260 939 q 253 890 253 894 q 244 818 246 847 l 229 806 q 247 939 232 883 l 247 942 m 183 903 l 219 925 q 164 746 208 894 l 160 740 q 171 829 161 772 l 183 903 m 168 894 q 158 833 167 889 q 146 746 149 776 l 128 771 q 139 835 136 824 q 157 888 147 868 l 168 894 m 115 861 l 136 875 q 125 838 131 860 q 115 786 122 821 l 103 804 l 115 861 m 99 849 l 92 819 l 81 836 l 99 849 m 636 335 q 638 353 638 343 q 756 511 724 475 l 756 468 q 754 471 756 469 q 744 469 749 475 q 636 335 696 413 m 635 276 q 636 311 636 293 q 756 461 703 399 l 757 463 q 756 422 757 443 l 635 276 m 632 221 q 754 361 699 308 l 754 346 q 719 303 743 331 q 686 263 696 276 q 629 183 664 235 l 632 221 m 633 244 l 633 254 l 756 400 l 756 379 l 754 379 q 633 244 697 326 m 625 153 q 697 254 676 226 q 725 289 707 267 l 753 321 q 751 294 753 308 q 698 236 725 271 q 656 178 671 201 l 611 106 l 574 43 q 544 44 558 43 q 617 140 575 81 l 619 144 q 625 153 624 147 m 574 182 q 360 197 460 154 q 264 282 272 236 q 303 354 257 318 q 431 406 353 393 q 582 393 508 419 q 574 182 582 275 m 631 435 q 610 443 622 443 l 608 443 q 751 590 651 500 l 754 531 q 638 378 715 488 l 638 415 l 638 421 l 658 447 l 681 475 l 703 497 q 727 524 715 513 q 750 546 739 536 q 751 556 756 551 q 742 557 746 561 q 631 435 707 526 m 557 122 q 593 129 575 125 q 526 44 557 79 l 522 44 q 557 122 532 76 m 540 119 q 508 46 517 76 l 472 49 q 486 83 476 63 q 501 117 501 115 q 540 119 521 117 m 486 117 l 474 89 q 458 50 463 65 q 419 56 438 53 l 438 79 q 465 117 456 103 l 486 117 m 368 135 q 364 131 364 133 q 347 71 361 106 q 310 82 328 75 l 344 143 q 368 135 356 139 m 418 122 q 450 118 433 119 l 426 88 l 403 58 l 396 60 q 406 88 399 69 q 418 122 415 114 m 404 125 q 392 93 401 117 q 382 63 385 74 q 361 67 371 64 q 378 128 374 103 q 376 132 378 131 q 404 125 390 128 m 308 161 q 332 149 319 156 l 297 86 l 289 89 q 299 126 292 103 q 308 161 306 150 m 296 168 l 286 131 q 276 94 279 108 q 256 104 265 100 l 265 131 q 279 179 276 160 q 296 168 286 174 m 267 188 q 265 185 265 186 q 253 135 264 165 l 243 111 q 224 124 233 118 q 254 197 238 168 l 267 188 m 219 242 q 243 208 228 224 q 211 132 226 178 q 188 151 199 142 q 201 194 192 168 l 219 242 m 211 321 q 208 271 204 296 l 211 263 l 189 199 q 176 161 181 176 q 165 174 171 167 l 163 175 q 211 321 176 228 m 265 396 q 217 335 232 368 l 225 356 q 276 515 263 457 l 282 518 l 283 518 q 264 401 282 503 q 265 396 264 397 m 318 429 l 335 483 q 347 539 346 519 q 372 546 360 543 l 343 479 q 322 431 331 447 l 318 429 m 279 406 q 297 524 296 499 q 333 536 315 531 q 321 488 331 518 q 303 421 306 440 l 279 406 m 428 463 l 429 464 q 457 517 438 485 q 483 560 481 556 l 508 560 l 435 463 l 428 463 m 394 456 q 424 554 419 524 q 467 558 444 557 l 446 524 q 415 469 425 492 q 419 461 414 464 l 394 456 m 378 451 q 342 439 360 446 l 357 475 q 390 549 379 528 q 408 551 400 550 q 378 451 406 528 m 472 467 q 454 465 463 465 l 525 560 l 526 560 l 494 504 q 472 467 474 468 m 519 465 q 582 557 543 503 l 599 554 l 607 554 l 524 464 q 519 465 521 464 m 489 467 q 539 556 533 544 q 540 560 540 557 q 565 558 553 558 l 503 465 q 489 467 496 467 m 571 456 q 540 463 556 460 q 739 690 678 606 l 744 657 q 700 610 729 638 q 643 554 651 563 q 571 456 615 524 m 594 449 q 585 451 590 450 q 654 546 628 515 q 710 600 664 557 q 746 638 733 621 q 750 608 749 624 q 594 449 639 508 m 224 896 q 214 793 215 847 l 185 768 q 224 896 213 863 m 267 888 q 276 958 276 956 l 283 963 q 269 894 281 939 l 267 888 m 19 857 q 11 837 11 849 q 18 817 11 825 q 31 810 24 811 q 78 746 46 786 q 121 685 108 706 q 142 672 128 674 q 146 669 143 671 q 167 667 156 664 q 183 679 178 669 q 232 735 199 704 q 306 792 265 767 q 451 828 399 847 q 533 728 501 810 q 563 614 554 678 q 261 569 397 625 q 115 467 169 533 q 61 303 60 400 q 124 135 64 201 q 576 -12 257 -8 l 576 -60 q 582 -76 576 -69 l 582 -78 q 590 -97 582 -89 q 610 -106 599 -106 l 761 -106 q 779 -99 771 -106 q 789 -82 788 -92 q 792 -69 792 -76 q 801 173 792 13 q 811 467 811 333 q 792 715 811 600 q 692 936 769 835 q 481 1061 599 1058 q 224 992 342 1064 l 174 964 q 119 931 139 943 l 69 897 q 19 857 42 876 "},"B":{"ha":753,"x_min":31,"x_max":763,"o":"m 711 126 q 631 -26 696 33 q 567 -72 603 -54 q 638 28 592 -31 l 711 126 m 715 182 q 714 156 715 168 q 626 36 701 138 q 544 -82 572 -33 q 515 -92 529 -87 l 551 -36 q 625 71 597 38 q 663 117 628 75 q 715 182 699 158 m 207 463 q 228 460 217 456 q 86 253 156 346 l 88 313 q 154 403 107 349 l 207 463 m 182 -96 q 190 -107 185 -103 l 190 -128 q 165 -129 179 -129 q 182 -96 172 -112 m 186 604 l 182 528 q 133 469 164 508 l 90 415 l 92 475 q 186 604 132 544 m 186 625 q 92 503 136 572 l 93 528 l 189 665 l 186 625 m 190 692 l 189 690 l 93 553 l 93 579 l 147 658 q 192 732 175 701 l 190 692 m 196 818 q 193 763 194 792 l 193 761 q 135 667 172 722 l 94 604 q 96 678 94 642 q 150 754 118 707 l 196 818 m 196 844 l 139 763 l 96 700 l 96 740 l 144 814 q 199 892 178 865 q 196 844 197 869 m 200 951 q 199 915 200 933 q 164 869 182 894 l 128 814 l 96 765 q 97 832 97 799 q 144 888 114 850 q 200 951 181 932 m 200 972 q 135 897 176 949 l 97 853 l 97 896 q 201 1015 164 968 q 200 972 200 994 m 253 1103 q 235 1124 249 1118 q 154 1133 203 1135 q 119 1132 143 1133 q 82 1131 94 1131 q 54 1108 60 1131 q 43 1086 43 1100 q 31 246 43 896 q 35 47 29 174 q 42 -142 42 -111 q 32 -162 32 -150 q 40 -182 32 -174 q 60 -190 49 -190 q 138 -186 86 -190 q 213 -183 188 -183 l 214 -183 l 215 -183 q 235 -176 226 -183 q 244 -157 244 -168 l 246 -126 q 485 -153 374 -161 q 669 -68 586 -146 q 759 86 736 -4 q 763 263 782 176 q 685 424 743 349 q 546 536 628 499 q 391 560 469 565 q 238 524 313 554 q 257 1088 257 926 q 253 1103 257 1096 m 196 472 q 144 411 185 457 q 89 342 107 369 l 90 394 l 92 396 q 138 453 108 415 q 181 506 167 490 l 181 499 q 196 472 179 481 m 197 1076 q 201 1075 199 1075 l 201 1036 q 197 1033 199 1035 q 99 917 160 986 l 99 946 q 197 1076 158 1036 m 153 1078 l 156 1078 l 179 1078 q 99 971 144 1040 l 99 1019 q 153 1078 129 1056 m 132 1078 q 99 1042 117 1063 l 99 1075 q 132 1078 103 1075 m 231 110 q 228 161 229 124 l 225 219 q 228 265 225 238 q 238 313 231 293 q 290 352 256 335 q 360 376 325 369 q 485 329 432 392 q 540 176 535 268 q 503 40 546 86 q 361 24 456 -10 q 231 110 304 43 m 175 93 l 175 83 q 183 64 175 72 q 203 56 192 56 l 207 56 l 96 -60 q 93 -14 94 -39 l 96 -14 q 143 50 113 4 q 175 93 163 78 m 174 113 q 131 57 156 94 q 93 4 106 18 l 90 50 l 90 51 q 132 104 106 74 l 172 150 q 174 113 174 119 m 171 171 l 122 114 q 89 74 101 90 q 88 121 88 100 l 89 119 q 99 121 93 115 q 132 158 107 131 l 171 200 l 171 171 m 174 276 q 171 221 171 251 q 126 170 156 203 q 88 129 96 138 q 86 164 86 149 l 88 165 q 174 276 128 213 m 228 379 q 190 343 206 363 q 186 336 188 340 l 186 335 q 178 307 182 322 q 86 185 129 236 l 86 228 q 251 469 167 336 q 301 488 275 481 l 228 379 m 322 425 q 363 501 350 472 q 406 506 385 504 l 369 460 l 347 431 q 322 425 335 429 m 303 418 q 257 397 279 410 l 321 493 l 346 499 q 303 418 335 474 m 458 419 q 511 490 482 460 q 524 486 518 489 l 529 483 q 471 413 489 432 q 458 419 465 415 m 417 432 l 439 461 q 467 503 457 485 q 497 496 483 500 q 446 424 468 464 q 417 432 432 429 m 514 379 q 483 404 499 393 q 542 476 501 425 q 565 463 553 471 l 514 379 m 547 335 l 567 364 l 592 397 q 610 428 601 413 q 622 415 615 421 q 594 369 614 396 l 574 342 q 557 319 560 324 q 547 335 553 328 m 539 347 l 528 364 l 524 368 l 576 456 q 599 438 588 447 q 583 408 592 422 q 559 375 574 394 q 539 347 544 356 m 579 264 q 651 379 625 344 q 663 361 657 371 q 583 251 631 324 q 579 264 582 257 m 574 282 q 564 306 569 294 q 584 333 569 314 q 607 361 599 351 q 632 403 624 385 q 642 390 638 397 q 574 282 615 354 m 596 179 q 589 232 594 206 q 669 349 639 313 q 690 307 681 329 q 596 179 653 267 m 596 157 q 600 160 599 158 q 696 292 660 254 q 704 265 700 279 q 675 217 693 242 q 631 163 657 193 l 594 118 l 593 117 q 596 157 596 136 m 521 -17 q 543 1 532 -8 q 585 79 572 32 q 606 110 596 97 q 638 149 615 122 q 678 199 661 176 q 708 244 696 222 q 714 204 713 225 q 683 164 700 185 l 647 119 l 614 79 q 540 -28 586 46 q 496 -96 511 -74 q 482 -97 489 -97 q 450 -99 465 -99 l 489 -54 l 521 -17 m 442 -44 q 488 -35 467 -43 l 478 -46 l 432 -99 q 406 -97 419 -99 q 442 -44 422 -69 m 424 -44 q 393 -94 407 -68 q 392 -97 392 -96 l 369 -94 q 396 -43 388 -62 q 424 -44 410 -44 m 382 -40 q 354 -93 374 -57 l 313 -85 q 329 -60 319 -75 l 347 -31 q 382 -40 365 -36 m 335 -26 l 317 -53 q 297 -82 306 -71 q 269 -75 283 -78 q 318 -19 296 -47 q 335 -26 326 -24 m 290 -6 q 306 -14 297 -10 q 254 -71 281 -43 l 246 -68 l 290 -6 m 278 1 l 232 -64 l 217 -60 q 208 -58 213 -58 q 265 10 233 -24 l 278 1 m 254 18 q 149 -131 181 -58 l 135 -132 q 104 -133 113 -133 l 235 32 q 254 18 244 24 m 225 40 l 97 -119 q 96 -79 97 -100 l 217 47 l 225 40 m 424 504 l 425 506 q 451 504 439 506 q 428 469 443 490 q 401 435 404 439 q 367 435 385 436 l 381 451 l 424 504 "},"C":{"ha":890,"x_min":-31,"x_max":904,"o":"m 736 767 l 775 804 q 765 756 771 781 l 736 767 m 722 771 l 697 779 q 785 876 725 817 q 779 831 783 853 q 722 771 760 807 m 749 892 l 772 883 q 683 785 713 824 l 658 792 q 749 892 692 833 m 735 897 q 644 796 678 839 q 621 803 632 800 q 663 856 635 824 q 707 906 700 897 l 735 897 m 692 908 q 651 864 690 907 q 606 806 621 831 q 589 810 597 808 q 675 913 640 879 l 675 914 l 692 908 m 622 925 l 658 917 q 574 813 625 883 l 543 818 q 582 869 554 835 l 622 925 m 607 928 l 571 879 q 528 819 540 840 q 496 822 511 822 q 529 872 507 842 q 572 933 563 917 l 607 928 m 557 936 q 518 881 549 922 q 481 824 492 846 q 449 822 464 824 q 476 858 463 839 l 507 903 q 532 939 524 928 l 557 936 m 485 946 q 517 942 501 943 l 492 903 q 457 856 471 874 q 428 821 443 838 q 393 815 410 819 q 485 946 460 900 m 425 950 q 469 947 446 949 q 371 810 447 907 q 307 783 336 800 q 297 778 301 781 l 308 793 q 342 842 319 808 q 384 901 365 876 q 424 946 403 926 q 425 950 425 949 m 50 621 q 140 760 78 658 q 242 911 204 863 q 274 929 257 922 q 135 736 219 861 l 44 597 q 50 621 47 608 m 71 675 q 136 796 97 738 q 199 876 171 847 q 129 768 171 836 l 71 675 m 31 535 l 33 554 q 146 729 78 628 q 299 938 247 876 q 342 947 318 944 q 31 535 243 801 m 22 451 q 26 508 22 479 q 360 949 260 799 q 407 950 382 951 q 370 906 389 931 q 331 849 351 881 l 297 801 q 22 451 238 719 m 24 382 q 85 460 43 410 q 157 547 138 522 l 149 518 q 29 346 106 442 l 24 382 m 22 404 l 22 429 l 190 639 q 168 583 179 615 q 163 581 164 583 q 75 469 140 546 q 22 404 39 426 m 49 267 l 136 381 q 143 338 138 358 q 106 290 129 322 q 61 233 78 251 q 49 267 54 250 m 43 283 q 32 328 36 306 q 33 329 33 328 q 140 476 99 411 q 135 401 135 438 q 43 283 75 322 m 92 174 l 86 183 q 67 219 75 200 q 117 282 86 239 l 147 321 q 157 293 151 307 q 92 174 124 224 m 124 131 q 100 161 111 144 q 164 278 132 211 q 186 243 174 260 q 124 131 174 222 m 160 93 q 199 154 172 115 q 228 200 219 186 q 242 190 235 194 q 163 90 200 144 l 160 93 m 149 103 q 133 119 142 110 l 194 232 q 217 208 206 219 l 186 163 q 149 103 161 125 m 201 61 q 174 82 188 71 q 253 182 211 136 q 269 172 261 176 q 236 117 258 153 l 203 64 q 201 61 201 63 m 256 33 q 213 54 233 42 l 214 56 q 247 109 224 72 q 282 167 271 146 q 297 160 289 163 q 256 33 288 107 m 300 18 q 344 144 310 65 q 382 139 363 140 q 313 15 342 63 q 300 18 306 17 m 288 21 q 268 28 278 25 q 310 154 301 101 q 331 149 321 151 q 288 21 297 71 m 356 7 l 326 13 q 397 138 356 60 q 411 136 404 136 q 356 7 358 13 m 415 6 q 474 138 467 118 q 535 146 503 140 q 454 8 504 99 q 415 6 435 6 m 400 6 q 371 7 385 6 l 403 81 q 426 136 424 129 l 458 136 q 400 6 456 129 m 501 17 q 472 11 486 13 q 553 150 521 100 l 558 151 q 535 96 550 129 q 501 17 510 38 m 572 35 q 624 172 603 96 q 683 200 653 183 q 615 51 650 138 q 572 35 593 42 m 553 29 q 518 19 535 24 q 547 90 525 38 q 575 156 565 131 q 593 161 583 158 q 608 165 600 163 q 553 29 586 90 m 676 78 l 643 63 l 633 58 q 707 213 671 149 l 721 221 q 676 78 711 156 m 736 110 q 757 182 746 139 l 775 257 l 819 290 l 821 288 q 746 115 776 196 l 736 110 m 717 99 l 696 88 q 736 231 729 168 l 757 244 l 743 186 q 717 99 729 133 m 829 182 l 836 197 q 843 219 840 210 l 849 203 q 829 182 840 192 m 807 160 q 765 128 788 143 q 828 269 792 194 l 836 244 q 822 203 832 226 q 815 183 821 197 q 807 160 810 168 m 903 182 q 904 214 915 197 q 903 217 903 215 q 861 339 874 306 q 856 350 860 346 l 854 354 q 840 369 850 364 q 818 368 829 374 q 801 346 803 363 l 728 292 q 658 249 700 272 q 576 214 615 225 q 390 194 471 185 q 258 247 308 203 q 194 365 207 292 q 217 553 182 438 q 335 736 267 697 q 432 767 379 761 q 547 761 485 774 q 653 735 610 749 q 764 697 696 722 q 778 689 769 690 q 799 692 789 686 q 811 708 810 697 q 843 896 835 807 q 837 917 844 908 q 818 926 829 925 l 815 926 l 810 929 q 483 1001 681 979 q 251 979 338 1017 q 164 919 201 957 q 89 826 126 881 q -14 595 17 718 q -30 359 -44 472 q 38 154 -15 246 q 184 6 94 60 q 397 -51 274 -47 q 665 13 519 -54 q 802 85 746 47 q 903 182 858 124 "},"D":{"ha":728,"x_min":-8,"x_max":746,"o":"m 614 -57 q 590 -58 600 -58 l 619 -25 q 651 13 642 0 l 688 58 q 686 38 686 47 q 653 -8 676 21 q 614 -57 624 -42 m 667 -54 q 686 -28 676 -40 l 686 -53 q 667 -54 676 -54 m 649 -56 q 635 -57 643 -56 l 632 -57 q 663 -17 640 -44 q 686 13 678 1 l 686 -6 q 649 -56 667 -28 m 571 -10 l 569 1 q 565 13 568 7 q 688 153 626 100 l 688 121 l 681 113 l 660 90 l 607 32 q 571 -10 582 6 m 564 1006 q 558 1047 561 1029 l 601 1047 q 564 1006 582 1031 m 567 964 q 565 985 567 975 q 624 1047 594 1025 l 635 1047 l 567 964 m 569 907 q 568 931 568 919 q 676 1047 629 988 l 686 1047 q 685 1038 685 1042 l 678 1026 q 654 992 663 1001 q 604 942 642 975 q 569 907 581 921 m 569 861 l 569 885 q 613 932 583 904 q 665 983 651 967 q 681 1006 672 992 q 679 988 679 997 q 632 926 667 963 q 569 861 579 874 m 569 808 l 569 838 q 585 858 576 847 q 601 876 594 869 q 622 897 607 883 l 642 917 q 678 958 665 940 q 676 929 676 944 q 626 864 664 901 l 600 839 l 569 808 m 569 769 l 569 788 l 636 854 q 676 901 663 881 l 676 883 q 569 769 606 803 m 569 729 l 569 751 q 676 863 610 786 l 676 844 q 569 729 624 806 m 568 689 l 568 704 q 676 828 621 783 q 678 807 678 817 q 617 742 653 783 l 568 689 m 568 647 l 568 668 l 626 732 q 679 789 658 768 q 681 747 679 771 q 619 694 667 733 q 568 647 586 665 m 528 31 l 497 22 q 589 153 536 89 q 689 251 646 224 l 689 217 q 528 31 596 135 m 557 25 q 544 31 551 29 q 689 197 607 124 l 689 171 q 557 25 622 117 m 582 399 q 583 429 582 414 q 633 489 596 447 q 689 563 672 535 l 689 542 q 629 461 674 518 q 582 399 597 424 m 581 351 q 582 371 582 361 q 639 453 599 403 q 689 517 678 500 q 690 479 690 499 q 682 476 686 481 q 581 351 633 422 m 581 308 l 581 328 q 690 465 638 407 l 690 413 q 638 361 674 397 q 581 308 601 325 m 581 251 l 581 292 q 585 293 583 292 q 647 351 608 313 q 690 393 678 382 l 690 372 q 581 251 635 322 m 528 456 q 525 203 525 369 l 525 201 q 403 117 464 139 q 299 106 342 94 q 226 149 257 117 q 188 226 196 182 q 204 321 179 271 q 289 408 229 371 q 326 426 306 418 q 361 438 346 433 q 402 445 376 442 q 441 449 428 449 q 485 452 454 450 q 528 456 517 454 m 585 489 q 688 608 646 568 l 688 583 q 683 579 685 583 q 622 499 667 549 q 583 453 594 467 q 585 485 583 469 l 585 489 m 579 504 l 571 510 q 629 582 589 536 l 686 651 l 686 643 l 686 626 q 579 504 642 585 m 586 219 l 582 224 q 581 225 582 225 l 581 228 q 582 229 582 228 q 690 353 636 303 l 690 321 l 640 272 l 586 219 m 515 118 q 585 185 551 146 q 592 204 592 193 q 650 263 610 224 l 690 301 q 689 267 690 285 q 578 163 642 240 q 479 17 518 88 l 447 8 q 475 54 457 24 q 515 118 501 100 m 424 65 q 483 94 454 76 l 464 61 q 426 3 440 19 q 392 -4 408 -1 q 424 65 421 51 m 372 50 q 408 58 390 53 q 392 23 404 46 q 375 -7 379 0 l 375 -8 q 347 -11 360 -10 q 372 50 369 42 m 321 47 q 357 49 339 46 q 343 14 353 36 q 331 -12 333 -8 q 290 -12 310 -14 q 321 47 313 33 m 289 51 l 306 49 l 275 -12 q 256 -8 265 -11 l 274 22 q 289 51 283 39 m 253 64 l 275 56 q 261 29 271 44 q 240 -6 243 -1 q 232 -4 236 -6 l 210 4 q 253 64 232 31 m 228 78 q 240 69 233 74 q 196 10 219 36 q 171 22 183 15 q 197 50 178 29 q 228 78 215 68 m 186 111 q 215 85 200 97 q 188 60 204 76 q 158 31 167 38 q 129 56 143 42 q 165 90 142 65 q 186 111 178 104 m 136 206 l 106 193 q 58 169 76 179 q 51 197 54 183 q 133 222 85 203 l 136 206 m 144 179 q 72 133 96 144 q 63 157 68 144 q 111 181 81 167 l 140 192 q 144 179 142 185 m 160 144 q 94 96 126 118 q 79 121 86 108 q 150 165 103 132 q 160 144 154 156 m 168 133 l 176 122 q 156 100 169 115 q 119 65 132 75 q 103 85 111 74 q 168 133 135 107 m 179 385 l 125 404 q 92 417 104 413 l 103 433 q 193 401 157 419 l 179 385 m 161 358 q 61 360 117 363 q 83 406 69 383 l 119 392 q 171 372 168 374 q 161 358 165 365 m 143 318 q 49 317 76 319 q 56 346 51 331 q 154 344 111 349 q 143 318 147 332 m 133 279 q 44 269 93 278 q 47 303 44 286 q 139 304 75 306 q 133 279 135 292 m 132 265 q 132 238 131 251 q 49 211 82 217 q 44 256 44 233 q 132 265 92 263 m 210 417 l 204 411 q 113 444 167 431 q 140 475 125 461 q 183 439 156 464 l 210 417 m 518 510 q 599 593 540 538 q 683 689 658 650 l 685 674 q 618 592 665 646 q 557 514 576 542 q 547 513 551 514 q 518 510 535 511 m 465 507 q 581 625 542 594 l 606 644 q 633 667 625 658 l 658 686 q 683 711 672 699 l 683 707 q 678 704 679 707 q 589 603 653 664 q 500 510 524 540 q 465 507 474 508 m 433 504 q 499 608 467 550 q 528 607 514 607 q 542 610 535 607 q 444 506 514 583 q 433 504 439 506 m 396 500 q 422 551 401 517 q 447 606 442 585 q 483 607 465 607 q 421 511 451 554 q 421 503 418 507 q 396 500 407 503 m 367 496 q 399 600 392 567 q 433 604 415 603 q 410 558 426 588 q 381 499 386 519 l 367 496 m 335 488 q 350 590 342 525 q 383 597 367 594 q 351 492 378 569 q 335 488 342 490 m 307 478 q 308 517 308 507 q 301 575 308 553 q 335 586 318 582 q 319 483 326 521 q 307 478 313 481 m 264 457 q 254 556 257 518 q 289 571 271 564 q 294 517 294 550 q 292 472 294 511 q 264 457 278 465 m 592 972 q 654 1047 625 1015 l 658 1047 q 592 972 628 1010 m 593 653 l 628 683 l 678 725 q 593 653 653 697 m 579 -21 q 617 24 590 -7 l 671 82 l 688 100 l 688 85 q 640 21 676 64 l 617 -8 l 590 -37 q 574 -58 579 -50 q 572 -37 574 -49 q 581 -33 576 -36 q 582 -24 586 -29 l 579 -21 m 247 483 l 243 493 q 222 539 226 531 q 242 549 232 544 q 247 483 243 521 m 517 -83 q 523 -103 515 -94 q 542 -114 531 -112 l 550 -114 q 565 -117 557 -117 q 638 -112 582 -115 q 714 -106 685 -110 q 736 -86 731 -103 q 742 -69 742 -79 q 744 156 742 10 q 746 421 746 301 q 742 646 746 540 q 736 747 740 668 q 731 863 732 825 q 733 961 731 901 q 746 1065 736 1021 q 740 1089 747 1078 q 715 1103 732 1103 q 538 1104 567 1103 l 531 1104 q 518 1103 525 1106 q 501 1090 507 1100 q 499 1069 496 1081 q 514 878 513 1013 q 513 663 515 743 q 244 614 369 667 q 43 446 121 560 q -8 303 0 383 q 6 151 -17 222 q 84 22 28 79 q 218 -57 140 -36 q 291 -69 254 -67 q 367 -65 328 -71 q 432 -53 407 -58 q 501 -35 457 -47 q 517 -31 513 -32 q 517 -83 519 -61 m 196 513 q 185 513 190 518 q 185 504 181 508 q 219 465 190 499 q 240 442 231 451 q 219 426 229 435 l 192 450 l 150 485 q 210 531 178 511 q 229 488 214 525 l 244 457 l 229 474 q 196 513 200 507 "},"E":{"ha":742,"x_min":39,"x_max":757,"o":"m 631 768 l 644 736 l 629 731 q 630 747 629 733 q 631 768 631 761 m 615 797 q 615 725 617 788 l 594 718 q 593 835 596 807 l 615 797 m 568 868 l 576 857 l 576 853 q 581 713 581 821 l 571 710 q 568 868 571 793 m 547 890 l 553 885 q 557 704 557 800 l 547 701 l 547 890 m 515 918 q 533 903 525 911 l 533 696 l 529 694 q 522 790 525 729 q 515 918 519 883 m 672 250 q 656 263 667 260 q 635 260 644 265 q 346 240 444 150 q 243 526 263 317 q 293 544 264 532 q 361 574 357 572 l 678 689 q 693 703 688 693 q 704 736 711 715 q 593 922 661 851 q 460 1011 538 981 q 306 1036 382 1040 q 160 985 229 1032 q 57 854 92 939 q 44 805 49 831 q 39 747 39 779 l 39 697 q 43 642 39 682 q 47 597 47 601 q 432 0 90 63 q 599 5 525 -17 q 747 88 674 26 q 757 107 757 94 q 757 132 763 119 q 672 250 728 194 m 629 194 l 643 201 q 700 121 678 163 l 683 108 l 683 110 q 629 194 661 157 m 617 188 q 669 104 649 150 q 674 101 671 101 l 650 86 q 608 181 633 143 q 606 182 607 182 l 617 188 m 572 168 q 583 126 575 154 l 596 75 q 604 69 597 68 q 610 78 611 71 q 596 131 606 96 q 585 174 589 160 l 596 178 q 597 172 596 175 q 638 79 621 136 q 575 56 607 64 q 567 167 575 61 l 572 168 m 553 161 q 561 53 561 65 q 549 51 554 51 q 547 97 549 57 q 543 158 546 138 l 553 161 m 529 154 q 533 97 532 135 q 535 50 533 60 q 518 49 526 49 l 518 151 l 529 154 m 504 149 l 504 49 q 481 50 493 49 q 490 147 490 82 q 504 149 497 147 m 476 144 q 467 51 476 82 q 446 54 457 53 q 449 74 447 61 q 453 94 451 88 q 457 144 457 124 l 476 144 m 443 144 q 439 96 443 125 q 435 76 438 89 q 432 57 433 64 q 406 64 419 60 q 424 146 421 121 q 443 144 433 144 m 410 147 q 392 68 408 125 q 361 81 376 74 q 394 151 379 115 q 410 147 401 150 m 381 156 l 349 86 q 304 113 325 97 q 351 168 319 125 q 381 156 365 161 m 339 175 q 293 121 307 133 l 281 131 q 325 185 303 161 q 339 175 332 181 m 304 203 l 308 199 l 315 193 q 271 140 293 169 l 257 154 q 304 203 269 168 m 294 213 l 247 165 q 226 190 236 176 q 249 217 235 201 l 271 242 q 294 213 282 226 m 264 254 l 239 226 l 218 203 l 208 218 q 254 269 240 257 q 264 254 258 261 m 247 282 q 200 231 231 268 l 183 261 q 232 317 207 285 q 247 282 239 299 m 226 332 q 178 275 200 299 q 165 301 171 288 q 218 354 186 319 l 226 332 m 214 369 q 160 315 179 332 q 149 351 154 332 l 176 385 l 203 413 l 214 369 m 200 429 l 167 393 l 143 367 q 133 404 138 385 q 172 438 147 418 l 196 457 q 200 429 197 443 m 193 472 l 164 449 q 129 419 142 431 l 125 438 l 144 457 l 168 478 q 189 500 181 490 q 193 472 192 486 m 188 521 q 158 488 178 506 l 136 467 q 122 454 128 460 q 115 490 119 472 q 118 492 117 490 q 157 519 125 499 q 185 540 174 531 q 186 535 185 538 q 188 521 186 528 m 428 800 q 328 761 408 793 q 222 726 263 736 q 267 810 231 779 q 349 838 303 840 q 428 800 394 835 m 453 750 q 471 756 463 753 q 479 676 471 710 l 461 669 q 453 750 451 735 m 414 736 l 439 744 q 447 665 439 733 l 425 657 q 418 704 424 669 q 414 736 415 724 m 381 722 l 401 731 q 404 701 401 719 q 411 656 411 660 q 413 651 411 653 l 393 644 q 381 722 390 690 m 351 711 l 367 718 q 381 640 376 686 l 361 633 l 351 711 m 322 700 l 338 706 q 344 663 340 692 q 347 628 347 635 l 342 626 l 335 624 q 322 700 329 644 m 293 689 l 310 694 q 322 618 317 642 l 300 608 q 293 689 293 651 m 260 678 q 279 685 269 681 q 288 603 281 646 l 271 596 q 260 678 263 629 m 236 672 l 246 675 q 258 590 250 625 l 244 585 q 236 672 238 638 m 315 892 q 319 899 321 893 l 297 979 q 326 981 311 981 q 335 928 328 963 q 342 893 342 894 q 315 892 328 893 m 290 885 q 257 969 278 931 q 283 976 269 974 l 306 896 q 311 890 307 890 q 290 885 300 889 m 260 871 q 231 917 250 889 q 208 950 215 940 q 243 965 225 958 q 276 879 264 926 q 260 871 268 876 m 240 858 q 171 922 207 886 q 197 942 183 933 q 219 910 203 932 q 247 864 239 881 q 240 858 244 861 m 215 836 q 165 863 197 849 q 132 878 139 874 q 161 913 144 897 q 229 850 197 878 q 215 836 221 843 m 169 746 q 167 747 168 747 l 93 747 q 96 774 94 761 q 119 771 106 772 q 144 767 124 769 q 174 764 164 764 q 169 746 172 756 m 165 701 q 136 693 154 699 q 96 683 106 686 q 94 701 94 693 l 99 701 q 125 706 121 704 q 165 715 150 710 l 165 701 m 168 732 q 124 719 151 724 q 96 715 118 718 l 94 715 q 93 733 93 725 l 167 733 l 168 733 l 168 732 m 179 776 l 146 781 q 122 785 124 783 q 97 788 108 786 q 107 828 100 810 q 185 792 143 815 q 179 776 182 785 m 192 804 q 113 840 149 828 q 125 865 118 853 q 160 850 133 861 q 206 825 189 836 q 192 804 199 815 m 488 817 q 490 935 493 900 l 500 929 l 500 928 q 508 789 506 890 q 515 689 511 726 l 492 681 q 485 760 485 714 q 499 774 494 764 q 501 793 504 783 q 494 806 500 800 l 494 807 q 488 817 490 813 m 457 850 q 458 856 458 853 l 458 951 l 475 943 q 475 833 479 907 q 457 850 465 843 m 432 868 q 426 965 432 922 q 446 958 436 961 q 444 860 444 942 q 432 868 439 864 m 403 882 q 404 972 403 946 l 413 969 q 418 876 418 928 q 403 882 411 879 m 378 890 q 364 979 367 940 q 390 975 378 978 q 389 888 389 947 l 378 890 m 356 893 q 348 933 354 901 q 340 981 342 964 l 350 981 q 364 892 353 942 q 356 893 360 893 m 169 685 q 133 657 154 675 l 100 629 q 97 668 97 660 q 139 679 107 672 q 168 688 157 685 q 169 685 168 686 m 208 604 l 208 608 q 204 665 204 636 l 206 665 q 222 669 214 667 q 232 581 224 635 q 214 576 222 578 q 208 604 210 590 m 196 593 q 200 572 197 583 q 188 563 193 569 q 182 560 185 563 q 149 531 171 546 q 114 506 119 511 l 113 515 q 196 593 160 568 m 194 608 q 110 533 156 583 l 107 556 q 192 638 149 611 q 194 608 192 624 m 190 653 q 106 575 149 629 l 103 603 l 101 613 l 142 646 q 179 675 164 664 q 182 674 181 674 q 190 668 186 669 l 190 653 "},"F":{"ha":743,"x_min":17,"x_max":760,"o":"m 361 392 l 351 389 q 344 386 347 388 q 347 490 344 442 l 349 490 l 360 493 q 361 392 361 461 m 393 401 l 375 396 q 374 497 375 464 l 385 500 q 386 456 385 486 q 388 408 388 425 q 393 401 388 403 m 411 407 l 399 403 q 401 408 401 406 q 400 457 401 425 q 399 504 399 489 l 401 504 q 411 407 407 476 m 443 417 l 425 411 q 414 508 419 479 l 422 511 l 438 517 l 438 424 q 443 417 438 418 m 478 428 q 476 476 478 446 q 490 432 483 453 l 478 428 m 464 424 l 450 418 q 451 424 451 421 q 453 521 451 496 l 461 524 q 463 478 461 514 q 464 424 464 443 m 232 306 q 233 326 233 317 l 324 338 l 322 324 l 267 315 q 232 306 247 311 m 231 283 l 231 290 q 269 301 246 297 q 322 310 288 306 l 319 285 q 231 283 260 285 m 228 244 q 229 269 229 257 q 319 271 260 271 l 318 250 q 271 247 310 250 q 228 244 244 244 m 226 203 q 228 231 226 217 q 271 233 244 231 q 317 236 310 236 q 315 207 317 221 q 226 203 257 208 m 225 161 q 226 189 225 175 q 315 193 256 194 q 314 167 314 179 q 275 164 300 165 q 225 161 242 161 m 225 125 l 225 147 q 276 150 243 147 q 314 153 301 151 q 313 125 313 139 l 225 125 m 225 92 l 225 111 l 313 111 l 313 97 q 225 92 258 97 m 226 49 l 226 78 q 313 83 257 83 l 313 61 q 226 49 265 58 m 229 8 q 228 35 228 22 q 313 47 264 44 q 314 24 313 35 q 229 8 279 17 m 231 -24 q 229 -6 231 -14 q 314 10 281 3 q 315 -15 314 -3 q 286 -18 294 -17 q 231 -24 253 -19 m 233 -50 l 232 -37 q 288 -31 254 -33 q 315 -29 296 -31 l 317 -37 q 233 -50 254 -47 m 236 -82 l 233 -64 q 318 -51 256 -61 q 319 -68 318 -60 q 236 -82 256 -76 m 240 -122 q 238 -96 239 -108 q 321 -82 256 -90 l 324 -104 q 240 -122 281 -115 m 243 -146 l 242 -136 q 325 -118 282 -129 l 328 -128 q 299 -135 315 -131 q 243 -146 258 -142 m 247 -175 l 244 -160 q 300 -147 260 -156 q 329 -142 318 -144 l 332 -153 q 247 -175 274 -172 m 250 -194 l 249 -189 q 335 -167 278 -185 q 339 -181 336 -174 q 250 -194 311 -186 m 251 -208 q 315 -200 296 -203 q 253 -214 304 -203 l 251 -208 m 214 471 q 214 374 215 450 q 210 375 213 375 l 210 389 q 210 405 210 396 q 211 418 211 414 q 214 471 211 450 m 200 469 q 197 418 197 449 q 197 401 197 417 q 196 378 196 386 l 194 378 l 178 375 q 181 419 179 386 q 182 469 182 451 l 200 469 m 149 468 q 144 382 147 438 q 151 375 144 375 l 126 375 q 131 468 133 400 l 149 468 m 117 467 q 111 376 119 399 l 100 378 q 106 467 106 456 l 117 467 m 92 467 q 86 378 92 457 q 74 379 79 378 q 76 403 74 388 q 78 421 78 419 q 82 467 81 449 l 92 467 m 690 839 q 703 804 697 822 q 668 785 689 794 q 690 839 683 818 m 675 871 l 681 860 q 649 774 675 833 l 629 764 l 626 771 q 675 871 653 821 m 653 913 l 667 888 q 621 789 646 838 l 618 794 q 626 819 618 796 l 639 857 q 653 913 650 889 m 628 949 q 642 931 635 940 q 626 861 639 903 q 610 814 622 849 q 597 836 604 825 q 614 892 600 847 q 628 949 625 928 m 597 983 q 615 964 606 974 q 601 896 614 938 l 588 853 q 575 874 582 864 q 597 983 594 935 m 563 1008 q 583 994 574 1003 q 564 888 582 947 q 543 913 554 901 q 563 1008 560 996 m 525 1028 q 551 1017 539 1024 q 531 924 544 994 l 524 931 q 525 1028 526 950 m 483 1039 l 511 1033 l 511 940 q 492 950 501 946 q 491 974 492 958 q 490 994 490 990 q 483 1039 489 1022 m 428 1038 q 443 1039 435 1039 q 469 1040 456 1040 q 476 993 474 1024 q 477 976 476 989 q 478 957 478 963 q 453 961 465 961 l 442 994 q 428 1038 432 1024 m 392 1026 l 414 1035 q 428 990 418 1019 l 439 960 l 438 960 q 415 954 425 958 q 392 1026 403 982 m 357 1004 q 379 1021 368 1014 q 403 947 389 976 q 394 940 399 944 q 357 1004 375 967 m 324 967 q 340 988 332 978 l 346 993 q 383 932 364 957 q 371 915 376 925 l 324 967 m 299 925 q 317 954 307 940 l 363 904 q 350 882 356 894 q 329 901 346 886 q 299 925 311 917 m 278 874 q 293 913 285 894 q 319 892 304 906 q 344 869 340 874 q 338 850 340 860 q 309 861 329 853 q 278 874 289 869 m 264 822 q 274 860 268 842 q 304 849 285 857 l 333 836 q 325 806 329 822 q 264 822 290 814 m 260 799 q 319 774 303 782 q 318 761 319 768 q 256 772 290 764 q 260 799 257 786 m 250 726 q 254 758 251 743 q 317 747 289 750 q 315 721 315 735 q 293 722 308 721 q 250 726 265 726 m 249 708 l 249 713 q 292 710 264 713 q 315 707 307 707 l 315 706 q 249 708 289 708 m 247 694 q 314 692 289 694 l 314 681 q 247 682 254 682 l 247 694 m 246 636 l 246 668 q 314 667 253 668 l 314 638 q 246 636 268 639 m 244 622 q 315 624 268 625 l 315 619 q 244 622 271 619 m 244 608 q 315 606 271 606 l 315 589 l 244 589 l 244 608 m 244 557 l 244 575 l 317 575 l 317 557 l 244 557 m 244 543 l 317 543 l 317 538 q 279 536 285 536 q 244 538 260 536 l 244 539 l 244 543 m 301 797 q 324 793 311 794 l 322 789 q 301 797 313 793 m 238 340 l 235 340 q 228 354 233 349 q 228 392 228 365 q 229 439 229 418 q 226 478 229 460 q 239 488 233 481 q 240 415 243 483 q 238 340 238 346 m 272 496 q 271 344 271 472 l 251 343 q 253 392 251 358 q 256 442 256 425 q 251 492 256 458 q 272 496 261 494 m 306 499 q 304 430 306 476 q 303 358 303 383 q 310 351 303 351 q 317 358 317 351 q 318 431 317 383 q 319 500 319 478 l 322 500 q 333 492 326 494 q 331 372 331 436 q 325 357 325 365 l 325 351 q 285 346 308 349 q 286 497 285 471 q 306 499 296 499 m 314 514 l 313 514 l 310 514 q 244 504 275 511 l 244 524 q 279 522 260 522 q 315 524 285 522 l 315 514 l 314 514 m 64 524 q 36 503 42 525 q 26 482 26 494 q 22 426 26 461 q 17 367 18 378 q 33 340 15 349 q 57 324 40 324 q 106 321 58 324 q 178 319 153 318 q 200 -236 154 40 q 215 -257 203 -250 q 246 -272 225 -276 q 278 -265 253 -271 q 318 -256 304 -260 q 353 -244 332 -253 q 390 -221 374 -235 q 397 -187 407 -207 q 396 -181 397 -185 q 379 339 351 -33 q 532 388 486 371 q 548 402 543 392 q 549 424 553 413 q 547 438 550 431 q 511 567 532 479 q 499 583 510 578 q 478 586 489 589 q 469 583 474 586 q 406 564 450 578 q 372 554 385 557 q 370 708 367 622 q 396 849 374 794 q 444 906 418 901 q 497 879 467 908 q 554 800 529 849 q 583 717 579 751 q 594 697 585 704 q 615 692 603 690 q 633 703 626 693 q 681 728 644 710 q 733 757 714 744 q 746 775 743 764 q 760 808 767 785 q 717 911 743 863 q 652 1006 690 960 q 558 1076 614 1051 q 438 1094 503 1100 q 299 1024 353 1088 q 251 953 271 992 q 219 867 231 915 q 201 784 208 819 q 192 690 194 749 q 189 608 189 632 l 189 525 q 64 524 97 522 m 151 375 q 158 382 158 375 q 163 468 161 436 l 168 468 q 167 419 168 451 q 164 375 165 386 l 151 375 "},"G":{"ha":776,"x_min":40,"x_max":794,"o":"m 596 371 q 594 386 596 378 l 643 386 q 703 389 681 386 l 703 388 q 596 371 617 372 m 601 324 l 599 343 q 704 350 651 344 l 704 342 q 706 322 704 332 l 703 322 q 601 324 610 322 m 611 274 q 604 308 607 293 l 703 308 q 707 310 704 308 q 708 288 707 299 l 701 286 q 683 283 696 285 q 664 279 671 281 q 611 274 633 274 m 618 242 l 614 260 q 667 265 636 260 q 686 269 674 267 q 704 272 699 271 l 711 274 l 713 265 q 618 242 676 254 m 626 200 l 626 201 l 621 228 q 714 251 678 240 l 714 249 l 719 219 q 626 200 654 207 m 633 164 l 629 186 q 721 207 657 193 l 724 190 q 693 181 713 188 q 672 175 674 175 q 633 164 650 168 m 639 138 l 636 151 q 676 161 653 154 q 697 168 678 163 l 725 176 l 728 161 q 685 151 710 158 l 639 138 m 643 108 q 640 125 642 115 l 689 138 q 729 147 713 144 q 732 122 731 133 q 700 115 719 118 q 664 111 696 115 q 643 108 651 110 m 644 -6 q 646 7 646 0 q 729 15 690 11 q 725 -6 728 4 l 644 -6 m 642 -19 l 721 -19 l 715 -40 q 668 -29 700 -35 q 640 -24 650 -26 l 642 -19 m 631 -57 q 638 -37 635 -49 q 665 -43 647 -39 q 711 -53 696 -49 l 700 -82 q 631 -57 661 -62 m 619 -76 l 621 -74 q 624 -69 622 -72 q 694 -94 654 -74 q 688 -110 692 -103 q 619 -76 669 -103 m 589 -100 q 593 -108 589 -106 q 660 -154 622 -119 q 644 -172 653 -164 q 643 -169 644 -171 q 586 -101 621 -139 q 589 -100 588 -101 m 538 -108 q 538 -212 540 -136 l 532 -212 q 532 -107 533 -126 q 538 -108 535 -108 m 492 -97 q 482 -140 490 -115 l 472 -169 q 464 -200 467 -187 q 469 -208 463 -207 q 478 -203 476 -210 q 486 -174 481 -192 q 491 -160 488 -171 q 496 -144 494 -150 q 506 -103 503 -119 q 518 -106 511 -104 q 518 -212 519 -124 q 464 -208 492 -214 q 433 -201 449 -206 q 456 -149 439 -183 q 478 -92 472 -112 l 492 -97 m 465 -85 q 443 -142 460 -106 q 419 -197 426 -178 q 393 -185 406 -192 q 397 -181 396 -183 q 425 -126 403 -158 l 444 -100 q 458 -81 454 -86 q 465 -85 463 -82 m 447 -72 q 433 -92 442 -79 l 414 -118 q 383 -178 390 -153 l 383 -181 q 360 -165 371 -174 l 361 -165 l 386 -136 q 418 -97 400 -121 l 440 -67 l 447 -72 m 429 -56 l 431 -57 l 407 -87 l 376 -126 q 350 -154 364 -142 l 350 -157 l 346 -153 l 388 -104 q 429 -56 411 -74 m 353 75 q 267 47 303 57 l 264 63 q 290 72 274 65 l 321 83 q 347 93 335 88 l 353 75 m 364 49 l 319 29 l 274 11 l 269 33 q 358 63 307 43 l 364 49 m 378 21 l 282 -29 q 276 -3 279 -17 q 325 17 290 4 q 369 36 354 28 l 378 21 m 392 -6 q 297 -76 367 -29 q 286 -43 292 -61 l 383 8 l 392 -6 m 400 -18 l 407 -29 l 413 -35 q 357 -76 396 -46 q 313 -110 326 -101 q 303 -89 307 -100 q 400 -18 374 -40 m 639 997 l 639 1001 q 733 997 707 999 l 732 990 l 729 990 q 681 993 713 990 q 639 997 653 997 m 596 400 q 600 419 601 408 l 599 421 q 696 428 661 421 q 701 432 700 429 l 701 403 q 643 400 681 400 l 596 400 m 642 929 q 639 947 643 939 l 639 960 q 646 957 642 957 q 688 954 663 960 q 725 946 718 946 l 721 919 q 678 925 713 921 q 642 929 656 926 m 610 771 l 610 793 q 665 790 629 793 q 707 786 700 786 q 706 765 707 776 q 663 768 692 765 q 610 771 628 771 m 610 735 l 610 757 q 661 754 626 757 q 706 751 690 753 q 704 732 704 742 q 610 735 651 732 m 610 697 l 610 721 q 703 718 651 718 q 701 692 703 706 q 610 697 668 693 m 610 672 l 610 683 q 701 678 667 679 l 701 660 q 610 672 615 671 m 610 626 l 610 658 q 700 646 613 657 l 700 624 q 610 626 632 622 m 608 589 q 610 597 610 593 l 610 613 q 700 610 633 608 q 699 586 700 597 q 681 587 693 586 q 665 588 669 588 q 608 589 631 589 m 554 618 q 467 569 488 575 q 370 568 421 558 q 285 603 319 578 q 246 661 251 628 q 271 750 239 701 q 404 794 300 796 q 554 776 461 794 l 554 618 m 528 535 q 538 436 529 464 l 521 433 q 515 481 518 451 q 513 528 513 522 q 528 535 519 531 m 499 522 q 503 479 499 519 q 507 431 504 450 l 488 428 q 486 469 486 436 q 482 517 485 499 q 499 522 490 518 m 468 514 q 472 469 471 497 q 474 426 472 436 q 453 425 463 425 q 454 511 451 489 l 468 514 m 440 510 q 439 424 438 488 q 414 422 426 422 q 418 464 415 440 q 420 485 418 469 q 424 508 422 500 q 440 510 432 508 m 410 508 q 407 486 408 500 q 404 467 406 472 q 400 422 401 440 l 382 422 q 392 510 389 496 q 410 508 400 508 m 378 511 q 368 422 374 496 l 336 425 q 347 472 340 442 q 357 514 354 503 q 378 511 367 513 m 343 517 q 333 475 340 506 q 322 428 326 444 l 303 431 q 314 463 307 442 q 333 519 328 501 q 343 517 338 518 m 319 524 q 301 468 315 506 q 289 433 292 443 q 267 440 278 436 q 282 478 271 453 q 301 531 297 514 q 319 524 311 526 m 289 536 q 268 482 285 519 q 254 444 258 458 q 219 458 236 450 q 242 494 226 475 q 264 524 247 504 l 276 542 q 289 536 283 539 m 253 558 q 265 550 258 554 l 253 532 q 231 503 236 511 q 207 465 215 482 l 201 468 q 186 479 194 474 q 253 558 203 504 m 242 567 q 175 488 193 514 q 156 507 165 496 q 190 542 158 508 q 225 583 214 565 q 242 567 232 575 m 215 594 q 181 551 204 576 l 147 517 q 129 544 138 529 l 168 578 l 207 608 l 215 594 m 201 621 l 160 589 q 122 557 138 571 q 111 583 117 569 q 163 611 125 592 q 197 631 185 622 q 201 621 199 625 m 192 654 l 192 651 q 193 644 192 647 q 156 622 179 635 q 107 597 119 604 q 100 626 103 611 q 192 654 156 642 m 189 678 l 189 668 q 97 640 154 656 q 96 663 96 651 q 189 678 140 674 m 190 692 q 96 676 140 688 q 96 694 94 685 l 96 701 q 190 697 147 701 l 190 692 m 193 711 q 97 715 150 715 q 99 732 97 724 q 197 725 188 726 q 193 711 194 718 m 201 738 q 101 746 186 742 q 110 776 106 763 q 150 767 125 774 l 208 753 q 201 738 204 746 m 374 850 q 363 894 369 865 q 353 944 357 931 l 363 944 q 365 919 363 936 q 367 897 367 901 l 374 850 m 340 846 q 343 853 343 849 q 329 943 340 864 l 339 943 q 350 892 343 929 q 358 849 356 864 q 340 846 350 847 m 329 844 l 329 846 q 313 894 326 851 l 296 939 q 317 942 306 940 q 329 850 328 861 q 333 844 331 846 l 329 844 m 303 838 q 290 880 301 844 q 271 933 279 915 l 282 936 q 299 890 288 921 q 315 842 314 846 q 303 838 310 839 m 224 781 l 215 767 q 154 781 197 769 q 115 790 129 788 q 125 814 119 801 q 224 781 183 792 m 400 850 l 388 850 l 381 899 q 379 919 381 903 q 376 944 378 936 l 396 944 q 400 850 400 881 m 549 833 q 563 921 556 882 l 571 919 q 550 833 564 874 l 549 833 m 529 838 q 540 926 536 874 l 549 924 q 536 836 542 886 l 529 838 m 514 840 q 525 929 524 883 l 526 929 q 515 840 524 875 l 514 840 m 488 844 q 499 935 497 926 l 511 932 q 500 842 510 886 l 488 844 m 463 847 q 464 851 464 849 q 465 939 464 932 q 485 936 475 939 q 474 846 483 928 q 463 847 468 846 m 438 849 l 438 851 l 438 943 q 451 942 444 942 q 450 851 450 932 q 451 847 450 850 q 438 849 444 849 m 414 850 q 410 944 414 881 q 424 943 417 944 l 424 851 l 424 850 l 414 850 m 606 904 l 606 908 q 635 917 624 903 q 675 911 649 914 q 719 906 711 907 q 717 879 718 892 q 606 904 649 903 m 599 869 q 603 890 601 879 q 715 865 644 889 l 714 858 q 654 864 694 858 q 599 869 618 868 m 592 843 q 596 856 594 849 q 653 850 607 854 q 713 844 693 846 l 711 828 q 654 836 706 828 q 592 843 617 842 m 588 829 q 653 822 610 829 q 710 814 704 814 l 708 800 q 666 803 704 800 q 607 807 628 807 q 601 814 606 811 q 588 826 597 822 l 588 829 m 585 869 q 578 863 578 869 q 582 857 578 858 q 574 832 578 843 l 574 829 l 564 831 q 583 915 576 871 l 592 913 q 585 869 589 886 m 236 821 l 193 849 l 163 869 q 189 894 175 883 q 208 864 197 883 l 236 821 m 243 813 q 250 810 246 808 q 233 793 242 803 q 131 825 188 806 q 154 860 142 843 q 185 838 163 854 q 233 808 215 817 q 242 811 239 804 q 243 813 243 811 m 583 508 l 583 542 q 586 540 585 540 q 699 535 618 533 l 699 507 q 696 508 697 508 q 663 509 685 508 q 632 510 642 510 q 583 508 604 510 m 582 469 l 582 494 q 632 496 603 496 q 663 495 642 496 q 696 494 685 494 q 700 496 697 494 l 700 472 l 647 472 q 582 469 606 472 m 582 456 q 647 458 606 458 l 700 458 l 700 438 q 693 442 699 443 q 590 435 658 435 q 582 440 588 438 l 582 456 m 568 493 l 568 442 l 567 442 l 551 438 q 540 543 544 461 q 569 561 553 550 l 569 507 q 563 500 563 506 q 568 493 563 493 m 606 357 q 703 374 625 360 l 703 364 q 606 357 654 358 m 415 -49 l 376 -94 l 335 -143 q 319 -122 326 -133 q 367 -87 336 -112 l 415 -49 m 565 -114 l 565 -107 q 571 -106 568 -107 q 632 -178 610 -146 q 635 -179 633 -179 q 619 -189 626 -185 q 565 -114 601 -158 m 569 -142 q 607 -196 593 -171 q 586 -203 597 -200 q 569 -142 576 -178 m 667 -142 q 667 -135 669 -137 q 610 -87 647 -110 q 682 -122 665 -115 q 668 -143 675 -133 l 667 -142 m 731 67 q 722 72 729 74 q 647 64 676 63 q 644 94 647 79 q 665 97 653 96 q 703 101 697 101 q 733 107 721 104 q 735 64 735 85 q 731 67 733 67 m 697 53 l 699 53 l 729 53 q 733 54 732 53 q 732 31 733 42 q 647 21 692 25 q 649 50 649 35 q 697 53 671 49 m 551 -118 l 553 -119 q 572 -207 560 -172 q 551 -211 563 -208 q 551 -118 554 -144 m 393 129 q 379 146 389 140 q 358 147 369 151 q 336 149 347 153 q 278 126 315 140 l 224 107 q 206 78 204 99 l 206 71 q 213 32 207 69 q 223 -18 219 -6 q 233 -59 226 -31 q 249 -108 240 -87 q 271 -149 258 -129 q 347 -224 299 -194 q 454 -262 396 -253 q 668 -224 582 -286 q 776 -26 733 -176 q 783 165 799 51 q 779 194 782 179 q 774 228 776 210 l 769 257 q 760 344 761 308 q 794 1019 743 746 l 794 1025 q 788 1044 794 1036 q 769 1053 781 1051 l 767 1053 q 625 1058 735 1053 q 615 1057 619 1058 q 603 1058 610 1058 q 585 1048 592 1057 q 579 1026 578 1039 q 583 993 583 996 l 583 972 q 454 997 521 990 q 315 997 388 1004 q 192 963 242 989 q 82 852 121 925 q 40 696 43 779 q 70 538 36 613 q 174 421 104 463 q 540 379 307 340 q 572 190 543 329 q 589 1 600 58 q 575 -42 583 -31 q 549 -53 568 -53 q 451 4 493 -53 q 393 129 421 47 m 235 914 q 224 915 229 919 q 224 906 219 910 q 253 858 238 890 q 271 824 267 831 q 254 813 263 819 q 254 821 257 817 q 221 872 244 833 q 200 903 208 892 q 217 913 208 908 q 257 929 235 922 q 276 876 265 911 q 290 833 288 840 q 283 829 286 832 l 265 864 q 235 914 249 899 m 643 971 q 639 968 640 971 l 639 983 q 679 981 653 983 q 729 976 713 976 l 731 976 l 728 960 q 692 967 721 960 q 643 971 663 974 m 589 554 q 583 553 586 554 l 583 569 q 597 574 590 569 q 664 574 624 575 q 681 573 669 574 q 699 572 693 572 l 699 549 q 589 554 619 547 "},"H":{"ha":782,"x_min":108,"x_max":800,"o":"m 275 -28 q 179 -28 201 -26 l 181 -14 q 274 -11 210 -11 q 275 -28 274 -19 m 275 -54 q 176 -57 244 -57 l 178 -42 q 275 -42 200 -40 l 275 -54 m 276 -76 q 229 -82 272 -76 q 175 -85 196 -87 l 175 -71 q 275 -68 244 -71 q 276 -76 276 -72 m 276 -90 q 279 -114 278 -103 l 172 -114 l 174 -99 q 232 -96 197 -101 q 276 -90 275 -90 m 281 118 q 243 115 271 117 q 188 111 200 113 l 188 135 l 229 135 q 283 136 265 135 q 281 118 282 128 m 276 75 q 185 75 211 74 l 186 97 q 243 101 201 99 q 279 103 265 103 l 276 75 m 275 40 q 183 33 236 40 l 185 61 q 276 61 211 60 q 275 40 275 50 m 274 3 q 181 1 210 3 l 182 19 q 275 26 235 25 q 274 3 274 15 m 303 229 q 269 230 293 229 q 227 231 246 231 q 192 229 208 231 l 193 253 q 311 254 214 256 l 303 229 m 292 188 l 190 188 q 192 215 190 201 q 299 215 204 217 q 292 188 296 201 m 285 150 q 229 149 268 149 l 189 149 l 190 174 l 289 174 q 285 150 288 163 m 668 -189 q 621 -194 657 -190 l 621 -189 l 643 -189 l 668 -189 m 678 313 l 628 285 l 593 267 q 589 281 590 275 q 665 347 646 326 q 678 313 672 331 m 690 271 q 599 242 631 247 l 599 243 l 596 253 q 633 272 610 260 q 682 299 671 293 l 690 271 m 703 221 q 654 214 685 217 q 606 208 619 211 q 601 229 604 219 q 694 257 635 233 q 703 221 699 240 m 710 188 q 660 182 690 186 q 610 176 619 178 q 607 194 608 186 q 656 200 621 197 q 706 207 686 203 l 710 188 m 717 146 q 614 138 679 144 l 611 163 q 661 168 622 164 q 713 174 693 172 q 717 146 715 160 m 722 110 q 671 108 701 108 q 643 109 661 108 q 617 110 625 110 q 615 124 617 117 q 719 132 681 131 l 722 110 m 728 74 q 619 72 701 71 l 618 81 l 618 96 q 643 95 625 96 q 671 94 661 94 q 725 96 701 94 l 728 74 m 731 49 q 619 50 635 49 l 619 58 q 729 60 703 57 l 731 49 m 733 17 q 621 6 668 13 l 621 36 q 732 35 635 35 l 733 17 m 738 -21 l 685 -21 q 622 -28 644 -19 l 622 -8 q 735 3 669 -1 q 738 -21 736 -8 m 739 -51 q 622 -62 657 -61 l 622 -43 q 685 -35 644 -33 l 738 -35 q 739 -51 739 -43 m 740 -76 q 622 -90 664 -82 l 622 -76 q 740 -65 658 -75 l 740 -76 m 742 -108 q 622 -121 660 -111 l 622 -104 q 742 -90 664 -96 l 742 -108 m 743 -142 q 699 -144 728 -143 q 621 -150 644 -149 q 622 -136 622 -142 q 743 -122 658 -125 l 743 -142 m 744 -174 q 621 -175 713 -176 l 621 -165 q 700 -158 644 -162 q 744 -156 726 -157 l 744 -174 m 660 361 q 583 294 639 339 q 575 313 579 304 l 651 383 l 660 361 m 644 396 l 569 326 l 564 335 l 600 378 l 633 418 q 644 396 639 408 m 569 492 q 561 486 563 493 q 536 421 557 465 q 517 374 522 390 q 501 379 510 376 q 546 507 533 475 q 569 492 558 500 m 535 514 q 488 383 521 481 l 488 382 l 482 382 q 500 528 493 501 q 535 514 517 522 m 486 532 q 468 383 479 504 q 460 382 464 383 q 467 536 458 492 q 486 532 476 535 m 431 539 q 453 538 442 539 q 446 381 444 493 q 433 379 439 381 q 431 539 417 468 m 415 538 q 419 376 404 464 q 404 369 411 374 q 397 449 400 397 q 390 531 394 508 q 415 538 403 535 m 378 525 q 383 447 381 501 q 392 363 386 393 q 374 350 382 357 q 364 432 368 379 q 357 510 360 489 q 378 525 367 518 m 301 529 q 301 513 299 521 q 197 504 250 506 l 197 524 q 301 529 249 524 m 288 1022 q 192 1025 260 1026 l 192 1028 q 244 1032 211 1031 q 258 1033 249 1032 q 274 1033 267 1033 l 288 1033 l 288 1022 m 288 994 q 282 997 286 997 l 197 997 l 194 1011 q 288 1008 261 1013 l 288 994 m 288 965 l 271 965 l 250 965 q 200 967 221 964 q 199 983 200 975 l 282 983 q 288 986 286 983 l 288 965 m 288 936 l 203 936 q 201 953 201 944 q 250 951 221 950 l 271 951 l 288 951 l 288 936 m 288 906 l 203 906 l 203 922 l 288 922 l 288 906 m 289 875 q 203 874 268 874 l 203 892 l 289 892 l 289 875 m 289 846 q 244 844 274 846 q 201 843 215 843 q 203 860 203 851 q 289 861 268 860 l 289 846 m 290 813 q 247 812 276 813 q 200 811 217 811 q 201 829 201 821 q 244 831 215 829 q 289 832 274 832 q 290 813 289 822 m 290 779 q 199 779 246 775 l 200 797 q 247 798 217 797 q 290 799 278 799 l 290 779 m 292 749 q 247 747 274 747 l 197 747 q 199 765 199 756 q 290 765 246 761 l 292 749 m 293 696 q 197 689 233 690 l 197 710 l 197 714 q 293 713 228 711 l 293 696 m 296 656 q 197 653 268 651 l 197 675 q 294 682 233 676 q 296 656 294 668 m 297 626 q 197 622 254 622 l 197 639 q 296 642 267 638 l 297 626 m 299 597 q 197 589 274 594 l 197 608 q 297 613 254 608 l 299 597 m 301 564 q 197 560 294 563 l 197 575 q 300 583 275 581 l 301 564 m 303 543 q 197 538 249 538 l 197 546 q 301 550 294 549 l 303 543 m 343 1049 q 347 1067 349 1057 q 337 1085 346 1078 q 317 1092 328 1093 q 242 1088 300 1090 q 163 1081 193 1085 q 145 1071 151 1079 q 139 1051 139 1063 q 135 1028 131 1040 q 147 935 146 985 q 145 813 149 885 q 142 710 142 740 q 115 -124 142 165 q 108 -142 108 -131 q 117 -161 108 -153 q 136 -169 125 -169 l 296 -169 q 308 -167 303 -169 l 314 -167 q 332 -156 325 -165 q 338 -135 339 -147 q 339 135 319 -1 q 376 265 351 217 q 442 324 403 315 q 507 314 485 333 q 544 232 529 297 q 563 76 558 172 q 565 -208 565 25 q 558 -229 557 -217 q 569 -248 560 -240 q 589 -254 578 -256 q 633 -250 604 -253 q 678 -244 660 -246 q 764 -239 731 -239 q 776 -236 771 -239 q 793 -226 786 -235 q 800 -208 800 -218 q 799 -117 800 -164 q 800 -112 800 -115 q 797 -107 800 -110 q 672 461 782 281 q 603 536 647 503 q 508 583 558 568 q 356 576 422 610 q 343 1049 343 753 m 340 332 l 340 338 l 339 338 q 335 403 339 358 q 329 493 329 463 q 344 499 338 493 q 350 431 346 479 q 360 344 354 375 q 363 340 360 342 q 340 313 350 328 l 340 332 m 328 300 l 331 297 l 328 292 q 317 268 322 281 q 280 269 308 268 q 231 270 251 271 q 193 267 211 269 l 193 271 q 328 300 233 282 m 324 369 l 322 369 q 194 351 254 369 l 194 361 q 322 381 274 383 l 324 369 m 326 314 q 193 285 233 296 q 194 310 193 297 q 256 317 214 314 q 326 325 303 318 l 326 314 m 325 339 q 254 331 303 332 q 194 324 214 328 l 194 336 q 322 356 254 356 l 325 356 l 325 339 m 319 417 l 321 401 l 321 394 q 196 375 271 397 l 196 385 q 319 417 222 396 m 318 431 q 196 399 221 410 l 196 410 l 197 410 q 318 440 261 435 l 318 431 m 240 471 q 196 467 211 469 q 197 490 196 479 q 310 500 254 492 q 315 496 313 497 l 315 489 q 240 471 279 485 m 243 457 l 249 458 q 308 469 286 461 q 313 474 311 471 q 315 475 314 474 q 317 454 317 465 q 196 425 260 449 l 196 439 q 200 440 199 439 q 243 457 221 450 m 197 728 l 197 733 l 247 733 q 292 735 274 733 l 292 726 q 197 728 228 725 m 575 483 l 575 488 q 601 464 589 476 q 593 461 596 465 q 558 401 581 443 l 536 363 q 529 367 533 365 q 549 415 535 385 q 575 483 569 460 m 604 453 q 606 458 606 456 q 625 433 617 446 l 625 432 q 589 386 614 414 l 554 346 q 547 353 551 350 q 571 394 556 367 q 604 453 593 436 "},"I":{"ha":443,"x_min":156,"x_max":460,"o":"m 213 963 q 232 1001 215 986 q 246 1010 238 1007 q 213 963 226 986 m 383 864 l 390 876 l 401 892 q 383 864 394 876 m 407 926 l 378 883 q 357 847 365 863 q 329 842 343 842 q 374 901 339 856 q 403 946 393 928 q 407 926 407 936 m 397 961 q 363 910 385 940 q 314 842 325 860 q 304 844 308 843 q 326 886 310 853 q 356 942 343 919 q 382 981 369 964 q 397 961 392 972 m 372 990 q 343 947 357 971 q 313 890 329 924 q 290 847 296 857 q 267 858 278 851 q 363 996 333 964 q 372 990 368 993 m 350 1003 q 256 867 321 971 l 246 876 q 293 946 261 904 q 340 1007 338 1004 q 350 1003 346 1006 m 326 1013 q 300 978 318 1000 l 282 954 q 236 888 251 915 q 226 901 231 894 q 311 1017 267 971 q 326 1013 319 1014 m 294 1021 q 219 917 256 978 q 213 942 214 929 q 218 946 217 942 q 271 1018 238 981 q 293 1021 281 1021 l 294 1021 m 331 1068 q 313 1076 322 1076 q 196 1043 238 1081 q 156 951 156 1008 q 191 855 157 900 q 279 793 225 810 q 397 805 346 772 q 460 894 447 838 q 438 1000 471 951 q 331 1068 404 1049 m 285 -210 q 228 -214 251 -214 l 226 -210 q 285 -210 251 -208 m 339 -161 q 294 -167 307 -165 q 222 -179 250 -172 l 219 -154 q 282 -153 242 -154 q 339 -150 322 -151 l 339 -161 m 339 -201 q 225 -196 263 -193 l 224 -192 q 296 -181 254 -186 l 339 -175 l 339 -201 m 339 -136 q 282 -139 324 -137 q 218 -140 240 -140 q 217 -114 217 -128 q 279 -114 243 -111 q 307 -116 289 -114 q 329 -118 325 -118 q 339 -119 335 -118 l 339 -136 m 336 67 q 213 56 264 65 q 214 78 213 67 q 336 81 279 81 l 336 67 m 336 24 q 331 25 333 25 q 271 15 307 19 q 243 13 263 15 q 213 10 224 11 l 213 42 q 336 53 263 51 l 336 24 m 336 13 q 338 -11 336 3 l 338 -18 q 313 -21 326 -19 q 272 -24 275 -24 q 213 -22 236 -26 l 213 -4 q 244 -1 224 -3 q 272 3 265 1 q 333 11 308 6 q 336 13 335 11 m 336 140 q 278 135 313 139 q 215 128 219 128 q 217 163 215 144 q 279 165 239 163 q 338 167 319 167 q 336 140 336 154 m 336 94 q 214 92 279 94 l 214 114 q 281 121 224 114 q 336 126 315 125 l 336 94 m 350 661 q 312 662 342 661 q 267 663 282 663 l 267 665 q 309 667 281 665 q 350 669 338 668 l 350 661 m 350 626 l 263 626 q 265 649 264 639 q 312 648 282 649 q 350 647 342 647 l 350 626 m 350 593 q 308 594 313 594 q 257 593 279 594 q 261 613 260 604 l 350 613 l 350 593 m 350 561 q 303 564 336 563 q 251 565 269 565 l 254 579 q 308 581 276 581 q 350 579 313 581 l 350 561 m 350 533 q 296 535 331 533 q 247 538 261 536 l 250 551 q 302 549 268 551 q 350 547 336 547 l 350 533 m 349 503 l 242 503 q 244 524 243 513 q 295 522 260 524 q 350 519 331 519 q 349 503 349 511 m 349 472 q 319 473 339 472 q 293 474 300 474 l 239 474 l 240 489 l 349 489 l 349 472 m 349 431 q 235 425 267 432 l 238 460 l 293 460 q 319 459 300 460 q 349 458 338 458 l 349 431 m 347 389 q 340 394 346 394 q 233 408 275 394 l 233 411 q 347 417 264 418 l 347 389 m 343 281 l 224 281 l 225 304 q 282 303 246 303 q 344 303 326 304 q 343 281 343 292 m 339 213 l 339 210 q 338 181 338 196 q 279 178 319 181 q 217 176 239 176 l 218 197 q 219 199 219 197 q 296 213 244 211 l 339 213 m 342 249 q 281 247 321 249 q 221 244 242 244 l 222 267 l 342 267 l 342 249 m 340 235 l 340 226 l 296 226 q 219 213 246 225 l 219 231 q 281 233 240 231 q 340 235 321 235 m 400 706 q 374 725 394 725 q 310 723 353 725 q 247 721 268 721 q 221 700 225 721 q 211 679 211 692 q 200 592 211 647 q 185 496 188 521 q 165 249 171 339 q 158 6 158 158 q 175 -242 158 -146 q 194 -262 179 -258 q 208 -268 201 -267 l 261 -268 q 312 -263 275 -268 q 358 -257 349 -258 l 360 -257 l 364 -257 q 384 -249 375 -257 q 393 -231 393 -242 q 393 -10 396 -162 q 394 207 389 124 q 406 689 406 382 q 400 706 406 699 m 257 364 q 229 361 242 364 l 232 394 q 340 381 275 381 q 347 385 346 381 l 346 369 q 257 364 285 371 m 243 349 q 250 347 246 346 q 260 350 254 349 q 333 351 271 351 q 339 356 338 351 l 346 356 q 344 317 346 336 q 282 317 326 318 q 226 318 246 317 l 228 347 q 243 349 235 349 m 297 -67 l 214 -67 q 213 -36 214 -51 q 274 -37 238 -40 q 314 -33 275 -37 q 338 -32 328 -33 l 338 -60 q 303 -64 324 -62 q 297 -67 299 -64 m 328 -76 l 339 -74 l 339 -106 l 331 -104 q 308 -102 326 -104 q 281 -100 290 -100 q 215 -100 243 -97 q 214 -81 215 -90 q 324 -78 301 -82 q 328 -76 325 -78 "},"J":{"ha":497,"x_min":49,"x_max":515,"o":"m 351 1036 q 325 1007 336 1021 q 351 1036 329 1028 m 449 988 l 449 972 q 408 933 443 938 q 449 988 433 965 m 443 1003 q 440 1001 440 1003 q 390 933 424 975 q 379 935 385 933 q 438 1011 403 974 l 443 1003 m 428 1021 q 365 940 390 982 l 351 949 q 417 1028 385 1000 q 428 1021 422 1025 m 403 1035 q 340 958 372 1007 q 338 963 339 960 q 368 999 346 974 q 397 1036 388 1022 q 403 1035 400 1035 m 375 1040 q 381 1039 378 1040 l 382 1039 q 357 1008 374 1028 q 331 975 338 985 q 326 983 328 979 q 375 1040 344 1011 m 407 1090 q 390 1097 400 1097 q 303 1072 336 1099 q 269 1001 271 1044 q 294 928 268 963 q 365 882 321 894 q 457 892 418 867 q 503 964 496 918 q 484 1042 510 1006 q 407 1090 458 1078 m 342 786 q 343 799 342 793 q 396 801 358 800 q 454 803 433 803 l 454 789 q 401 788 440 789 q 342 786 363 786 m 340 750 l 340 772 q 401 774 363 772 q 454 775 440 775 q 453 758 453 767 q 340 750 375 758 m 340 676 l 340 697 q 446 706 407 697 q 451 714 453 707 q 443 719 450 721 q 340 711 406 711 q 340 735 339 724 q 453 744 372 744 q 451 681 453 719 q 396 679 432 681 q 340 676 358 678 m 342 643 l 342 663 q 397 665 357 664 q 450 667 433 667 l 450 650 q 397 646 429 647 q 373 644 393 646 q 342 643 353 643 m 343 611 l 343 629 q 374 631 354 629 q 399 632 393 632 q 450 636 428 633 l 449 619 l 449 611 l 343 611 m 346 579 l 344 597 l 449 597 q 447 578 449 588 l 397 581 q 346 579 347 582 m 347 542 l 346 565 q 396 566 347 568 q 447 564 444 564 l 447 538 q 440 543 446 543 q 392 542 424 543 q 347 542 360 542 m 349 504 l 349 528 q 392 528 360 528 q 440 529 424 529 q 447 533 446 529 l 447 507 q 349 504 403 507 m 351 471 l 350 490 q 447 493 403 493 l 447 472 q 351 471 369 474 m 351 439 l 396 443 q 447 447 429 447 l 447 426 q 353 426 368 425 q 351 439 353 433 m 353 394 l 353 413 q 449 413 368 411 l 449 404 l 449 394 l 353 394 m 354 368 l 354 381 l 449 381 l 450 381 l 450 374 q 354 368 415 368 m 354 340 l 354 354 q 451 360 417 354 l 453 340 l 354 340 m 354 314 l 354 326 l 454 326 l 454 314 q 354 314 382 315 m 353 294 l 353 300 q 456 300 381 301 l 456 294 l 353 294 m 353 272 l 353 274 l 353 281 l 457 281 l 457 272 l 353 272 m 350 236 q 351 258 351 247 l 458 258 q 460 236 458 247 l 350 236 m 347 201 q 349 222 349 211 l 460 222 q 461 196 460 208 q 407 199 443 197 q 347 201 368 201 m 340 153 l 342 154 q 378 149 353 153 q 424 143 394 147 q 460 139 453 139 q 458 128 460 133 l 408 140 q 340 153 368 150 m 331 106 q 382 100 351 107 q 446 88 433 89 q 453 94 453 88 q 446 101 453 101 q 385 114 435 103 q 335 119 354 121 l 338 139 q 406 126 365 136 q 458 114 456 115 l 457 110 q 449 53 454 79 q 391 69 432 56 q 325 83 350 82 l 331 106 m 321 69 q 387 56 344 69 q 446 39 429 43 q 439 14 443 26 q 371 39 413 21 l 318 60 l 321 69 m 313 47 q 365 25 326 42 q 435 1 408 7 q 415 -40 426 -21 q 360 -4 406 -35 q 304 25 326 15 l 313 47 m 288 -7 l 293 3 l 297 13 q 351 -17 319 4 q 410 -51 399 -46 q 389 -82 400 -68 q 288 -7 326 -28 m 279 -18 l 281 -18 q 379 -93 318 -39 q 358 -117 369 -106 l 271 -31 q 279 -18 275 -25 m 263 -42 l 347 -125 l 340 -132 q 322 -146 332 -139 q 291 -104 317 -137 q 250 -54 265 -71 l 263 -42 m 240 -64 q 279 -112 254 -79 q 310 -153 304 -144 q 281 -168 297 -161 q 233 -69 261 -142 l 240 -64 m 222 -79 q 268 -174 249 -146 q 239 -183 254 -178 q 240 -176 242 -179 q 222 -122 235 -156 l 210 -86 q 222 -79 215 -83 m 197 -93 q 210 -126 200 -101 q 226 -179 222 -160 q 232 -185 228 -183 l 215 -189 l 215 -183 l 200 -137 q 188 -99 193 -112 q 197 -93 193 -96 m 175 -104 q 188 -142 179 -118 q 201 -189 197 -176 l 204 -192 l 179 -199 q 169 -154 179 -196 q 164 -108 163 -126 q 175 -104 169 -106 m 150 -112 q 156 -157 150 -131 q 167 -201 165 -199 l 163 -203 q 138 -115 147 -167 q 150 -112 143 -114 m 124 -118 q 149 -207 133 -171 l 136 -211 q 121 -162 131 -190 l 107 -119 q 124 -118 115 -119 m 415 460 q 394 457 408 458 l 351 453 l 351 457 q 415 460 375 460 m 343 168 l 343 169 q 346 188 344 178 q 407 185 365 188 q 461 182 443 183 q 460 153 461 167 q 425 157 454 153 q 381 163 396 161 q 343 168 356 167 m 78 -65 q 58 -74 67 -65 q 50 -93 50 -82 l 50 -99 q 49 -121 44 -110 l 61 -156 q 69 -181 68 -178 q 85 -237 81 -215 q 111 -260 90 -258 q 142 -267 124 -274 q 212 -248 160 -261 q 303 -218 264 -235 q 376 -174 343 -201 q 513 104 496 -75 q 515 206 515 181 q 511 308 515 232 l 504 407 q 504 617 500 488 q 510 831 510 789 q 501 850 510 842 q 482 858 493 858 q 475 857 478 858 q 468 858 472 858 q 392 856 443 858 q 317 854 342 854 q 297 846 306 854 q 289 826 289 838 q 290 818 289 822 q 289 815 289 817 q 290 574 281 754 q 297 275 301 368 q 244 31 290 113 q 78 -65 190 -65 "},"K":{"ha":654,"x_min":43,"x_max":672,"o":"m 418 514 q 507 601 469 560 l 513 593 q 418 514 453 540 m 308 438 l 314 443 q 488 631 435 551 l 499 614 q 313 440 440 547 l 308 438 m 572 49 l 600 104 l 606 97 q 572 49 585 65 m 319 210 l 285 247 q 365 318 329 290 l 394 293 q 354 250 383 281 q 319 210 332 225 m 344 183 l 329 200 q 365 240 342 215 q 404 285 393 271 l 429 264 q 344 183 410 250 m 379 146 l 354 172 q 439 254 421 240 l 460 238 q 379 146 436 215 m 418 107 l 389 136 q 469 228 447 207 l 488 213 q 418 107 456 156 m 460 67 l 428 96 q 497 203 465 146 l 528 176 q 495 125 519 163 q 460 67 471 88 m 492 39 l 469 57 q 506 117 482 79 l 538 167 l 558 147 q 492 39 531 110 m 535 4 q 503 29 519 15 q 568 136 542 100 l 590 114 l 535 4 m 276 260 q 263 268 271 267 q 236 267 249 275 q 338 342 290 315 l 354 328 q 276 260 319 300 m 189 -186 l 222 -153 l 225 -185 q 189 -186 206 -186 m 110 968 q 104 1011 108 990 q 138 1013 119 1011 q 110 968 122 992 m 110 915 l 110 940 q 156 1013 131 981 l 181 1013 l 197 1013 l 188 1003 l 149 963 q 110 915 124 936 m 107 844 q 108 886 108 871 q 158 953 121 913 l 197 993 l 217 1013 l 229 1013 q 150 908 192 968 q 107 844 125 874 m 103 750 q 104 806 103 772 l 104 815 q 161 900 125 850 q 244 1010 207 965 q 246 965 246 988 q 206 898 228 931 q 148 814 185 865 q 103 750 111 763 m 103 717 l 103 726 l 149 790 l 203 867 q 246 936 228 903 l 246 893 q 165 810 213 867 q 103 717 122 756 m 107 611 q 243 772 194 722 l 243 749 q 108 590 174 676 l 107 611 m 107 633 l 106 664 q 174 750 128 701 l 225 803 l 244 824 l 244 793 q 242 792 243 792 q 107 633 190 739 m 110 524 q 115 526 113 524 q 152 575 126 540 q 199 635 178 610 q 240 678 219 660 l 239 651 q 110 517 192 607 l 110 524 m 110 542 l 108 568 q 242 728 174 654 q 240 697 242 713 q 204 661 224 682 q 172 624 185 640 q 139 580 158 607 q 110 542 119 553 m 111 456 q 118 458 115 456 q 188 529 142 486 l 235 578 l 235 571 q 232 561 232 567 q 113 443 133 468 l 111 456 m 111 472 l 111 497 q 238 632 196 590 l 236 599 l 178 539 q 111 472 135 497 m 114 379 l 113 422 q 236 544 139 454 q 242 538 238 540 q 114 379 190 489 m 115 272 l 115 303 q 289 465 154 343 q 476 647 417 581 l 479 643 q 304 454 426 563 q 267 419 296 446 l 225 383 l 189 350 l 150 310 q 115 272 132 292 m 117 224 l 115 242 q 282 397 172 306 q 292 382 285 389 l 296 378 q 117 224 178 290 m 117 168 l 117 204 l 119 207 q 307 368 181 275 l 326 351 q 297 333 313 343 q 270 313 282 322 q 242 290 258 304 l 217 267 l 189 242 q 166 218 172 225 q 141 192 160 211 q 117 168 122 172 m 118 106 l 118 149 q 229 260 213 244 q 226 232 219 247 q 222 204 224 218 q 118 106 157 136 m 119 18 l 119 47 l 118 89 q 122 90 121 89 q 221 182 163 122 q 217 107 218 146 q 194 81 208 94 q 172 61 181 68 l 144 39 q 119 18 125 22 m 119 -42 l 119 0 q 150 24 128 6 l 186 56 q 215 85 203 69 l 215 44 q 119 -42 182 4 m 118 -110 l 118 -83 q 119 -58 119 -74 q 217 24 179 -15 l 217 -22 q 168 -65 203 -36 q 118 -110 135 -92 m 119 -169 q 121 -168 121 -169 q 181 -126 146 -156 l 219 -93 l 222 -133 q 167 -187 182 -174 q 121 -189 144 -189 q 119 -169 119 -179 m 119 -154 q 118 -132 118 -143 q 176 -75 136 -108 q 218 -40 206 -51 q 219 -76 218 -57 q 192 -99 210 -83 q 172 -117 174 -114 q 119 -154 140 -143 m 108 694 q 176 801 121 731 q 246 875 215 849 l 246 844 q 215 813 233 831 l 164 760 q 108 694 129 724 m 160 421 q 254 531 213 492 q 281 540 271 528 q 428 682 347 621 q 343 593 394 650 q 246 492 271 515 q 225 472 238 482 l 194 447 l 165 425 l 160 421 m 254 -237 q 273 -227 265 -236 q 279 -207 281 -218 q 281 -196 281 -201 q 277 -125 281 -183 q 273 -44 274 -67 q 272 24 272 -21 q 272 106 271 69 q 276 175 274 142 l 353 93 q 428 20 382 63 q 518 -51 475 -22 q 539 -56 528 -58 q 567 -49 556 -60 q 654 69 603 -10 q 663 75 658 71 q 672 94 671 82 q 665 114 674 106 q 589 194 633 151 l 517 261 l 431 336 q 354 401 369 388 q 385 419 369 410 l 413 439 q 442 461 425 449 l 468 483 l 497 506 q 522 528 515 521 l 550 550 q 574 572 569 568 q 583 591 582 579 q 576 611 585 603 q 561 621 571 618 q 489 733 532 661 q 485 754 490 744 q 467 766 478 764 q 446 763 456 768 q 294 638 365 710 q 299 1049 306 896 q 290 1067 299 1060 q 269 1075 281 1075 q 253 1069 260 1075 q 181 1068 238 1068 q 88 1065 122 1068 q 83 1064 86 1065 q 61 1067 72 1071 q 44 1053 50 1064 q 43 1032 39 1043 q 53 889 58 981 q 51 847 53 874 q 49 808 49 819 q 47 729 46 763 q 64 47 51 626 q 63 -83 64 26 q 67 -217 63 -164 q 75 -233 68 -226 q 92 -242 82 -240 q 104 -244 97 -244 q 254 -237 176 -244 m 450 683 l 453 686 l 469 660 q 281 475 401 586 l 114 322 l 114 347 q 175 415 129 378 l 201 436 l 233 461 q 257 481 247 471 l 353 583 q 450 683 411 649 "}}}
